<?xml version="1.0" encoding="UTF-8"?>
<svg version="1.1" xmlns="http://www.w3.org/2000/svg" width="512" height="512">
<path d="M0 0 C168.96 0 337.92 0 512 0 C512 168.96 512 337.92 512 512 C343.04 512 174.08 512 0 512 C0 343.04 0 174.08 0 0 Z " fill="#E82126" transform="translate(0,0)"/>
<path d="M0 0 C8.92408785 6.39028434 14.1963869 14.66742854 17.0625 25.25 C17.1553125 26.735 17.1553125 26.735 17.25 28.25 C17.311875 29.02472656 17.37375 29.79945313 17.4375 30.59765625 C17.92869284 41.26575073 15.1916015 51.10495145 8.1640625 59.25390625 C0.06035041 67.70492029 -8.24412052 73.21404054 -20.23217773 73.54248047 C-31.92844985 73.65503701 -41.63782911 70.96428104 -50.75 63.25 C-59.03342433 54.8496725 -63.21141531 44.97804586 -63.375 33.25 C-63.18470626 21.36899822 -59.30861177 12.91201868 -51 4.37109375 C-36.38452657 -9.40703485 -16.99040306 -10.46883421 0 0 Z " fill="#FAE6D6" transform="translate(83.75,215.75)"/>
<path d="M0 0 C2 2 2 2 2.1875 5.5625 C2 9 2 9 1 10 C-1.4375 10.1875 -1.4375 10.1875 -4 10 C-4.66 9.34 -5.32 8.68 -6 8 C-6 7.01 -6 6.02 -6 5 C-7.65 5.33 -9.3 5.66 -11 6 C-10.69964844 6.54527344 -10.39929688 7.09054688 -10.08984375 7.65234375 C-7.17709604 13.42847056 -6.20361563 17.70670642 -8 24 C-10.34430605 29.3001702 -13.77895409 31.59365363 -18.87109375 33.9765625 C-23.30663176 35.42738767 -27.73502182 35.93123214 -32.37792969 36.28027344 C-36.67002201 36.63706813 -39.4897991 37.48786396 -43 40 C-42.67 41.65 -42.34 43.3 -42 45 C-36.97068557 46.99410716 -32.56946609 47.30090329 -27.25 47.4375 C-17.74352075 47.84940583 -9.50697808 48.58882057 -2.34375 55.46484375 C0.57000752 58.79364231 1.03447404 61.05196385 0.875 65.4375 C-0.68567326 71.79166972 -4.41171665 76.5889699 -10 80 C-19.64477061 84.44869493 -31.76931056 84.64034831 -41.73828125 81.09765625 C-46.58615306 78.74488945 -50.84789224 75.90553491 -52.890625 70.75390625 C-53.68043923 66.4172411 -53.283683 64.47871507 -51 60.625 C-47.66746901 57.70903538 -45.13530008 56.45951767 -41 55 C-41.56589844 54.66226563 -42.13179688 54.32453125 -42.71484375 53.9765625 C-43.81505859 53.30753906 -43.81505859 53.30753906 -44.9375 52.625 C-45.66839844 52.18414062 -46.39929688 51.74328125 -47.15234375 51.2890625 C-49 50 -49 50 -50 48 C-50.57538625 40.98028769 -50.57538625 40.98028769 -48.3125 37.125 C-45.93441522 34.9397329 -44.06867635 33.93765111 -41 33 C-41 32.34 -41 31.68 -41 31 C-41.86625 30.690625 -41.86625 30.690625 -42.75 30.375 C-46.04664144 28.36038579 -47.26778812 26.46442376 -49 23 C-49.81422169 17.98439441 -49.5957701 14.1915402 -47.3125 9.625 C-43.20939651 4.96742307 -39.13998007 1.29775673 -32.828125 0.69921875 C-22.00416379 0.6637691 -22.00416379 0.6637691 -17.5 2.75 C-16.345 3.1625 -15.19 3.575 -14 4 C-6.33136095 -0.63313609 -6.33136095 -0.63313609 0 0 Z " fill="#FCF8F9" transform="translate(337,238)"/>
<path d="M0 0 C21.78 0 43.56 0 66 0 C66 9.24 66 18.48 66 28 C65.01 28 64.02 28 63 28 C62.52820313 26.46279297 62.52820313 26.46279297 62.046875 24.89453125 C61.61515441 23.53367287 61.18283066 22.17300573 60.75 20.8125 C60.54503906 20.13896484 60.34007812 19.46542969 60.12890625 18.77148438 C58.57240434 13.93689512 56.96149325 9.71062235 52.33300781 7.03710938 C46.79587102 4.62917052 41.44773114 4.64525706 35.5 4.8125 C32.365 4.874375 29.23 4.93625 26 5 C25.67 15.56 25.34 26.12 25 37 C35.92331 36.01428851 35.92331 36.01428851 40.125 32.9375 C42.57065043 29.10598099 43.34926896 25.45799327 44 21 C45.32 21 46.64 21 48 21 C48 32.88 48 44.76 48 57 C46.68 57 45.36 57 44 57 C43.81824219 56.09507812 43.81824219 56.09507812 43.6328125 55.171875 C43.38144531 53.97304688 43.38144531 53.97304688 43.125 52.75 C42.96257812 51.96109375 42.80015625 51.1721875 42.6328125 50.359375 C41.98818894 47.95596369 41.35031918 46.09254761 40 44 C35.09574976 41.24420876 35.09574976 41.24420876 25 41 C25.33 52.22 25.66 63.44 26 75 C30.29 75.33 34.58 75.66 39 76 C39 77.32 39 78.64 39 80 C26.13 80 13.26 80 0 80 C0 78.68 0 77.36 0 76 C0.78246094 75.93941406 1.56492187 75.87882812 2.37109375 75.81640625 C3.38300781 75.73261719 4.39492187 75.64882813 5.4375 75.5625 C6.44683594 75.48128906 7.45617187 75.40007812 8.49609375 75.31640625 C10.93640779 75.26788532 10.93640779 75.26788532 12 74 C12.09948193 71.88862099 12.12799638 69.77387714 12.12939453 67.66015625 C12.13114685 66.99837372 12.13289917 66.33659119 12.13470459 65.65475464 C12.13912217 63.4573101 12.13618547 61.25994542 12.1328125 59.0625 C12.13348557 57.54174789 12.13445561 56.02099588 12.13571167 54.50024414 C12.13718851 51.30907164 12.13503452 48.11792708 12.13037109 44.92675781 C12.1246738 40.8273547 12.12795288 36.72801704 12.13394356 32.62861633 C12.13754954 29.48717756 12.13641042 26.34575442 12.13381577 23.20431519 C12.1331466 21.69237256 12.13397457 20.18042854 12.13629532 18.66848755 C12.13882245 16.55890113 12.13498044 14.44942213 12.12939453 12.33984375 C12.12859894 11.13706787 12.12780334 9.93429199 12.12698364 8.69506836 C12.30687593 6.08252815 12.30687593 6.08252815 11 5 C9.15108054 4.76636119 7.29511969 4.58696365 5.4375 4.4375 C4.42558594 4.35371094 3.41367188 4.26992187 2.37109375 4.18359375 C1.19740234 4.09271484 1.19740234 4.09271484 0 4 C0 2.68 0 1.36 0 0 Z " fill="#FDFBF9" transform="translate(112,208)"/>
<path d="M0 0 C5.51541783 3.27660129 9.94199727 9.31262595 11.5625 15.5 C12.0575 20.45 12.0575 20.45 12.5625 25.5 C0.3525 25.5 -11.8575 25.5 -24.4375 25.5 C-22.6032613 38.44458413 -22.6032613 38.44458413 -14.625 45.8125 C-9.54282642 47.40975456 -5.05233927 47.05270803 -0.25 44.9375 C3.99842493 42.61636843 6.05308929 39.57779241 8.5625 35.5 C9.8825 35.83 11.2025 36.16 12.5625 36.5 C10.0104442 43.94349609 5.43180927 48.01167889 -1.4375 51.5 C-8.48022012 53.73511477 -15.75634786 53.19592426 -22.33203125 49.890625 C-27.72664364 46.32757859 -32.0453062 41.09677781 -34 34.890625 C-35.6708999 25.76035057 -35.340947 16.55258158 -30.4375 8.5 C-22.94284479 -1.08154468 -11.67665045 -5.0621317 0 0 Z " fill="#FCF7F7" transform="translate(375.4375,237.5)"/>
<path d="M0 0 C0.95519531 0.33773437 1.91039063 0.67546875 2.89453125 1.0234375 C14.40730896 5.02599671 24.71284136 7.31914698 37 7 C37 12.28 37 17.56 37 23 C37.66 23 38.32 23 39 23 C39 17.72 39 12.44 39 7 C40.794375 7.04125 42.58875 7.0825 44.4375 7.125 C49.19591315 7.13622267 53.38711801 6.70762044 57.96484375 5.4375 C60.35005802 4.9247476 62.56750255 4.93231311 65 5 C66.20626202 20.98297171 66.20626202 20.98297171 63.5703125 25.390625 C61.45317618 27.00611055 59.46327301 27.99524391 57 29 C55.948125 29.60328125 55.948125 29.60328125 54.875 30.21875 C46.33449618 34.60762002 35.11479741 34.3708236 25.8984375 32.3046875 C15.21924538 28.3702483 6.58437498 20.32516852 1.74609375 10.06640625 C0.53977009 6.72533182 0.25250064 3.535009 0 0 Z " fill="#E92C30" transform="translate(23,254)"/>
<path d="M0 0 C0.66 2.97 1.32 5.94 2 9 C2.99 8.071875 3.98 7.14375 5 6.1875 C10.10268952 1.86353418 14.84836934 -0.39230743 21.625 0.0625 C25.90558485 0.76979113 28.73509084 2.03880332 32 5 C37.25798033 12.65500078 36.63512971 21.00693675 36.6875 29.9375 C36.71656585 32.22745635 36.75101603 34.51721364 36.78999329 36.80702209 C36.81248029 38.22476626 36.82830002 39.64263483 36.83683777 41.06053162 C36.595872 44.31086276 36.595872 44.31086276 38 47 C40.32817964 47.36760731 42.6618385 47.70241581 45 48 C45 49.32 45 50.64 45 52 C36.09 52 27.18 52 18 52 C18 50.68 18 49.36 18 48 C19.134375 47.855625 20.26875 47.71125 21.4375 47.5625 C24.80777201 47.38828522 24.80777201 47.38828522 26 46 C26.24317111 41.81635163 26.2285673 37.62670446 26.24023438 33.43676758 C26.24988143 31.33829216 26.28086199 29.24082093 26.3125 27.14257812 C26.31903598 25.79948497 26.32428411 24.45638481 26.328125 23.11328125 C26.3374707 21.89423096 26.34681641 20.67518066 26.35644531 19.41918945 C25.95957043 15.61218072 25.01417082 13.2386616 23 10 C18.74060541 7.16040361 14.99777523 7.37627765 10 8 C5.67959553 10.20616398 4.23331603 13.00171406 2.61303711 17.49902344 C1.37469712 22.55101661 1.65449631 27.7058629 1.75 32.875 C1.75515625 34.01453125 1.7603125 35.1540625 1.765625 36.328125 C1.56377414 41.83657691 1.56377414 41.83657691 3 47 C5.32156597 47.40729228 7.6568787 47.74438677 10 48 C10 49.32 10 50.64 10 52 C1.09 52 -7.82 52 -17 52 C-17 50.68 -17 49.36 -17 48 C-15.865625 47.855625 -14.73125 47.71125 -13.5625 47.5625 C-10.19222799 47.38828522 -10.19222799 47.38828522 -9 46 C-8.8865485 43.21176262 -8.83581737 40.44922655 -8.83203125 37.66015625 C-8.82870285 36.82286484 -8.82537445 35.98557343 -8.82194519 35.12290955 C-8.81687244 33.34830272 -8.81453697 31.57368633 -8.81469727 29.79907227 C-8.81251203 27.07747744 -8.79436367 24.35628857 -8.77539062 21.63476562 C-8.77245658 19.91406389 -8.77047186 18.19336023 -8.76953125 16.47265625 C-8.76234573 15.65491226 -8.75516022 14.83716827 -8.74775696 13.99464417 C-8.57533791 9.5251718 -8.57533791 9.5251718 -11 6 C-12.98821313 5.60235737 -14.98944339 5.26224651 -17 5 C-17 3.68 -17 2.36 -17 1 C-14.9168207 0.83141902 -12.83344956 0.66520745 -10.75 0.5 C-9.58984375 0.4071875 -8.4296875 0.314375 -7.234375 0.21875 C-4.82731342 0.05595356 -2.41256049 0 0 0 Z " fill="#FDFBFA" transform="translate(236,236)"/>
<path d="M0 0 C0.66 2.97 1.32 5.94 2 9 C2.74443359 8.27683594 2.74443359 8.27683594 3.50390625 7.5390625 C8.40716226 2.98005786 12.24580337 0.05004418 19.2265625 -0.0234375 C24.44829999 0.30837859 27.98218098 1.46049277 32 5 C35.48006223 10.76010301 36.12274702 15.48423071 36.28125 22.13671875 C36.30886414 23.15678764 36.30886414 23.15678764 36.33703613 24.19746399 C36.41552297 27.09803988 36.48373524 29.99883198 36.55224609 32.8996582 C36.60382886 35.02046687 36.66109885 37.14106779 36.71875 39.26171875 C36.74904297 40.52975342 36.77933594 41.79778809 36.81054688 43.10424805 C36.67339057 45.89320219 36.67339057 45.89320219 38 47 C40.32817964 47.36760731 42.6618385 47.70241581 45 48 C45 49.32 45 50.64 45 52 C36.09 52 27.18 52 18 52 C18 50.68 18 49.36 18 48 C19.134375 47.855625 20.26875 47.71125 21.4375 47.5625 C24.80777201 47.38828522 24.80777201 47.38828522 26 46 C26.24331462 41.97646098 26.22858055 37.94922801 26.24023438 33.91894531 C26.24986209 31.90386433 26.28083261 29.88983787 26.3125 27.875 C26.44520298 18.49017945 26.44520298 18.49017945 23 10 C18.74060541 7.16040361 14.99777523 7.37627765 10 8 C5.69852689 10.19649691 4.22747382 12.98330429 2.61303711 17.46337891 C1.3463496 22.7046705 1.65541299 28.07855485 1.75 33.4375 C1.75515625 34.63310547 1.7603125 35.82871094 1.765625 37.06054688 C1.30466637 42.39393154 1.30466637 42.39393154 3 47 C5.32817964 47.36760731 7.6618385 47.70241581 10 48 C10 49.32 10 50.64 10 52 C1.09 52 -7.82 52 -17 52 C-17 50.68 -17 49.36 -17 48 C-15.865625 47.855625 -14.73125 47.71125 -13.5625 47.5625 C-10.19222799 47.38828522 -10.19222799 47.38828522 -9 46 C-8.87415549 43.21178142 -8.81133653 40.44967289 -8.796875 37.66015625 C-8.79117493 36.82286484 -8.78547485 35.98557343 -8.77960205 35.12290955 C-8.77013846 33.34831003 -8.76361269 31.57369284 -8.75976562 29.79907227 C-8.75005291 27.07732677 -8.71904013 24.3563339 -8.6875 21.63476562 C-8.68097101 19.914067 -8.67572013 18.19336296 -8.671875 16.47265625 C-8.6533548 15.24604027 -8.6533548 15.24604027 -8.63446045 13.99464417 C-8.60932167 11.46080511 -8.60932167 11.46080511 -9 8 C-11.91765 6.0549 -13.62537285 5.54723683 -17 5 C-17 3.68 -17 2.36 -17 1 C-14.9168207 0.83141902 -12.83344956 0.66520745 -10.75 0.5 C-9.58984375 0.4071875 -8.4296875 0.314375 -7.234375 0.21875 C-4.82731342 0.05595356 -2.41256049 0 0 0 Z " fill="#FDFAFB" transform="translate(410,236)"/>
<path d="M0 0 C6.625 -0.125 6.625 -0.125 10 1 C11.423125 0.938125 11.423125 0.938125 12.875 0.875 C22.15345252 0.77650263 30.5653697 3.60624861 38 9 C37.125 13.75 37.125 13.75 36 16 C36.66 16 37.32 16 38 16 C39.60205468 21.07317314 38.61399531 24.57661893 36.55078125 29.27734375 C30.94086744 39.12648714 21.98461165 46.98216902 11.125 50.4375 C5.80429711 51.54324278 0.33725143 50.65826101 -5 50 C-5 49.67 -5 49.34 -5 49 C-4.12859375 48.98582031 -3.2571875 48.97164063 -2.359375 48.95703125 C7.61043109 48.55780741 15.1587929 46.32965167 23.7890625 41.41015625 C27.08484267 37.81740649 26.77930413 34.47119 26.8125 29.75 C26.83763672 28.90953125 26.86277344 28.0690625 26.88867188 27.203125 C26.94739935 25.13591772 26.97659774 23.06790889 27 21 C25.06201479 21.30947671 23.12462574 21.62268834 21.1875 21.9375 C20.10855469 22.11152344 19.02960938 22.28554688 17.91796875 22.46484375 C14.95066644 22.93871921 14.95066644 22.93871921 12 24 C12 23.34 12 22.68 12 22 C8.37 22 4.74 22 1 22 C1.03255208 19.42838542 1.06510417 16.85677083 1.09765625 14.28515625 C1.25949049 12.03406673 1.25949049 12.03406673 0 11 C-0.07226502 9.14712498 -0.0838122 7.29166122 -0.0625 5.4375 C-0.05347656 4.42558594 -0.04445313 3.41367188 -0.03515625 2.37109375 C-0.02355469 1.58863281 -0.01195312 0.80617187 0 0 Z " fill="#F9E2D4" transform="translate(61,238)"/>
<path d="M0 0 C1.32 0 2.64 0 4 0 C4 6.6 4 13.2 4 20 C9.61 20 15.22 20 21 20 C21 21.65 21 23.3 21 25 C15.39 25 9.78 25 4 25 C4.096999 30.05415853 4.199767 35.10750904 4.31738281 40.16113281 C4.35563327 41.87981011 4.39049303 43.59856638 4.421875 45.31738281 C4.46761128 47.7900004 4.52559084 50.26207613 4.5859375 52.734375 C4.59748871 53.50118591 4.60903992 54.26799683 4.62094116 55.05804443 C4.71659399 60.36311622 4.71659399 60.36311622 7 65 C10.42112389 65.96683936 13.77137559 66.72962022 17 65 C18.89385576 60.81358201 19.45544122 56.53798983 20 52 C21.32 52 22.64 52 24 52 C24.09734319 59.56495626 23.08201225 64.02088084 17.7890625 69.5390625 C14.10896819 72.54420501 10.04752861 72.33150759 5.51171875 72.28515625 C1.82372629 71.86645726 -0.27384723 70.45353749 -3 68 C-5.81126598 64.11006218 -5.25221819 59.66711126 -5.1953125 55.078125 C-5.1924826 54.21813904 -5.18965271 53.35815308 -5.18673706 52.47210693 C-5.1755615 49.73126179 -5.15046179 46.99074602 -5.125 44.25 C-5.1149668 42.38932764 -5.10584155 40.52865015 -5.09765625 38.66796875 C-5.07563076 34.11185268 -5.04111897 29.55598214 -5 25 C-7.97 25 -10.94 25 -14 25 C-14 23.68 -14 22.36 -14 21 C-12.9275 20.608125 -11.855 20.21625 -10.75 19.8125 C-5.99617099 17.75730928 -3.78699256 14.90535041 -1.8125 10.125 C-0.93796801 6.76141544 -0.41384607 3.44871727 0 0 Z " fill="#FEF9FA" transform="translate(467,217)"/>
<path d="M0 0 C2 1.5 2 1.5 3 3.5 C3.69382392 10.55387648 3.69382392 10.55387648 0.9375 14.3125 C-6.50624171 19.85571191 -12.84456497 20.30815811 -22 19.5 C-26.71867329 18.61908994 -29.9802489 17.42026319 -33.5625 14.1875 C-35.31858359 10.9043872 -35.61218369 9.17310211 -35 5.5 C-32.11019865 0.72071315 -28.38308407 -1.50497527 -23.07421875 -3.06640625 C-15.37926522 -4.67495586 -6.99328401 -3.496642 0 0 Z " fill="#E82428" transform="translate(326,297.5)"/>
<path d="M0 0 C6.6 0 13.2 0 20 0 C20.06058594 3.23683594 20.12117188 6.47367188 20.18359375 9.80859375 C20.24532994 12.92946842 20.30873965 16.05030488 20.37231445 19.17114258 C20.41573507 21.34688953 20.45740471 23.52267214 20.49731445 25.69848633 C20.55484502 28.81863168 20.61858823 31.93859633 20.68359375 35.05859375 C20.70030624 36.03775253 20.71701874 37.01691132 20.73423767 38.02574158 C20.75418289 38.92659988 20.77412811 39.82745819 20.79467773 40.75561523 C20.81799416 41.95141457 20.81799416 41.95141457 20.84178162 43.17137146 C20.80400665 45.01851382 20.80400665 45.01851382 22 46 C23.34747084 46.23075082 24.70377565 46.41153063 26.0625 46.5625 C27.361875 46.706875 28.66125 46.85125 30 47 C30 48.32 30 49.64 30 51 C20.43 51 10.86 51 1 51 C1 49.68 1 48.36 1 47 C3.05078125 46.77213542 5.1015625 46.54427083 7.15234375 46.31640625 C9.01140229 46.18113386 9.01140229 46.18113386 10 45 C10.08865208 42.1156618 10.11521296 39.25537842 10.09765625 36.37109375 C10.0962413 35.50686295 10.09482635 34.64263214 10.09336853 33.75221252 C10.08775239 30.98060708 10.07519719 28.2090812 10.0625 25.4375 C10.05748708 23.5631522 10.05292381 21.68880315 10.04882812 19.81445312 C10.03777772 15.20960456 10.0205023 10.60481579 10 6 C6.7 5.34 3.4 4.68 0 4 C0 2.68 0 1.36 0 0 Z " fill="#FCFCFC" transform="translate(183,237)"/>
<path d="M0 0 C0.73605469 0.00451172 1.47210938 0.00902344 2.23046875 0.01367188 C4.02868158 0.02534858 5.82685197 0.04327989 7.625 0.0625 C7.625 3.0325 7.625 6.0025 7.625 9.0625 C-1.285 9.0625 -10.195 9.0625 -19.375 9.0625 C-19.375 9.7225 -19.375 10.3825 -19.375 11.0625 C-18.59261963 11.05726318 -17.81023926 11.05202637 -17.00415039 11.04663086 C-13.48194167 11.02592894 -9.9597457 11.01286162 -6.4375 11 C-4.58995117 10.98743164 -4.58995117 10.98743164 -2.70507812 10.97460938 C-1.53525391 10.97138672 -0.36542969 10.96816406 0.83984375 10.96484375 C2.46587524 10.95698853 2.46587524 10.95698853 4.12475586 10.94897461 C6.625 11.0625 6.625 11.0625 7.625 12.0625 C7.69679964 13.58178038 7.70892007 15.10417482 7.6875 16.625 C7.67847656 17.45128906 7.66945312 18.27757812 7.66015625 19.12890625 C7.64855469 19.76699219 7.63695312 20.40507812 7.625 21.0625 C1.47265625 21.16015625 1.47265625 21.16015625 -0.375 21.0625 C-0.705 20.7325 -1.035 20.4025 -1.375 20.0625 C-2.633125 20.10375 -3.89125 20.145 -5.1875 20.1875 C-13.70714111 20.26902767 -22.4607935 18.1329181 -29.375 13.0625 C-30.3125 10.8125 -30.3125 10.8125 -30.375 9.0625 C-22.28917391 1.25549549 -10.73758994 -0.12621037 0 0 Z " fill="#E82B2F" transform="translate(52.375,238.9375)"/>
<path d="M0 0 C1.11020508 0.02618408 2.22041016 0.05236816 3.36425781 0.0793457 C4.56953125 0.09545898 5.77480469 0.11157227 7.01660156 0.12817383 C8.27085938 0.17006836 9.52511719 0.21196289 10.81738281 0.25512695 C12.72197266 0.28896484 12.72197266 0.28896484 14.66503906 0.32348633 C17.7996563 0.3824077 20.93366792 0.47208686 24.06738281 0.56762695 C24.06738281 5.51762695 24.06738281 10.46762695 24.06738281 15.56762695 C20.9749349 15.53507487 17.88248698 15.50252279 14.79003906 15.4699707 C12.15290647 15.25500124 12.15290647 15.25500124 11.06738281 16.56762695 C7.79604196 17.19397364 4.52200828 17.7597206 1.23339844 18.28637695 C-3.30242429 19.07375892 -6.83543094 20.36853748 -10.93261719 22.56762695 C-11.59261719 22.56762695 -12.25261719 22.56762695 -12.93261719 22.56762695 C-12.56479854 15.82428509 -10.66880813 11.17694867 -6.93261719 5.56762695 C-6.3726001 4.70782227 -5.81258301 3.84801758 -5.2355957 2.9621582 C-2.93261719 0.56762695 -2.93261719 0.56762695 0 0 Z " fill="#E83235" transform="translate(35.9326171875,221.432373046875)"/>
<path d="M0 0 C3.03047768 2.48083222 4.75832324 5.27496972 6 9 C6.3684431 14.61875724 6.19190228 18.15711379 3 23 C0.34871309 25.72294331 -1.17993447 26.86041438 -4.9375 27.5 C-8.86183517 26.85929222 -10.96599603 25.55132152 -14 23 C-16.59376986 17.79481558 -16.68547691 12.70116158 -16 7 C-14.38840639 3.71925586 -13.0413766 1.8554165 -10.25 -0.4375 C-6.67646959 -1.3308826 -3.45003823 -1.19108463 0 0 Z " fill="#E82226" transform="translate(314,243)"/>
<path d="M0 0 C2.33944736 0.28730055 4.6739143 0.61936779 7 1 C6 2.5 6 2.5 4 4 C2.16910368 4 0.33758488 3.98992456 -1.4921875 3.92578125 C-10.30175467 4.18650053 -17.93229209 6.87244721 -25 12 C-24.80415175 13.94446582 -24.80415175 13.94446582 -24 16 C-15.85235635 21.5651316 -5.53579561 22.35833887 4 22 C4 22.66 4 23.32 4 24 C6.64 24 9.28 24 12 24 C11.505 19.545 11.505 19.545 11 15 C-1.87 14.505 -1.87 14.505 -15 14 C-15 13.34 -15 12.68 -15 12 C-6.09 12 2.82 12 12 12 C12 8.37 12 4.74 12 1 C14.2277397 0.77692458 16.45731364 0.57211822 18.6875 0.375 C19.92886719 0.25898438 21.17023438 0.14296875 22.44921875 0.0234375 C25.92880169 0.00046996 27.92484721 0.45948369 31 2 C31 2.33 31 2.66 31 3 C24.30469798 4.06274635 19.54562434 3.76627958 13 2 C13 5.63 13 9.26 13 13 C21.91 13 30.82 13 40 13 C40 13.33 40 13.66 40 14 C31.42 14 22.84 14 14 14 C14 17.3 14 20.6 14 24 C17.63 24 21.26 24 25 24 C25 24.33 25 24.66 25 25 C21.37 25 17.74 25 14 25 C14 30.28 14 35.56 14 41 C13.34 41 12.68 41 12 41 C12 35.72 12 30.44 12 25 C10.370625 25.2475 8.74125 25.495 7.0625 25.75 C1.4299514 26.23164311 -3.37208583 25.55784341 -8.8125 24.25 C-9.51689209 24.08081055 -10.22128418 23.91162109 -10.94702148 23.73730469 C-15.51720514 22.55936125 -19.70514654 20.95373726 -24 19 C-22.36003435 29.16778702 -18.14761862 37.00881576 -10.0703125 43.53515625 C-0.80744546 50.08907161 8.91352456 51.29785656 20 52 C20 52.33 20 52.66 20 53 C6.57985982 53.65199062 -4.3745004 51.99545137 -15 43 C-22.49906415 35.39510229 -27.18406317 26.18774492 -27.33618164 15.45336914 C-27.30223304 12.29474964 -27.18010158 9.15377872 -27 6 C-26.34 5.67 -25.68 5.34 -25 5 C-25 5.99 -25 6.98 -25 8 C-24.01 7.401875 -23.02 6.80375 -22 6.1875 C-16.42603094 3.34507816 -10.42447652 2.61896661 -4.31640625 1.61328125 C-1.16569616 1.35460861 -1.16569616 1.35460861 0 0 Z " fill="#FAEAE1" transform="translate(48,236)"/>
<path d="M0 0 C3.28013105 2.63836628 5.39899645 5.1291292 7 9 C7.23046875 11.32421875 7.23046875 11.32421875 7.1875 13.6875 C7.18105469 14.47511719 7.17460937 15.26273438 7.16796875 16.07421875 C7 18 7 18 6 19 C4.14630389 19.08737645 2.28932459 19.10698153 0.43359375 19.09765625 C-0.69111328 19.09443359 -1.81582031 19.09121094 -2.97460938 19.08789062 C-4.15861328 19.07951172 -5.34261719 19.07113281 -6.5625 19.0625 C-7.75037109 19.05798828 -8.93824219 19.05347656 -10.16210938 19.04882812 C-13.10812226 19.03699675 -16.05403681 19.02051287 -19 19 C-18.86659964 17.56844616 -18.7258442 16.13757657 -18.58203125 14.70703125 C-18.5044458 13.91014893 -18.42686035 13.1132666 -18.34692383 12.29223633 C-17.55927401 7.08798292 -14.95991514 3.3411784 -11 0 C-7.14623078 -1.28458974 -3.85791826 -1.1076445 0 0 Z " fill="#E72326" transform="translate(370,240)"/>
<path d="M0 0 C8.58 0 17.16 0 26 0 C26 5.94 26 11.88 26 18 C13.25 16.125 13.25 16.125 11 15 C7.32984725 14.8622315 3.67388652 14.95728039 0 15 C0 10.05 0 5.1 0 0 Z " fill="#E9262C" transform="translate(62,222)"/>
<path d="M0 0 C17.16 0 34.32 0 52 0 C44.22745926 7.77254074 36.73531078 10.48158709 25.875 10.5625 C15.54608903 10.39977255 8.05109798 7.47588316 0 1 C0 0.67 0 0.34 0 0 Z " fill="#E82326" transform="translate(35,277)"/>
<path d="M0 0 C2.4375 1.875 2.4375 1.875 3.4375 3.875 C-13.3925 3.875 -30.2225 3.875 -47.5625 3.875 C-44.27274565 0.58524565 -42.53615481 -0.892304 -38.5625 -2.8125 C-37.716875 -3.22886719 -36.87125 -3.64523438 -36 -4.07421875 C-24.15209262 -9.18173011 -10.57899247 -6.6212047 0 0 Z " fill="#E82229" transform="translate(82.5625,217.125)"/>
<path d="M0 0 C7.92 0 15.84 0 24 0 C24 4.95 24 9.9 24 15 C13.70282318 15.49034175 13.70282318 15.49034175 10.3125 13.125 C9 11 9 11 9 9 C8.443125 8.773125 7.88625 8.54625 7.3125 8.3125 C4.33840412 6.62449964 2.27991135 4.53323483 0 2 C0 1.34 0 0.68 0 0 Z " fill="#E72229" transform="translate(36,222)"/>
<path d="M0 0 C3.34252724 -0.07427838 5.8035914 -0.06546953 9 1 C10.010625 0.979375 11.02125 0.95875 12.0625 0.9375 C16.88206359 1.01400101 21.31270544 1.94370827 26 3 C26 5.31 26 7.62 26 10 C21.85418113 10.02886751 17.70838784 10.04675327 13.5625 10.0625 C11.78649414 10.07506836 11.78649414 10.07506836 9.97460938 10.08789062 C8.84990234 10.09111328 7.72519531 10.09433594 6.56640625 10.09765625 C5.00321655 10.10551147 5.00321655 10.10551147 3.40844727 10.11352539 C1 10 1 10 0 9 C-0.07179964 7.48071962 -0.08392007 5.95832518 -0.0625 4.4375 C-0.05347656 3.61121094 -0.04445312 2.78492188 -0.03515625 1.93359375 C-0.02355469 1.29550781 -0.01195312 0.65742188 0 0 Z " fill="#EB3035" transform="translate(62,238)"/>
<path d="M0 0 C8.58 0 17.16 0 26 0 C26 2.31 26 4.62 26 7 C20.35003856 8.64362515 14.90457857 9.79193559 9 9 C8.01 8.34 7.02 7.68 6 7 C6 7.99 6 8.98 6 10 C4.02 10 2.04 10 0 10 C0 6.7 0 3.4 0 0 Z " fill="#E92229" transform="translate(62,250)"/>
<path d="M0 0 C0 0.33 0 0.66 0 1 C-6.69530202 2.06274635 -11.45437566 1.76627958 -18 0 C-18 3.63 -18 7.26 -18 11 C-9.09 11 -0.18 11 9 11 C9 11.33 9 11.66 9 12 C0.42 12 -8.16 12 -17 12 C-17 15.3 -17 18.6 -17 22 C-13.37 22 -9.74 22 -6 22 C-6 22.33 -6 22.66 -6 23 C-9.63 23 -13.26 23 -17 23 C-17 28.28 -17 33.56 -17 39 C-17.66 39 -18.32 39 -19 39 C-19 33.72 -19 28.44 -19 23 C-22.96 23.33 -26.92 23.66 -31 24 C-31 23.34 -31 22.68 -31 22 C-29.68 21.34 -28.36 20.68 -27 20 C-27 20.66 -27 21.32 -27 22 C-24.36 22 -21.72 22 -19 22 C-19.33 19.03 -19.66 16.06 -20 13 C-32.87 12.505 -32.87 12.505 -46 12 C-46 11.34 -46 10.68 -46 10 C-37.09 10 -28.18 10 -19 10 C-19 6.37 -19 2.74 -19 -1 C-16.95999027 -1.22397733 -14.91783811 -1.42848537 -12.875 -1.625 C-11.73804688 -1.74101562 -10.60109375 -1.85703125 -9.4296875 -1.9765625 C-5.83488201 -2.00112837 -3.319329 -1.32167811 0 0 Z " fill="#FBF6EC" transform="translate(79,238)"/>
<path d="M0 0 C0 5.94 0 11.88 0 18 C-8.58 18 -17.16 18 -26 18 C-26 17.67 -26 17.34 -26 17 C-18.08 16.67 -10.16 16.34 -2 16 C-6.77241073 11.15092309 -6.77241073 11.15092309 -11.9375 6.75 C-12.9584375 5.88375 -12.9584375 5.88375 -14 5 C-14 4.01 -14 3.02 -14 2 C-12.60582227 1.65980848 -11.20955342 1.32818221 -9.8125 1 C-9.03519531 0.814375 -8.25789063 0.62875 -7.45703125 0.4375 C-5 0 -5 0 0 0 Z " fill="#EA3C3E" transform="translate(88,259)"/>
<path d="M0 0 C0.33 0 0.66 0 1 0 C1 5.61 1 11.22 1 17 C-6.75 21 -6.75 21 -9 21 C-8.54407268 12.6413325 -5.22201212 6.47646196 0 0 Z " fill="#E8252A" transform="translate(32,223)"/>
<path d="M0 0 C9.796875 0.7734375 9.796875 0.7734375 14 3 C11.85714108 5.16968191 9.71091768 7.33583475 7.5625 9.5 C6.64500977 10.43005859 6.64500977 10.43005859 5.70898438 11.37890625 C5.12568359 11.96542969 4.54238281 12.55195313 3.94140625 13.15625 C3.40201416 13.70087891 2.86262207 14.24550781 2.30688477 14.80664062 C1 16 1 16 0 16 C0 10.72 0 5.44 0 0 Z " fill="#E81F26" transform="translate(34,259)"/>
<path d="M0 0 C3.0625 0.3125 3.0625 0.3125 4.9375 1.4375 C6.59104531 4.19340884 6.45615568 6.16325452 6.0625 9.3125 C4.9375 11.1875 4.9375 11.1875 3.0625 12.3125 C-0.08235925 12.70560741 -2.07031671 12.78805213 -4.875 11.25 C-6.5865104 8.12901045 -5.73041991 5.66716116 -4.9375 2.3125 C-2.9375 0.3125 -2.9375 0.3125 0 0 Z " fill="#FBF8F9" transform="translate(196.9375,206.6875)"/>
<path d="M0 0 C4.95 1.98 4.95 1.98 10 4 C10 9.61 10 15.22 10 21 C3.31956254 14.31956254 0.6679624 9.35147364 0 0 Z " fill="#E72228" transform="translate(23,254)"/>
<path d="M0 0 C-1.51190485 8.59398548 -3.76238894 14.76238894 -10 21 C-10 15.39 -10 9.78 -10 4 C-2.25 0 -2.25 0 0 0 Z " fill="#E8232B" transform="translate(99,254)"/>
<path d="M0 0 C6.38075052 6.38075052 9.23894062 12.05755226 10 21 C6.7 19.35 3.4 17.7 0 16 C0 10.72 0 5.44 0 0 Z " fill="#E92A30" transform="translate(89,224)"/>
<path d="M0 0 C6.75 2.25 6.75 2.25 10 5 C9.67522284 8.00418869 9.42029035 9.57970965 7.25 11.75 C5 13 5 13 0 14 C0 9.38 0 4.76 0 0 Z " fill="#E92329" transform="translate(89,242)"/>
<path d="M0 0 C0.66 0 1.32 0 2 0 C2.94734782 3.2134038 3.16452421 6.15472447 3.1875 9.5 C3.20167969 10.4384375 3.21585937 11.376875 3.23046875 12.34375 C2.99479903 15.05994337 2.38484654 16.67915046 1 19 C1 17.35 1 15.7 1 14 C-0.65 14.33 -2.3 14.66 -4 15 C-3.319375 14.443125 -2.63875 13.88625 -1.9375 13.3125 C0.317511 11.16532835 0.317511 11.16532835 -0.1875 8.375 C-0.93353681 6.02157444 -0.93353681 6.02157444 -2 4 C-1.34 4 -0.68 4 0 4 C0 2.68 0 1.36 0 0 Z " fill="#FCF8F8" transform="translate(98,240)"/>
<path d="M0 0 C3.35111834 2.23407889 4.81553956 3.26215824 5.8125 7.25 C5.874375 8.1575 5.93625 9.065 6 10 C4.02 10 2.04 10 0 10 C0 6.7 0 3.4 0 0 Z " fill="#ED403F" transform="translate(62,250)"/>
<path d="M0 0 C2.64 0 5.28 0 8 0 C8 2.64 8 5.28 8 8 C6.85073734 7.04578192 5.70569459 6.08647955 4.5625 5.125 C3.92441406 4.59132812 3.28632812 4.05765625 2.62890625 3.5078125 C1 2 1 2 0 0 Z " fill="#E41E23" transform="translate(52,239)"/>
<path d="M0 0 C1.485 0.99 1.485 0.99 3 2 C2.67 6.62 2.34 11.24 2 16 C1.34 16 0.68 16 0 16 C0 10.72 0 5.44 0 0 Z " fill="#E81E28" transform="translate(89,224)"/>
<path d="M0 0 C0.50015625 0.49113281 1.0003125 0.98226562 1.515625 1.48828125 C4.893107 3.54344718 7.92763623 3.32839999 11.75 3.1875 C12.44738281 3.17396484 13.14476563 3.16042969 13.86328125 3.14648438 C15.57585541 3.1112945 17.28802941 3.05749155 19 3 C15.99559979 5.00293347 14.29006055 5.49271626 10.8125 6.125 C9.91144531 6.29257812 9.01039062 6.46015625 8.08203125 6.6328125 C7.39496094 6.75398438 6.70789063 6.87515625 6 7 C6 6.34 6 5.68 6 5 C4.35 5 2.7 5 1 5 C0.67 3.35 0.34 1.7 0 0 Z " fill="#F9D3C3" transform="translate(67,255)"/>
<path d="M0 0 C2.97 0.495 2.97 0.495 6 1 C4.60667426 4.36720387 3.0210714 5.9859524 0 8 C0 5.36 0 2.72 0 0 Z " fill="#E72627" transform="translate(62,239)"/>
<path d="M0 0 C1.57739052 2.50526729 2.07065754 3.58614871 1.5625 6.5625 C1.376875 7.366875 1.19125 8.17125 1 9 C1.33 9.99 1.66 10.98 2 12 C1.67 12.99 1.34 13.98 1 15 C0.34 15 -0.32 15 -1 15 C-1.02685412 12.68756208 -1.04632841 10.3750373 -1.0625 8.0625 C-1.07410156 6.77472656 -1.08570312 5.48695313 -1.09765625 4.16015625 C-1 1 -1 1 0 0 Z " fill="#FBF8FC" transform="translate(22,241)"/>
<path d="M0 0 C0 0.99 0 1.98 0 3 C-2.97 3 -5.94 3 -9 3 C-7.14340032 -0.71319936 -3.69365381 -0.09982848 0 0 Z " fill="#E9242B" transform="translate(88,259)"/>
<path d="M0 0 C4.95 0.33 9.9 0.66 15 1 C15 1.33 15 1.66 15 2 C8.565 2.495 8.565 2.495 2 3 C2 2.34 2 1.68 2 1 C1.34 0.67 0.68 0.34 0 0 Z " fill="#E81919" transform="translate(298,313)"/>
<path d="M0 0 C0.66 0.33 1.32 0.66 2 1 C2 1.66 2 2.32 2 3 C-0.3125 4.6875 -0.3125 4.6875 -3 6 C-3.99 5.67 -4.98 5.34 -6 5 C-4.02 3.35 -2.04 1.7 0 0 Z " fill="#E83533" transform="translate(298,296)"/>
<path d="M0 0 C0.99 0 1.98 0 3 0 C3.33 1.32 3.66 2.64 4 4 C1.36 4.33 -1.28 4.66 -4 5 C-3.01 4.67 -2.02 4.34 -1 4 C-0.26676204 1.98491642 -0.26676204 1.98491642 0 0 Z " fill="#E92A2E" transform="translate(79,233)"/>
<path d="M0 0 C2.875 -0.125 2.875 -0.125 6 0 C6.66 0.66 7.32 1.32 8 2 C6.329375 2.2165625 6.329375 2.2165625 4.625 2.4375 C1.17857953 2.78372035 1.17857953 2.78372035 -1 4 C-0.67 2.68 -0.34 1.36 0 0 Z " fill="#EC4A49" transform="translate(183,241)"/>
</svg>
