<?xml version="1.0" encoding="UTF-8"?>
<svg version="1.1" xmlns="http://www.w3.org/2000/svg" width="3000" height="2000">
<path d="M0 0 C2.36737391 1.26181238 4.53827511 2.58260667 6.72729492 4.1315918 C7.52103516 4.68999756 8.31477539 5.24840332 9.13256836 5.82373047 C9.97464844 6.42419189 10.81672852 7.02465332 11.68432617 7.64331055 C12.56636719 8.26633057 13.4484082 8.88935059 14.35717773 9.53125 C20.93464379 14.1878371 27.46535502 18.9086301 33.98583984 23.64453125 C38.77421152 27.11397554 43.61087109 30.50044087 48.49682617 33.83081055 C54.98343482 38.25250872 61.36018014 42.81144505 67.71337891 47.42236328 C72.80407996 51.1149102 77.91821982 54.77127532 83.05932617 58.39331055 C83.75735352 58.88508789 84.45538086 59.37686523 85.17456055 59.88354492 C87.28143924 61.36674075 89.38899392 62.84897024 91.49682617 64.33081055 C94.31023822 66.30868491 97.12289312 68.28762401 99.93432617 70.26831055 C100.63452881 70.76153809 101.33473145 71.25476563 102.05615234 71.76293945 C107.19233338 75.38937851 112.28567867 79.07216265 117.37182617 82.76831055 C123.57220258 87.27173474 129.84397285 91.65187759 136.18432617 95.95581055 C142.53053837 100.26409503 148.776143 104.67417788 154.93945312 109.23974609 C161.65934853 114.21194673 168.49889991 119.01076572 175.33959961 123.81469727 C178.89612 126.31424362 182.4462239 128.82286816 185.99682617 131.33081055 C190.2327934 134.3223925 194.46969235 137.31259889 198.71166992 140.2956543 C205.94523538 145.38603416 213.14893364 150.51292032 220.30932617 155.70581055 C229.16654765 162.12657327 238.12663214 168.39510122 247.09790039 174.6550293 C257.39933348 181.85114539 267.64097493 189.12469493 277.79760742 196.52392578 C281.55180505 199.24777728 285.33160888 201.91372327 289.18823242 204.4909668 C289.93387451 204.99104248 290.6795166 205.49111816 291.44775391 206.00634766 C292.86696697 206.95254282 294.29205947 207.88999467 295.72363281 208.81738281 C297.36721845 209.9135978 298.9405709 211.11379348 300.49682617 212.33081055 C300.49682617 213.32081055 300.49682617 214.31081055 300.49682617 215.33081055 C298.22121747 217.11638238 295.97795839 218.69730496 293.55932617 220.26831055 C292.09748121 221.24221021 290.63657634 222.21752215 289.17651367 223.1940918 C288.41177734 223.70278809 287.64704102 224.21148438 286.85913086 224.7355957 C282.16900229 227.90274123 277.58593528 231.22484148 272.99511719 234.53369141 C272.31892334 235.01588135 271.64272949 235.49807129 270.94604492 235.99487305 C270.05405396 236.63610107 270.05405396 236.63610107 269.14404297 237.2902832 C267.49682617 238.33081055 267.49682617 238.33081055 264.49682617 239.33081055 C264.49682617 239.99081055 264.49682617 240.65081055 264.49682617 241.33081055 C263.10463867 242.07331055 263.10463867 242.07331055 261.68432617 242.83081055 C257.12745854 245.40805535 253.02277888 248.56912491 248.85229492 251.72143555 C246.49682617 253.33081055 246.49682617 253.33081055 244.49682617 253.33081055 C244.49682617 253.99081055 244.49682617 254.65081055 244.49682617 255.33081055 C242.72338867 256.6003418 242.72338867 256.6003418 240.12182617 258.14331055 C234.71533959 261.47952542 229.56915983 265.0911677 224.43432617 268.83081055 C223.64630615 269.40412109 222.85828613 269.97743164 222.04638672 270.56811523 C220.52576231 271.67477685 219.00532697 272.78169832 217.48510742 273.88891602 C214.4091567 276.1195846 211.29575868 278.29418275 208.17651367 280.46362305 C198.69709213 287.06881765 189.26891275 293.74361245 179.93823242 300.55737305 C169.62473166 308.0491 159.02399313 315.1446493 148.49682617 322.33081055 C142.69049902 319.13832826 137.04038718 315.95333032 131.93432617 311.70581055 C127.26057023 307.8210327 122.33874699 304.41839152 117.30932617 301.01831055 C111.29620202 296.94889388 105.33847643 292.83096375 99.49682617 288.51831055 C98.89233643 288.07205322 98.28784668 287.6257959 97.66503906 287.16601562 C95.94070035 285.88975394 94.21833123 284.61089117 92.49682617 283.33081055 C90.4169162 281.78435216 88.33334726 280.24339088 86.24682617 278.70581055 C85.39604492 278.07416992 84.54526367 277.4425293 83.66870117 276.79174805 C81.47337628 275.17460039 81.47337628 275.17460039 78.49682617 274.33081055 C78.49682617 273.67081055 78.49682617 273.01081055 78.49682617 272.33081055 C77.62791748 271.91569214 77.62791748 271.91569214 76.74145508 271.4921875 C74.56658084 270.3669018 72.60325762 269.12970484 70.58276367 267.7487793 C69.8310791 267.23565186 69.07939453 266.72252441 68.30493164 266.19384766 C67.10054443 265.36445679 67.10054443 265.36445679 65.87182617 264.51831055 C65.03151855 263.94153564 64.19121094 263.36476074 63.32543945 262.77050781 C56.10875432 257.79578819 49.0007559 252.6791399 41.91088867 247.52612305 C36.8546003 243.85511916 31.74998292 240.25424775 26.63818359 236.66113281 C23.23371647 234.26690996 19.83754558 231.86288947 16.46166992 229.4284668 C15.82390625 228.96915771 15.18614258 228.50984863 14.52905273 228.03662109 C13.33782779 227.1772554 12.14825047 226.31559907 10.96069336 225.45117188 C8.23290929 223.48483208 5.56749214 221.71372549 2.49682617 220.33081055 C2.49682617 219.67081055 2.49682617 219.01081055 2.49682617 218.33081055 C0.4101195 217.29338294 0.4101195 217.29338294 -2.50317383 217.33081055 C-5.50416391 218.88025222 -8.08967827 220.95392259 -10.75317383 223.01831055 C-12.35272609 224.21587158 -13.95300562 225.41246174 -15.55395508 226.6081543 C-16.36944824 227.22416504 -17.18494141 227.84017578 -18.02514648 228.47485352 C-21.94799909 231.41293484 -25.93937854 234.25097568 -29.94067383 237.08081055 C-30.65578125 237.59345459 -31.37088867 238.10609863 -32.10766602 238.63427734 C-33.10588379 239.3425769 -33.10588379 239.3425769 -34.12426758 240.06518555 C-34.70619873 240.47994141 -35.28812988 240.89469727 -35.88769531 241.32202148 C-37.50317383 242.33081055 -37.50317383 242.33081055 -40.50317383 243.33081055 C-40.50317383 243.99081055 -40.50317383 244.65081055 -40.50317383 245.33081055 C-41.55504883 245.90831055 -42.60692383 246.48581055 -43.69067383 247.08081055 C-46.11950324 248.45747499 -48.11466352 249.8200023 -50.31567383 251.58081055 C-52.50317383 253.33081055 -52.50317383 253.33081055 -54.50317383 253.33081055 C-54.50317383 253.99081055 -54.50317383 254.65081055 -54.50317383 255.33081055 C-55.43129883 255.82581055 -56.35942383 256.32081055 -57.31567383 256.83081055 C-61.87254146 259.40805535 -65.97722112 262.56912491 -70.14770508 265.72143555 C-72.50317383 267.33081055 -72.50317383 267.33081055 -74.50317383 267.33081055 C-74.50317383 267.99081055 -74.50317383 268.65081055 -74.50317383 269.33081055 C-76.27661133 270.6003418 -76.27661133 270.6003418 -78.87817383 272.14331055 C-84.28465338 275.47952108 -89.43091254 279.09106989 -94.56567383 282.83081055 C-95.73682739 283.68316284 -95.73682739 283.68316284 -96.93164062 284.55273438 C-98.44488993 285.65433899 -99.95799796 286.75613769 -101.47094727 287.8581543 C-104.76829661 290.24758381 -108.10489258 292.57882733 -111.45239258 294.8972168 C-113.49305478 296.32373685 -115.49726638 297.79349876 -117.50317383 299.26831055 C-120.50317383 301.33081055 -120.50317383 301.33081055 -122.50317383 301.33081055 C-122.50317383 301.99081055 -122.50317383 302.65081055 -122.50317383 303.33081055 C-124.78462115 305.0020684 -127.06414927 306.55547674 -129.44067383 308.08081055 C-131.38931833 309.35243355 -133.33461314 310.62192243 -135.25369263 311.93787956 C-137.50317383 313.33081055 -137.50317383 313.33081055 -139.82943726 314.21777534 C-142.83351641 315.56960657 -144.4338225 316.738231 -146.50317383 319.33081055 C-147.99252641 325.82633975 -147.88012107 332.30518886 -147.88989258 338.94360352 C-147.92501912 340.97767917 -147.96375586 343.01169521 -148.00582886 345.04563904 C-148.1066962 350.56900667 -148.14836719 356.09126869 -148.17314529 361.61544943 C-148.19066606 365.07146659 -148.21973777 368.52719446 -148.25265503 371.98309708 C-148.3658992 384.05517798 -148.42704904 396.12639298 -148.44555664 408.19897461 C-148.46430254 419.42684772 -148.60298378 430.64896251 -148.7968359 441.87505043 C-148.95768912 451.53073367 -149.02912416 461.18451664 -149.03324223 470.84152901 C-149.03744882 476.60231814 -149.07772162 482.35718051 -149.21005249 488.11657333 C-150.97174044 510.90382687 -150.97174044 510.90382687 -144.22989273 531.80295753 C-138.96616233 537.15454331 -133.08268713 540.44810515 -126.1600647 543.22522354 C-122.65272152 544.68470127 -119.87136428 546.59583004 -116.80786133 548.8269043 C-115.91550781 549.41584473 -115.0231543 550.00478516 -114.10375977 550.61157227 C-109.24563455 553.82326188 -104.44128036 557.1147116 -99.62817383 560.39331055 C-98.54882568 561.12791504 -97.46947754 561.86251953 -96.35742188 562.61938477 C-84.83794329 570.46016942 -73.32608077 578.31213302 -61.81469727 586.16479492 C-56.34384162 589.89663629 -50.87223749 593.62737612 -45.3996582 597.35668945 C-43.41375411 598.71019759 -41.42808919 600.06405669 -39.44262695 601.41821289 C-36.27603952 603.57765233 -33.1084411 605.73560232 -29.94067383 607.89331055 C-29.00956787 608.52865723 -28.07846191 609.16400391 -27.11914062 609.81860352 C-20.30115226 614.45982367 -13.44579537 619.04327874 -6.58154297 623.61572266 C-5.61037788 624.26288994 -4.6392128 624.91005722 -3.63861847 625.57683563 C-1.26026602 627.16168783 1.11821876 628.74634103 3.49682617 630.33081055 C3.48299928 628.78802177 3.48299928 628.78802177 3.46889305 627.21406555 C3.2468672 602.18421702 3.08255539 577.15449623 2.97870445 552.12387085 C2.92714732 540.01915483 2.85686186 527.91508942 2.74243164 515.81079102 C2.6427376 505.26023709 2.57823901 494.71015434 2.55594122 484.15914249 C2.54290722 478.57251214 2.51229449 472.98722966 2.4395256 467.40103149 C2.37156144 462.14097397 2.3507266 456.88281704 2.36574936 451.62236214 C2.36300195 449.69377365 2.34315676 447.76512056 2.30477142 445.83691216 C2.02931645 431.2841142 2.02931645 431.2841142 5.64366531 426.47329712 C8.17493495 424.41114344 10.62174336 422.86334357 13.49682617 421.33081055 C14.98477773 420.30283265 16.46346051 419.2611132 17.92651367 418.19799805 C19.40578633 417.19690082 20.88763632 416.19960315 22.37182617 415.20581055 C24.03783463 414.07785473 25.70317761 412.94891547 27.36791992 411.8190918 C28.21467285 411.24497559 29.06142578 410.67085937 29.93383789 410.0793457 C34.12562435 407.21960341 38.28086295 404.30832215 42.43432617 401.39331055 C43.2623877 400.81242676 44.09044922 400.23154297 44.94360352 399.63305664 C46.62283871 398.45462884 48.30187509 397.27591769 49.98071289 396.09692383 C54.14974479 393.17059191 58.32351137 390.25102955 62.49682617 387.33081055 C64.16351578 386.16417665 65.83018244 384.99750998 67.49682617 383.83081055 C117.49682617 348.83081055 117.49682617 348.83081055 120.00073242 347.078125 C121.65443953 345.92049768 123.30808614 344.76278393 124.96166992 343.60498047 C129.32610589 340.549272 133.69182213 337.49541382 138.05932617 334.4440918 C138.9694043 333.80793945 139.87948242 333.17178711 140.81713867 332.51635742 C142.56154362 331.29705397 144.30631636 330.07827649 146.05151367 328.86010742 C146.8378418 328.31032227 147.62416992 327.76053711 148.43432617 327.1940918 C149.12397461 326.71238525 149.81362305 326.23067871 150.52416992 325.734375 C151.91978468 324.74138128 153.28647109 323.70713562 154.63061523 322.64550781 C156.49682617 321.33081055 156.49682617 321.33081055 158.41870117 321.43237305 C161.09359699 322.58881297 163.3398613 324.05858598 165.74682617 325.70581055 C166.80901367 326.42897461 167.87120117 327.15213867 168.96557617 327.8972168 C170.14287375 328.70810375 171.31994872 329.51931397 172.49682617 330.33081055 C173.75703412 331.19439645 175.01745675 332.05766916 176.27807617 332.9206543 C179.66694806 335.24365772 183.05032021 337.5745542 186.43237305 339.9074707 C189.78476405 342.21878096 193.14094695 344.52456937 196.49682617 346.83081055 C197.83017851 347.74744957 199.16351183 348.66411626 200.49682617 349.58081055 C201.15682617 350.03456055 201.81682617 350.48831055 202.49682617 350.95581055 C204.49682617 352.33081055 206.49682617 353.70581055 208.49682617 355.08081055 C209.15626221 355.53415771 209.81569824 355.98750488 210.49511719 356.45458984 C211.83420408 357.3752427 213.17323364 358.29597895 214.51220703 359.21679688 C217.75705619 361.44814746 221.00274419 363.67825002 224.25073242 365.9050293 C232.06388744 371.26458303 239.84929757 376.66249248 247.62182617 382.08081055 C257.17499786 388.73812267 266.77902787 395.31742669 276.40698242 401.8659668 C282.79694226 406.21228545 289.16341866 410.59237022 295.52758789 414.97631836 C297.68345074 416.45917567 299.84189803 417.93822054 302.00073242 419.41674805 C302.74210449 419.92496094 303.48347656 420.43317383 304.24731445 420.95678711 C305.67611758 421.93611857 307.10545674 422.91466858 308.53540039 423.89233398 C313.3845002 427.21848458 313.3845002 427.21848458 314.49682617 428.33081055 C314.59467028 431.02411824 314.62676412 433.69177223 314.61708069 436.38551331 C314.61793511 437.23983017 314.61878954 438.09414704 314.61966985 438.9743523 C314.62132728 441.85954995 314.61579901 444.74469045 314.61035156 447.62988281 C314.61006972 449.68911742 314.61022736 451.74835212 314.61079407 453.80758667 C314.61108216 459.41686142 314.60518352 465.02611499 314.59822011 470.6353848 C314.59198855 476.49039685 314.59138293 482.34540934 314.5901947 488.20042419 C314.5870808 499.29621816 314.57886663 510.39200232 314.56884521 521.48779196 C314.55768589 534.11635229 314.55217408 546.74491307 314.54714978 559.3734771 C314.53668406 585.35926036 314.51908349 611.3450349 314.49682617 637.33081055 C313.17682617 637.99081055 311.85682617 638.65081055 310.49682617 639.33081055 C310.49682617 639.99081055 310.49682617 640.65081055 310.49682617 641.33081055 C308.51682617 641.99081055 306.53682617 642.65081055 304.49682617 643.33081055 C304.49682617 643.99081055 304.49682617 644.65081055 304.49682617 645.33081055 C304.00956055 645.57573242 303.52229492 645.8206543 303.02026367 646.07299805 C298.17033243 648.63023452 293.70016083 651.54854918 289.27807617 654.7800293 C280.8813138 660.84376299 272.2575507 666.55271669 263.62182617 672.26831055 C260.56080614 674.29656847 257.5010805 676.32676367 254.44213867 678.3581543 C253.70006165 678.85004242 252.95798462 679.34193054 252.19342041 679.84872437 C248.39346817 682.37474347 244.61693971 684.92908127 240.87084961 687.53442383 C240.13357635 688.04679092 239.3963031 688.55915802 238.63668823 689.08705139 C237.23451042 690.06485 235.83521601 691.0468002 234.4392395 692.03343201 C229.71503596 695.33081055 229.71503596 695.33081055 227.49682617 695.33081055 C227.49682617 695.99081055 227.49682617 696.65081055 227.49682617 697.33081055 C220.74682617 701.33081055 220.74682617 701.33081055 218.49682617 701.33081055 C218.49682617 701.99081055 218.49682617 702.65081055 218.49682617 703.33081055 C216.51682617 703.99081055 214.53682617 704.65081055 212.49682617 705.33081055 C212.49682617 705.99081055 212.49682617 706.65081055 212.49682617 707.33081055 C212.00956055 707.57573242 211.52229492 707.8206543 211.02026367 708.07299805 C206.17033243 710.63023452 201.70016083 713.54854918 197.27807617 716.7800293 C188.8813138 722.84376299 180.2575507 728.55271669 171.62182617 734.26831055 C168.56080614 736.29656847 165.5010805 738.32676367 162.44213867 740.3581543 C161.70006165 740.85004242 160.95798462 741.34193054 160.19342041 741.84872437 C156.39346817 744.37474347 152.61693971 746.92908127 148.87084961 749.53442383 C148.13357635 750.04679092 147.3963031 750.55915802 146.63668823 751.08705139 C145.23451042 752.06485 143.83521601 753.0468002 142.4392395 754.03343201 C137.71503596 757.33081055 137.71503596 757.33081055 135.49682617 757.33081055 C135.49682617 757.99081055 135.49682617 758.65081055 135.49682617 759.33081055 C128.74682617 763.33081055 128.74682617 763.33081055 126.49682617 763.33081055 C126.49682617 763.99081055 126.49682617 764.65081055 126.49682617 765.33081055 C124.51682617 765.99081055 122.53682617 766.65081055 120.49682617 767.33081055 C120.49682617 767.99081055 120.49682617 768.65081055 120.49682617 769.33081055 C120.00956055 769.57573242 119.52229492 769.8206543 119.02026367 770.07299805 C114.17033243 772.63023452 109.70016083 775.54854918 105.27807617 778.7800293 C96.8813138 784.84376299 88.2575507 790.55271669 79.62182617 796.26831055 C76.56080614 798.29656847 73.5010805 800.32676367 70.44213867 802.3581543 C69.70006165 802.85004242 68.95798462 803.34193054 68.19342041 803.84872437 C64.39346817 806.37474347 60.61693971 808.92908127 56.87084961 811.53442383 C56.13357635 812.04679092 55.3963031 812.55915802 54.63668823 813.08705139 C53.23451042 814.06485 51.83521601 815.0468002 50.4392395 816.03343201 C45.71503596 819.33081055 45.71503596 819.33081055 43.49682617 819.33081055 C43.49682617 819.99081055 43.49682617 820.65081055 43.49682617 821.33081055 C36.74682617 825.33081055 36.74682617 825.33081055 34.49682617 825.33081055 C34.49682617 825.99081055 34.49682617 826.65081055 34.49682617 827.33081055 C32.51682617 827.99081055 30.53682617 828.65081055 28.49682617 829.33081055 C28.49682617 829.99081055 28.49682617 830.65081055 28.49682617 831.33081055 C27.06112352 832.14648229 25.62319183 832.95823147 24.18432617 833.76831055 C23.38381836 834.22077148 22.58331055 834.67323242 21.75854492 835.1394043 C19.49682617 836.33081055 19.49682617 836.33081055 16.49682617 837.33081055 C16.16682617 838.32081055 15.83682617 839.31081055 15.49682617 840.33081055 C13.57104492 841.75268555 13.57104492 841.75268555 11.18432617 843.08081055 C10.01450195 843.75370117 10.01450195 843.75370117 8.82104492 844.44018555 C6.03082191 845.50938025 5.2766169 845.30478374 2.49682617 844.33081055 C0.76436546 843.29415399 -0.92727305 842.18820801 -2.58911133 841.04174805 C-4.09151367 840.01210937 -4.09151367 840.01210937 -5.62426758 838.96166992 C-6.69805664 838.21723633 -7.7718457 837.47280273 -8.87817383 836.70581055 C-10.00667131 835.92982513 -11.13558343 835.15444239 -12.26489258 834.37963867 C-14.57246254 832.7954726 -16.87799367 831.2084078 -19.18188477 829.61889648 C-23.94217566 826.33644567 -28.72326686 823.08459733 -33.50317383 819.83081055 C-35.30533206 818.6017537 -37.10741451 817.37258572 -38.90942383 816.14331055 C-44.93693555 812.03364347 -50.96988256 807.93198622 -57.00317383 803.83081055 C-64.9025325 798.46097063 -72.79918338 793.08720761 -80.69067383 787.70581055 C-82.0301709 786.79255005 -82.0301709 786.79255005 -83.39672852 785.86083984 C-87.97695815 782.73754128 -92.55555655 779.61188105 -97.13208008 776.4831543 C-105.66205671 770.65490333 -114.20254567 764.84812192 -122.81567383 759.14331055 C-129.47873204 754.72864606 -136.02822886 750.17277458 -142.54272461 745.54223633 C-147.32755299 742.1455095 -152.1687155 738.85346238 -157.06567383 735.61987305 C-161.63782344 732.58942998 -166.16084552 729.48647369 -170.69067383 726.39331055 C-178.78923659 720.86419645 -186.89298122 715.34285399 -195.00317383 709.83081055 C-202.90257845 704.46103834 -210.79918349 699.08720753 -218.69067383 693.70581055 C-219.58367187 693.09697021 -220.47666992 692.48812988 -221.39672852 691.86083984 C-225.97695815 688.73754128 -230.55555655 685.61188105 -235.13208008 682.4831543 C-243.66205671 676.65490333 -252.20254567 670.84812192 -260.81567383 665.14331055 C-267.46630371 660.73688056 -274.0063992 656.19318493 -280.50537109 651.56640625 C-285.59644432 647.94778367 -290.75347314 644.45918699 -295.98754883 641.04956055 C-296.81770508 640.48237305 -297.64786133 639.91518555 -298.50317383 639.33081055 C-299.36644749 638.78113084 -300.22972116 638.23145113 -301.11915463 637.66511446 C-303.50317383 635.33081055 -303.50317383 635.33081055 -304.14257699 632.13438553 C-304.14935155 630.85689361 -304.15612611 629.57940169 -304.16310596 628.2631979 C-304.17366873 627.54769601 -304.1842315 626.83219413 -304.19511434 626.09501037 C-304.22451465 623.68462043 -304.21819484 621.27563998 -304.21211243 618.86509705 C-304.22574434 617.1246763 -304.24152218 615.38427125 -304.25926751 613.64388758 C-304.30160733 608.85123037 -304.31244499 604.05893514 -304.31804669 599.26611292 C-304.32934498 594.10085298 -304.36910993 588.93579862 -304.40480042 583.7706604 C-304.48460471 571.29168394 -304.51667449 558.81274798 -304.54511026 546.33356723 C-304.55979946 540.45791083 -304.58032776 534.58227586 -304.6005764 528.70663643 C-304.66636639 509.17617243 -304.72205488 489.64573378 -304.74282551 470.11516476 C-304.7441749 468.86477286 -304.74552429 467.61438097 -304.74691458 466.32609842 C-304.74826142 465.07269787 -304.74960827 463.81929732 -304.75099593 462.52791494 C-304.75373833 459.98801098 -304.75649883 457.44810704 -304.75927734 454.90820312 C-304.7606468 453.6483205 -304.76201626 452.38843787 -304.76342722 451.09037698 C-304.78751734 430.67954077 -304.88265775 410.26970069 -305.00829611 389.85926168 C-305.13622346 368.90748688 -305.20408155 347.95621345 -305.21194142 327.00404269 C-305.21777415 315.23861063 -305.24953471 303.47451261 -305.34768105 291.70945549 C-305.43099936 281.68964228 -305.45952486 271.67155241 -305.41676185 261.65145122 C-305.39658715 256.53900224 -305.40219059 251.43004377 -305.47775269 246.31803703 C-305.54637255 241.63340791 -305.54057442 236.95486776 -305.47649255 232.27022869 C-305.46628901 230.57965735 -305.48293778 228.8886567 -305.52969865 227.19870137 C-305.848117 214.91352598 -305.848117 214.91352598 -301.91772495 210.58460052 C-298.04939656 207.29959265 -293.81788741 204.76607786 -289.36251964 202.36228437 C-286.98976798 201.04599817 -284.83478217 199.50321117 -282.67114258 197.86987305 C-282.00832275 197.38566895 -281.34550293 196.90146484 -280.66259766 196.40258789 C-280.01186279 195.92515137 -279.36112793 195.44771484 -278.69067383 194.95581055 C-272.4723181 190.42680318 -266.18135711 186.0250835 -259.81567383 181.70581055 C-253.46936845 177.39766901 -247.22385132 172.987439 -241.06054688 168.421875 C-233.6343532 162.92706851 -226.06301741 157.63933306 -218.50317383 152.33081055 C-215.68946136 150.35336171 -212.87695115 148.37421984 -210.06567383 146.39331055 C-209.01573242 145.65371094 -209.01573242 145.65371094 -207.94458008 144.89916992 C-202.8081264 141.27260785 -197.71455868 137.58963092 -192.62817383 133.89331055 C-186.42779742 129.38988635 -180.15602715 125.0097435 -173.81567383 120.70581055 C-167.46946163 116.39752606 -161.223857 111.98744321 -155.06054688 107.421875 C-147.6343532 101.92706851 -140.06301741 96.63933306 -132.50317383 91.33081055 C-129.68946136 89.35336171 -126.87695115 87.37421984 -124.06567383 85.39331055 C-123.36571289 84.90024414 -122.66575195 84.40717773 -121.94458008 83.89916992 C-116.8081264 80.27260785 -111.71455868 76.58963092 -106.62817383 72.89331055 C-100.42779742 68.38988635 -94.15602715 64.0097435 -87.81567383 59.70581055 C-81.46946163 55.39752606 -75.223857 50.98744321 -69.06054688 46.421875 C-61.6343532 40.92706851 -54.06301741 35.63933306 -46.50317383 30.33081055 C-43.68946137 28.35336172 -40.87694404 26.37422992 -38.06567383 24.39331055 C-37.37296387 23.90531982 -36.68025391 23.4173291 -35.96655273 22.91455078 C-29.88285333 18.61889458 -23.84609989 14.25933798 -17.82958984 9.87011719 C-16.43829548 8.85916045 -15.04179592 7.8553239 -13.63989258 6.85913086 C-12.12634632 5.77654407 -10.63047426 4.66904956 -9.14770508 3.54467773 C-8.36782227 2.97652344 -7.58793945 2.40836914 -6.78442383 1.82299805 C-6.08381836 1.29818848 -5.38321289 0.77337891 -4.66137695 0.23266602 C-2.50317383 -0.66918945 -2.50317383 -0.66918945 0 0 Z M153.49682617 533.33081055 C154.49682617 535.33081055 154.49682617 535.33081055 154.49682617 535.33081055 Z " fill="#25A4BC" transform="translate(649.503173828125,577.669189453125)"/>
<path d="M0 0 C2.36737391 1.26181238 4.53827511 2.58260667 6.72729492 4.1315918 C7.52103516 4.68999756 8.31477539 5.24840332 9.13256836 5.82373047 C9.97464844 6.42419189 10.81672852 7.02465332 11.68432617 7.64331055 C12.56636719 8.26633057 13.4484082 8.88935059 14.35717773 9.53125 C20.93464379 14.1878371 27.46535502 18.9086301 33.98583984 23.64453125 C38.77421152 27.11397554 43.61087109 30.50044087 48.49682617 33.83081055 C54.98343482 38.25250872 61.36018014 42.81144505 67.71337891 47.42236328 C72.80407996 51.1149102 77.91821982 54.77127532 83.05932617 58.39331055 C83.75735352 58.88508789 84.45538086 59.37686523 85.17456055 59.88354492 C87.28143924 61.36674075 89.38899392 62.84897024 91.49682617 64.33081055 C94.31023822 66.30868491 97.12289312 68.28762401 99.93432617 70.26831055 C100.63452881 70.76153809 101.33473145 71.25476563 102.05615234 71.76293945 C107.19233338 75.38937851 112.28567867 79.07216265 117.37182617 82.76831055 C123.57220258 87.27173474 129.84397285 91.65187759 136.18432617 95.95581055 C142.53053837 100.26409503 148.776143 104.67417788 154.93945312 109.23974609 C161.65934853 114.21194673 168.49889991 119.01076572 175.33959961 123.81469727 C178.89612 126.31424362 182.4462239 128.82286816 185.99682617 131.33081055 C190.2327934 134.3223925 194.46969235 137.31259889 198.71166992 140.2956543 C205.94523538 145.38603416 213.14893364 150.51292032 220.30932617 155.70581055 C229.16654765 162.12657327 238.12663214 168.39510122 247.09790039 174.6550293 C257.39933348 181.85114539 267.64097493 189.12469493 277.79760742 196.52392578 C281.55180505 199.24777728 285.33160888 201.91372327 289.18823242 204.4909668 C289.93387451 204.99104248 290.6795166 205.49111816 291.44775391 206.00634766 C292.86696697 206.95254282 294.29205947 207.88999467 295.72363281 208.81738281 C297.36721845 209.9135978 298.9405709 211.11379348 300.49682617 212.33081055 C300.49682617 213.32081055 300.49682617 214.31081055 300.49682617 215.33081055 C298.22121747 217.11638238 295.97795839 218.69730496 293.55932617 220.26831055 C292.09748121 221.24221021 290.63657634 222.21752215 289.17651367 223.1940918 C288.41177734 223.70278809 287.64704102 224.21148438 286.85913086 224.7355957 C282.16900229 227.90274123 277.58593528 231.22484148 272.99511719 234.53369141 C272.31892334 235.01588135 271.64272949 235.49807129 270.94604492 235.99487305 C270.05405396 236.63610107 270.05405396 236.63610107 269.14404297 237.2902832 C267.49682617 238.33081055 267.49682617 238.33081055 264.49682617 239.33081055 C264.49682617 239.99081055 264.49682617 240.65081055 264.49682617 241.33081055 C263.10463867 242.07331055 263.10463867 242.07331055 261.68432617 242.83081055 C257.12745854 245.40805535 253.02277888 248.56912491 248.85229492 251.72143555 C246.49682617 253.33081055 246.49682617 253.33081055 244.49682617 253.33081055 C244.49682617 253.99081055 244.49682617 254.65081055 244.49682617 255.33081055 C242.72338867 256.6003418 242.72338867 256.6003418 240.12182617 258.14331055 C234.71533959 261.47952542 229.56915983 265.0911677 224.43432617 268.83081055 C223.64630615 269.40412109 222.85828613 269.97743164 222.04638672 270.56811523 C220.52576231 271.67477685 219.00532697 272.78169832 217.48510742 273.88891602 C214.4091567 276.1195846 211.29575868 278.29418275 208.17651367 280.46362305 C198.69709213 287.06881765 189.26891275 293.74361245 179.93823242 300.55737305 C169.62473166 308.0491 159.02399313 315.1446493 148.49682617 322.33081055 C142.69049902 319.13832826 137.04038718 315.95333032 131.93432617 311.70581055 C127.26057023 307.8210327 122.33874699 304.41839152 117.30932617 301.01831055 C111.29620202 296.94889388 105.33847643 292.83096375 99.49682617 288.51831055 C98.89233643 288.07205322 98.28784668 287.6257959 97.66503906 287.16601562 C95.94070035 285.88975394 94.21833123 284.61089117 92.49682617 283.33081055 C90.4169162 281.78435216 88.33334726 280.24339088 86.24682617 278.70581055 C85.39604492 278.07416992 84.54526367 277.4425293 83.66870117 276.79174805 C81.47337628 275.17460039 81.47337628 275.17460039 78.49682617 274.33081055 C78.49682617 273.67081055 78.49682617 273.01081055 78.49682617 272.33081055 C77.62791748 271.91569214 77.62791748 271.91569214 76.74145508 271.4921875 C74.56658084 270.3669018 72.60325762 269.12970484 70.58276367 267.7487793 C69.8310791 267.23565186 69.07939453 266.72252441 68.30493164 266.19384766 C67.10054443 265.36445679 67.10054443 265.36445679 65.87182617 264.51831055 C65.03151855 263.94153564 64.19121094 263.36476074 63.32543945 262.77050781 C56.10875432 257.79578819 49.0007559 252.6791399 41.91088867 247.52612305 C36.8546003 243.85511916 31.74998292 240.25424775 26.63818359 236.66113281 C23.23371647 234.26690996 19.83754558 231.86288947 16.46166992 229.4284668 C15.82390625 228.96915771 15.18614258 228.50984863 14.52905273 228.03662109 C13.33782779 227.1772554 12.14825047 226.31559907 10.96069336 225.45117188 C8.23290929 223.48483208 5.56749214 221.71372549 2.49682617 220.33081055 C2.49682617 219.67081055 2.49682617 219.01081055 2.49682617 218.33081055 C0.4101195 217.29338294 0.4101195 217.29338294 -2.50317383 217.33081055 C-5.50416391 218.88025222 -8.08967827 220.95392259 -10.75317383 223.01831055 C-12.35272609 224.21587158 -13.95300562 225.41246174 -15.55395508 226.6081543 C-16.36944824 227.22416504 -17.18494141 227.84017578 -18.02514648 228.47485352 C-21.94799909 231.41293484 -25.93937854 234.25097568 -29.94067383 237.08081055 C-30.65578125 237.59345459 -31.37088867 238.10609863 -32.10766602 238.63427734 C-33.10588379 239.3425769 -33.10588379 239.3425769 -34.12426758 240.06518555 C-34.70619873 240.47994141 -35.28812988 240.89469727 -35.88769531 241.32202148 C-37.50317383 242.33081055 -37.50317383 242.33081055 -40.50317383 243.33081055 C-40.50317383 243.99081055 -40.50317383 244.65081055 -40.50317383 245.33081055 C-41.55504883 245.90831055 -42.60692383 246.48581055 -43.69067383 247.08081055 C-46.11950324 248.45747499 -48.11466352 249.8200023 -50.31567383 251.58081055 C-52.50317383 253.33081055 -52.50317383 253.33081055 -54.50317383 253.33081055 C-54.50317383 253.99081055 -54.50317383 254.65081055 -54.50317383 255.33081055 C-55.43129883 255.82581055 -56.35942383 256.32081055 -57.31567383 256.83081055 C-61.87254146 259.40805535 -65.97722112 262.56912491 -70.14770508 265.72143555 C-72.50317383 267.33081055 -72.50317383 267.33081055 -74.50317383 267.33081055 C-74.50317383 267.99081055 -74.50317383 268.65081055 -74.50317383 269.33081055 C-76.27661133 270.6003418 -76.27661133 270.6003418 -78.87817383 272.14331055 C-84.28465338 275.47952108 -89.43091254 279.09106989 -94.56567383 282.83081055 C-95.73682739 283.68316284 -95.73682739 283.68316284 -96.93164062 284.55273438 C-98.44488993 285.65433899 -99.95799796 286.75613769 -101.47094727 287.8581543 C-104.76829661 290.24758381 -108.10489258 292.57882733 -111.45239258 294.8972168 C-113.49305478 296.32373685 -115.49726638 297.79349876 -117.50317383 299.26831055 C-120.50317383 301.33081055 -120.50317383 301.33081055 -122.50317383 301.33081055 C-122.50317383 301.99081055 -122.50317383 302.65081055 -122.50317383 303.33081055 C-124.78494712 305.00230719 -127.06348063 306.55583463 -129.44067383 308.08081055 C-130.8224879 308.97747818 -132.20399935 309.87461236 -133.58520508 310.7722168 C-134.25890137 311.20808105 -134.93259766 311.64394531 -135.62670898 312.09301758 C-138.68441204 314.11000359 -141.63636869 316.27943563 -144.57348633 318.4675293 C-147.4155025 319.73895758 -148.55153397 319.38644612 -151.50317383 318.33081055 C-154.43039944 316.61608002 -157.17643531 314.66973946 -159.94067383 312.70581055 C-161.65520926 311.51005585 -163.37006552 310.31476105 -165.08520508 309.11987305 C-165.97675293 308.495 -166.86830078 307.87012695 -167.78686523 307.22631836 C-172.20867168 304.14067166 -176.66929058 301.1125126 -181.12817383 298.08081055 C-182.98501934 296.81529512 -184.84178871 295.54966796 -186.69848633 294.28393555 C-193.85533785 289.40858971 -201.01711179 284.54048692 -208.17871094 279.67211914 C-217.72568144 273.18144927 -227.26463371 266.67906765 -236.80151367 260.17358398 C-240.44968762 257.68520363 -244.09833339 255.1975157 -247.74707031 252.70996094 C-249.58134141 251.45932894 -251.41548899 250.20851574 -253.24951172 248.95751953 C-257.85491717 245.81640944 -262.46226249 242.67821774 -267.07348633 239.5456543 C-272.55772418 235.81854434 -278.03240093 232.07764933 -283.50317383 228.33081055 C-284.46288086 227.67532227 -285.42258789 227.01983398 -286.41137695 226.34448242 C-289.23876762 224.40975289 -292.05935649 222.46550327 -294.87817383 220.51831055 C-296.18165771 219.62873657 -296.18165771 219.62873657 -297.51147461 218.72119141 C-298.30021973 218.17342041 -299.08896484 217.62564941 -299.90161133 217.0612793 C-300.59947754 216.58070068 -301.29734375 216.10012207 -302.01635742 215.60498047 C-302.75233154 214.97426636 -302.75233154 214.97426636 -303.50317383 214.33081055 C-303.50317383 213.67081055 -303.50317383 213.01081055 -303.50317383 212.33081055 C-301.2446047 210.6414993 -298.9794908 209.06983569 -296.62817383 207.51831055 C-295.14637468 206.52158764 -293.66595537 205.52281098 -292.18676758 204.5222168 C-291.02636963 203.73741943 -291.02636963 203.73741943 -289.8425293 202.93676758 C-286.07258363 200.3487168 -282.38378955 197.65182168 -278.69067383 194.95581055 C-272.47130382 190.42816306 -266.18140433 186.02511554 -259.81567383 181.70581055 C-253.46936845 177.39766901 -247.22385132 172.987439 -241.06054688 168.421875 C-233.6343532 162.92706851 -226.06301741 157.63933306 -218.50317383 152.33081055 C-215.68946136 150.35336171 -212.87695115 148.37421984 -210.06567383 146.39331055 C-209.01573242 145.65371094 -209.01573242 145.65371094 -207.94458008 144.89916992 C-202.8081264 141.27260785 -197.71455868 137.58963092 -192.62817383 133.89331055 C-186.42779742 129.38988635 -180.15602715 125.0097435 -173.81567383 120.70581055 C-167.46946163 116.39752606 -161.223857 111.98744321 -155.06054688 107.421875 C-147.6343532 101.92706851 -140.06301741 96.63933306 -132.50317383 91.33081055 C-129.68946136 89.35336171 -126.87695115 87.37421984 -124.06567383 85.39331055 C-123.36571289 84.90024414 -122.66575195 84.40717773 -121.94458008 83.89916992 C-116.8081264 80.27260785 -111.71455868 76.58963092 -106.62817383 72.89331055 C-100.42779742 68.38988635 -94.15602715 64.0097435 -87.81567383 59.70581055 C-81.46946163 55.39752606 -75.223857 50.98744321 -69.06054688 46.421875 C-61.6343532 40.92706851 -54.06301741 35.63933306 -46.50317383 30.33081055 C-43.68946137 28.35336172 -40.87694404 26.37422992 -38.06567383 24.39331055 C-37.37296387 23.90531982 -36.68025391 23.4173291 -35.96655273 22.91455078 C-29.88285333 18.61889458 -23.84609989 14.25933798 -17.82958984 9.87011719 C-16.43829548 8.85916045 -15.04179592 7.8553239 -13.63989258 6.85913086 C-12.12634632 5.77654407 -10.63047426 4.66904956 -9.14770508 3.54467773 C-8.36782227 2.97652344 -7.58793945 2.40836914 -6.78442383 1.82299805 C-6.08381836 1.29818848 -5.38321289 0.77337891 -4.66137695 0.23266602 C-2.50317383 -0.66918945 -2.50317383 -0.66918945 0 0 Z " fill="#FE545E" transform="translate(649.503173828125,577.669189453125)"/>
<path d="M0 0 C2.55790824 1.26360667 4.84668302 2.72719491 7.203125 4.33984375 C8.2653125 5.06300781 9.3275 5.78617188 10.421875 6.53125 C11.59917257 7.34213696 12.77624755 8.15334718 13.953125 8.96484375 C15.21333295 9.82842965 16.47375557 10.69170236 17.734375 11.5546875 C21.12324689 13.87769093 24.50661904 16.2085874 27.88867188 18.54150391 C31.24106287 20.85281416 34.59724578 23.15860257 37.953125 25.46484375 C39.28647734 26.38148277 40.61981065 27.29814947 41.953125 28.21484375 C42.943125 28.89546875 42.943125 28.89546875 43.953125 29.58984375 C45.953125 30.96484375 47.953125 32.33984375 49.953125 33.71484375 C50.61256104 34.16819092 51.27199707 34.62153809 51.95141602 35.08862305 C53.29050291 36.00927591 54.62953247 36.93001216 55.96850586 37.85083008 C59.21335502 40.08218067 62.45904302 42.31228323 65.70703125 44.5390625 C73.52018627 49.89861624 81.30559639 55.29652568 89.078125 60.71484375 C98.63129669 67.37215587 108.23532669 73.95145989 117.86328125 80.5 C124.25324108 84.84631865 130.61971748 89.22640343 136.98388672 93.61035156 C139.13974956 95.09320887 141.29819685 96.57225375 143.45703125 98.05078125 C144.19840332 98.55899414 144.93977539 99.06720703 145.70361328 99.59082031 C147.13241641 100.57015177 148.56175556 101.54870178 149.99169922 102.52636719 C154.84079903 105.85251778 154.84079903 105.85251778 155.953125 106.96484375 C156.05096911 109.65815144 156.08306295 112.32580543 156.07337952 115.01954651 C156.07466115 116.30102181 156.07466115 116.30102181 156.07596868 117.6083855 C156.07762611 120.49358315 156.07209784 123.37872366 156.06665039 126.26391602 C156.06636855 128.32315062 156.06652619 130.38238533 156.0670929 132.44161987 C156.06738099 138.05089462 156.06148235 143.66014819 156.05451894 149.269418 C156.04828737 155.12443005 156.04768176 160.97944254 156.04649353 166.8344574 C156.04337963 177.93025136 156.03516545 189.02603552 156.02514404 200.12182516 C156.01398472 212.75038549 156.00847291 225.37894628 156.00344861 238.0075103 C155.99298289 263.99329356 155.97538231 289.97906811 155.953125 315.96484375 C154.633125 316.62484375 153.313125 317.28484375 151.953125 317.96484375 C151.953125 318.62484375 151.953125 319.28484375 151.953125 319.96484375 C149.973125 320.62484375 147.993125 321.28484375 145.953125 321.96484375 C145.953125 322.62484375 145.953125 323.28484375 145.953125 323.96484375 C145.46585938 324.20976563 144.97859375 324.4546875 144.4765625 324.70703125 C139.62663126 327.26426772 135.15645966 330.18258239 130.734375 333.4140625 C122.33761263 339.4777962 113.71384952 345.18674989 105.078125 350.90234375 C102.01710497 352.93060167 98.95737933 354.96079687 95.8984375 356.9921875 C95.15636047 357.48407562 94.41428345 357.97596375 93.64971924 358.48275757 C89.849767 361.00877667 86.07323853 363.56311447 82.32714844 366.16845703 C81.58987518 366.68082413 80.85260193 367.19319122 80.09298706 367.72108459 C78.69080925 368.6988832 77.29151484 369.6808334 75.89553833 370.66746521 C71.17133479 373.96484375 71.17133479 373.96484375 68.953125 373.96484375 C68.953125 374.62484375 68.953125 375.28484375 68.953125 375.96484375 C62.203125 379.96484375 62.203125 379.96484375 59.953125 379.96484375 C59.953125 380.62484375 59.953125 381.28484375 59.953125 381.96484375 C57.973125 382.62484375 55.993125 383.28484375 53.953125 383.96484375 C53.953125 384.62484375 53.953125 385.28484375 53.953125 385.96484375 C53.22222656 386.33222656 53.22222656 386.33222656 52.4765625 386.70703125 C47.62663126 389.26426772 43.15645966 392.18258239 38.734375 395.4140625 C30.33761263 401.4777962 21.71384952 407.18674989 13.078125 412.90234375 C10.01710497 414.93060167 6.95737933 416.96079687 3.8984375 418.9921875 C3.15636047 419.48407562 2.41428345 419.97596375 1.64971924 420.48275757 C-2.150233 423.00877667 -5.92676147 425.56311447 -9.67285156 428.16845703 C-10.41012482 428.68082413 -11.14739807 429.19319122 -11.90701294 429.72108459 C-13.30919075 430.6988832 -14.70848516 431.6808334 -16.10446167 432.66746521 C-20.82866521 435.96484375 -20.82866521 435.96484375 -23.046875 435.96484375 C-23.046875 436.62484375 -23.046875 437.28484375 -23.046875 437.96484375 C-29.796875 441.96484375 -29.796875 441.96484375 -32.046875 441.96484375 C-32.046875 442.62484375 -32.046875 443.28484375 -32.046875 443.96484375 C-34.026875 444.62484375 -36.006875 445.28484375 -38.046875 445.96484375 C-38.046875 446.62484375 -38.046875 447.28484375 -38.046875 447.96484375 C-38.53414062 448.20976563 -39.02140625 448.4546875 -39.5234375 448.70703125 C-44.37336874 451.26426772 -48.84354034 454.18258239 -53.265625 457.4140625 C-61.66238737 463.4777962 -70.28615048 469.18674989 -78.921875 474.90234375 C-81.98289503 476.93060167 -85.04262067 478.96079687 -88.1015625 480.9921875 C-88.84363953 481.48407562 -89.58571655 481.97596375 -90.35028076 482.48275757 C-94.150233 485.00877667 -97.92676147 487.56311447 -101.67285156 490.16845703 C-102.41012482 490.68082413 -103.14739807 491.19319122 -103.90701294 491.72108459 C-105.30919075 492.6988832 -106.70848516 493.6808334 -108.10446167 494.66746521 C-112.82866521 497.96484375 -112.82866521 497.96484375 -115.046875 497.96484375 C-115.046875 498.62484375 -115.046875 499.28484375 -115.046875 499.96484375 C-121.796875 503.96484375 -121.796875 503.96484375 -124.046875 503.96484375 C-124.046875 504.62484375 -124.046875 505.28484375 -124.046875 505.96484375 C-126.026875 506.62484375 -128.006875 507.28484375 -130.046875 507.96484375 C-130.046875 508.62484375 -130.046875 509.28484375 -130.046875 509.96484375 C-131.48257766 510.78051549 -132.92050934 511.59226468 -134.359375 512.40234375 C-135.15988281 512.85480469 -135.96039062 513.30726563 -136.78515625 513.7734375 C-139.046875 514.96484375 -139.046875 514.96484375 -142.046875 515.96484375 C-142.376875 516.95484375 -142.706875 517.94484375 -143.046875 518.96484375 C-145.33203125 520.3515625 -145.33203125 520.3515625 -148.109375 521.65234375 C-149.48802734 522.30783203 -149.48802734 522.30783203 -150.89453125 522.9765625 C-151.60480469 523.30269531 -152.31507813 523.62882812 -153.046875 523.96484375 C-153.303853 496.72267167 -153.49782079 469.48068125 -153.61680889 442.2375412 C-153.67352628 429.58796164 -153.75084853 416.93913521 -153.87670898 404.29003906 C-153.98635906 393.26484505 -154.05731759 382.24019642 -154.08184844 371.21447229 C-154.09618828 365.37623739 -154.12987628 359.5395627 -154.20990562 353.701828 C-154.28464585 348.20530791 -154.3075891 342.71098831 -154.29105949 337.21400833 C-154.29408261 335.19832517 -154.31592555 333.1825675 -154.35813522 331.16732407 C-154.66162963 315.92823956 -154.66162963 315.92823956 -150.63077736 311.02708721 C-147.84560696 308.97094922 -145.1725529 307.43471737 -142.046875 305.96484375 C-140.92403941 305.22743095 -139.81341264 304.47039802 -138.7265625 303.6809082 C-137.80101562 303.06948975 -136.87546875 302.45807129 -135.921875 301.828125 C-134.27904541 300.73866577 -134.27904541 300.73866577 -132.60302734 299.62719727 C-132.02784363 299.2471756 -131.45265991 298.86715393 -130.86004639 298.47561646 C-127.57722856 296.30609678 -124.30024491 294.12780207 -121.0234375 291.94921875 C-119.95725693 291.24050377 -119.95725693 291.24050377 -118.86953735 290.51747131 C-113.25339856 286.77927953 -107.65839903 283.01044 -102.0703125 279.23046875 C-101.20855408 278.64758591 -100.34679565 278.06470306 -99.45892334 277.4641571 C-97.68214724 276.26221973 -95.90539378 275.0602489 -94.12866211 273.85824585 C-76.23226313 261.75291464 -58.24910777 249.7874289 -40.17724609 237.94555664 C-35.97044491 235.18804721 -31.77256275 232.41740589 -27.58007812 229.63818359 C-25.8282687 228.48100339 -24.07281067 227.32933466 -22.31445312 226.18212891 C-19.6228157 224.42458654 -16.94335009 222.64973785 -14.265625 220.87109375 C-13.43832886 220.33657593 -12.61103271 219.80205811 -11.75866699 219.25134277 C-11.0075061 218.74752075 -10.25634521 218.24369873 -9.48242188 217.72460938 C-8.81690308 217.28685181 -8.15138428 216.84909424 -7.46569824 216.39807129 C-5.57785729 214.82718614 -5.57785729 214.82718614 -6.046875 210.96484375 C-7.91705493 209.11065875 -7.91705493 209.11065875 -10.48046875 207.49609375 C-11.43074951 206.84882324 -12.38103027 206.20155273 -13.36010742 205.53466797 C-14.39111572 204.85162598 -15.42212402 204.16858398 -16.484375 203.46484375 C-18.61494941 202.02007095 -20.74515536 200.57475464 -22.875 199.12890625 C-23.93009766 198.41895508 -24.98519531 197.70900391 -26.07226562 196.97753906 C-29.99965727 194.32016737 -33.8714471 191.58967683 -37.734375 188.83984375 C-39.09597771 187.87577018 -40.45796028 186.91223289 -41.8203125 185.94921875 C-42.50319336 185.46646484 -43.18607422 184.98371094 -43.88964844 184.48632812 C-50.41170623 179.88634349 -56.95793133 175.3206222 -63.49853516 170.74707031 C-67.6823056 167.82107642 -71.86452024 164.89286065 -76.046875 161.96484375 C-77.71353402 160.79816616 -79.38020069 159.6314995 -81.046875 158.46484375 C-91.046875 151.46484375 -101.046875 144.46484375 -111.046875 137.46484375 C-111.87292236 136.88661865 -112.69896973 136.30839355 -113.55004883 135.71264648 C-115.20616669 134.55334779 -116.86225425 133.39400578 -118.51831055 132.23461914 C-122.84611825 129.20485525 -127.17454905 126.17598692 -131.50390625 123.1484375 C-132.40044922 122.52130859 -133.29699219 121.89417969 -134.22070312 121.24804688 C-135.92623585 120.05505766 -137.63195233 118.86233107 -139.33789062 117.66992188 C-143.92600821 114.46014335 -148.4961861 111.2274872 -153.046875 107.96484375 C-151.66140403 103.80843085 -148.74599797 102.46128177 -145.234375 100.15234375 C-143.76363482 99.16378337 -142.2936154 98.17415005 -140.82421875 97.18359375 C-139.65415283 96.39855469 -139.65415283 96.39855469 -138.46044922 95.59765625 C-134.37166167 92.83154143 -130.33590493 89.99039901 -126.296875 87.15234375 C-124.59380801 85.95825059 -122.89068245 84.76424097 -121.1875 83.5703125 C-120.33736328 82.97395996 -119.48722656 82.37760742 -118.61132812 81.76318359 C-114.42514375 78.82759391 -110.23587908 75.89640766 -106.046875 72.96484375 C-104.38019303 71.79819894 -102.71352638 70.63153225 -101.046875 69.46484375 C-51.046875 34.46484375 -51.046875 34.46484375 -48.54541016 32.71386719 C-46.88356509 31.55054317 -45.22178095 30.38713211 -43.56005859 29.22363281 C-39.32012408 26.25509659 -35.07904772 23.28821431 -30.8359375 20.32421875 C-29.97871094 19.72488525 -29.12148438 19.12555176 -28.23828125 18.50805664 C-26.54662243 17.32605188 -24.85393691 16.14551495 -23.16015625 14.96655273 C-19.34166736 12.30251727 -15.55011631 9.61529923 -11.8203125 6.828125 C-11.17755371 6.35213867 -10.53479492 5.87615234 -9.87255859 5.38574219 C-8.6928258 4.50796293 -7.52063081 3.61991908 -6.35791016 2.71972656 C-2.62825443 -0.04514177 -2.62825443 -0.04514177 0 0 Z " fill="#1E2C4C" transform="translate(808.046875,899.03515625)"/>
<path d="M0 0 C1.04837573 0.91659116 2.09734068 1.83562193 3.08203125 2.8203125 C3.41203125 -3.7796875 3.74203125 -10.3796875 4.08203125 -17.1796875 C21.24203125 -17.1796875 38.40203125 -17.1796875 56.08203125 -17.1796875 C56.14992564 7.52586232 56.20511597 32.23133581 56.23746777 56.93695545 C56.25289296 68.40990874 56.27389872 79.88279965 56.30834961 91.35571289 C56.33838575 101.36324362 56.35763779 111.37072915 56.36429673 121.37830371 C56.36818505 126.67020086 56.37723103 131.96196877 56.39922142 137.25382423 C56.41981192 142.24999337 56.42582021 147.24598187 56.42135429 152.24218941 C56.42216953 154.0612461 56.42799921 155.8803098 56.43964767 157.69932938 C56.5322757 172.93059789 55.59493704 188.60412599 50.39453125 203.0703125 C50.01325073 204.16388062 50.01325073 204.16388062 49.62426758 205.27954102 C45.12077397 217.69009643 38.81817058 227.91164785 30.08203125 237.8203125 C29.61667969 238.42875 29.15132812 239.0371875 28.671875 239.6640625 C13.96719307 258.73068372 -11.5492463 268.9170344 -34.64453125 272.37890625 C-65.1435892 275.97617541 -95.60740773 268.45340758 -119.875 249.42578125 C-129.65460479 241.22176152 -138.80288028 232.13892345 -144.91796875 220.8203125 C-144.91796875 220.1603125 -144.91796875 219.5003125 -144.91796875 218.8203125 C-139.3125 215.6171875 -133.70703125 212.4140625 -128.1015625 209.2109375 C-127.18881561 208.68922974 -127.18881561 208.68922974 -126.25762939 208.15698242 C-125.02385941 207.45215733 -123.78976789 206.74789479 -122.55535889 206.04418945 C-119.34062636 204.2105662 -116.13272456 202.36631588 -112.93457031 200.50390625 C-112.29327179 200.1322937 -111.65197327 199.76068115 -110.99124146 199.37780762 C-109.76384114 198.6662238 -108.53838511 197.95127285 -107.31515503 197.23254395 C-103.14277287 194.8203125 -103.14277287 194.8203125 -100.91796875 194.8203125 C-99.79063522 196.46520812 -98.74143272 198.16394242 -97.73046875 199.8828125 C-89.21458622 213.53970008 -76.997216 220.72585337 -61.44140625 224.40625 C-45.23099994 227.06616187 -30.65584407 222.30326936 -17.41796875 213.078125 C-6.07973641 203.90518009 0.71418871 190.02736774 3.08203125 175.8203125 C3.14574493 174.21727623 3.16847339 172.61193578 3.14453125 171.0078125 C3.13550781 170.21761719 3.12648438 169.42742187 3.1171875 168.61328125 C3.10558594 168.02160156 3.09398437 167.42992187 3.08203125 166.8203125 C2.13457031 167.655625 2.13457031 167.655625 1.16796875 168.5078125 C-15.36797398 182.61340054 -35.00486312 191.63381609 -56.91796875 192.8203125 C-57.60761719 192.8615625 -58.29726562 192.9028125 -59.0078125 192.9453125 C-84.76760581 193.71282962 -108.38624705 183.15900491 -126.91796875 165.8203125 C-127.60246094 165.20414063 -128.28695313 164.58796875 -128.9921875 163.953125 C-148.62217222 145.51417306 -159.05481346 116.59725175 -160.1328125 90.18359375 C-160.9202716 60.62492677 -152.65864333 33.81418983 -133.91796875 10.8203125 C-133.2940625 10.03140625 -132.67015625 9.2425 -132.02734375 8.4296875 C-119.27424528 -6.89546444 -101.76886234 -15.80488394 -82.91796875 -21.1796875 C-81.974375 -21.44910156 -81.03078125 -21.71851563 -80.05859375 -21.99609375 C-51.31882398 -28.54034069 -21.95754818 -18.53355283 0 0 Z M-92.6015625 42.0390625 C-105.85629234 57.95367911 -109.59888229 74.61433094 -107.91796875 94.8203125 C-107.41475906 98.80728155 -106.49000935 102.12759969 -104.91796875 105.8203125 C-104.65983398 106.42681641 -104.40169922 107.03332031 -104.13574219 107.65820312 C-97.31139638 123.30205232 -87.75380279 134.72648934 -71.79296875 141.6328125 C-69.84334333 142.38495225 -67.88565713 143.11678146 -65.91796875 143.8203125 C-64.90476562 144.1915625 -64.90476562 144.1915625 -63.87109375 144.5703125 C-51.36802949 148.41740919 -37.14159293 145.71520602 -25.5859375 140.2421875 C-11.31698634 132.27311289 -1.74094008 121.14972567 4.08203125 105.8203125 C4.40171875 105.01722656 4.72140625 104.21414063 5.05078125 103.38671875 C10.25866245 87.93184908 7.66832712 70.31964011 1.08203125 55.8203125 C-6.88096936 40.64870081 -19.7363777 30.3591315 -35.91796875 24.8203125 C-56.5944623 19.20403311 -78.23962389 26.73195618 -92.6015625 42.0390625 Z " fill="#24A4BC" transform="translate(1323.91796875,922.1796875)"/>
<path d="M0 0 C0.81984375 0.63550781 1.6396875 1.27101563 2.484375 1.92578125 C23.61757292 19.42436889 35.6071966 47.27768485 39 74 C40.79908495 106.84260589 35.53605543 138.83555541 13.3671875 164.41796875 C12.58601563 165.27003906 11.80484375 166.12210938 11 167 C10.15695313 167.92425781 9.31390625 168.84851562 8.4453125 169.80078125 C-6.77660986 185.75070859 -28.48205186 198.03321868 -51 199 C-52.06089844 199.0515625 -53.12179687 199.103125 -54.21484375 199.15625 C-81.84191971 199.85200008 -102.88094048 189.86997344 -124 172 C-124.33 205.99 -124.66 239.98 -125 275 C-141.83 275 -158.66 275 -176 275 C-176 179.3 -176 83.6 -176 -15 C-159.17 -15 -142.34 -15 -125 -15 C-125 -8.07 -125 -1.14 -125 6 C-122.89625 4.30875 -120.7925 2.6175 -118.625 0.875 C-82.54539933 -27.65441672 -36.00977053 -28.45495687 0 0 Z M-111 45 C-111.56074219 45.54011719 -112.12148437 46.08023438 -112.69921875 46.63671875 C-123.4645572 57.8541449 -128 74.86153799 -128 90 C-126.61717624 109.44595913 -119.23441697 125.83332359 -104.56298828 138.70166016 C-94.22355044 147.2904028 -80.1839285 151.95750854 -66.69921875 151.3125 C-50.36007355 149.42084788 -36.16469224 142.39757023 -25.73339844 129.42480469 C-15.13754162 115.32756324 -10.48255466 98.61807789 -12 81 C-14.54889418 63.50588236 -22.61700699 48.02953834 -36.875 37.3125 C-40.57631234 34.56017591 -40.57631234 34.56017591 -45 34 C-45 33.34 -45 32.68 -45 32 C-69.11516201 22.06807157 -92.39973643 25.84759502 -111 45 Z " fill="#24A4BC" transform="translate(2038,920)"/>
<path d="M0 0 C2.55790824 1.26360667 4.84668302 2.72719491 7.203125 4.33984375 C8.2653125 5.06300781 9.3275 5.78617188 10.421875 6.53125 C11.59917257 7.34213696 12.77624755 8.15334718 13.953125 8.96484375 C15.21333295 9.82842965 16.47375557 10.69170236 17.734375 11.5546875 C21.12324689 13.87769093 24.50661904 16.2085874 27.88867188 18.54150391 C31.24106287 20.85281416 34.59724578 23.15860257 37.953125 25.46484375 C39.28647734 26.38148277 40.61981065 27.29814947 41.953125 28.21484375 C42.943125 28.89546875 42.943125 28.89546875 43.953125 29.58984375 C45.953125 30.96484375 47.953125 32.33984375 49.953125 33.71484375 C50.61256104 34.16819092 51.27199707 34.62153809 51.95141602 35.08862305 C53.29050291 36.00927591 54.62953247 36.93001216 55.96850586 37.85083008 C59.21335502 40.08218067 62.45904302 42.31228323 65.70703125 44.5390625 C73.52018627 49.89861624 81.30559639 55.29652568 89.078125 60.71484375 C98.63129669 67.37215587 108.23532669 73.95145989 117.86328125 80.5 C122.99606106 83.99121078 128.11679045 87.4996176 133.2265625 91.02441406 C136.62688261 93.36964524 140.03579615 95.70098099 143.45703125 98.015625 C144.19840332 98.51932617 144.93977539 99.02302734 145.70361328 99.54199219 C147.13052385 100.51110626 148.55978642 101.47676892 149.99169922 102.43847656 C154.8406867 105.73996715 154.8406867 105.73996715 155.953125 107.96484375 C155.28369873 108.40763672 154.61427246 108.85042969 153.92456055 109.30664062 C150.82821793 111.35682425 147.73441706 113.41081347 144.640625 115.46484375 C143.58810547 116.1609375 142.53558594 116.85703125 141.45117188 117.57421875 C135.34158667 121.63474307 129.34658261 125.80926711 123.43432617 130.15185547 C120.09028066 132.59531527 116.68773564 134.94511472 113.265625 137.27734375 C111.8815044 138.22525164 110.49738999 139.17316856 109.11328125 140.12109375 C107.7265738 141.06902695 106.33985524 142.01694389 104.953125 142.96484375 C95.55519133 149.3973531 86.19601268 155.88204585 76.87036133 162.41894531 C62.62274395 172.40484771 48.34960393 182.35193736 33.97363281 192.15234375 C27.15099206 196.81114144 20.3814961 201.5442919 13.62426758 206.29736328 C12.08595714 207.37849184 10.54394654 208.45438276 8.99755859 209.52392578 C7.71755912 210.42607014 6.45605045 211.3557334 5.22509766 212.32373047 C3.69140625 213.4921875 3.69140625 213.4921875 0.953125 214.96484375 C-3.02181864 214.15535675 -5.77396721 211.81798393 -8.921875 209.33984375 C-14.90325734 204.7597717 -21.04033603 200.43978563 -27.234375 196.15234375 C-29.25522679 194.75263081 -31.27606023 193.35289138 -33.296875 191.953125 C-34.76640625 190.93532959 -34.76640625 190.93532959 -36.265625 189.89697266 C-40.102798 187.23129611 -43.92118428 184.53967071 -47.734375 181.83984375 C-56.30085037 175.77799957 -64.89827224 169.76084973 -73.49853516 163.74707031 C-77.6823056 160.82107642 -81.86452024 157.89286065 -86.046875 154.96484375 C-87.71353402 153.79816616 -89.38020069 152.6314995 -91.046875 151.46484375 C-94.38020833 149.13151042 -97.71354167 146.79817708 -101.046875 144.46484375 C-101.8721167 143.88718262 -102.6973584 143.30952148 -103.54760742 142.71435547 C-105.21186328 141.54936011 -106.87608861 140.38432115 -108.5402832 139.21923828 C-112.74358423 136.27663964 -116.94743681 133.33483471 -121.15234375 130.39453125 C-131.80332067 122.94536924 -142.43524752 115.46995852 -153.046875 107.96484375 C-151.66140403 103.80843085 -148.74599797 102.46128177 -145.234375 100.15234375 C-143.76363482 99.16378337 -142.2936154 98.17415005 -140.82421875 97.18359375 C-139.65415283 96.39855469 -139.65415283 96.39855469 -138.46044922 95.59765625 C-134.37166167 92.83154143 -130.33590493 89.99039901 -126.296875 87.15234375 C-124.59380801 85.95825059 -122.89068245 84.76424097 -121.1875 83.5703125 C-120.33736328 82.97395996 -119.48722656 82.37760742 -118.61132812 81.76318359 C-114.42514375 78.82759391 -110.23587908 75.89640766 -106.046875 72.96484375 C-104.38019303 71.79819894 -102.71352638 70.63153225 -101.046875 69.46484375 C-51.046875 34.46484375 -51.046875 34.46484375 -48.54541016 32.71386719 C-46.88356509 31.55054317 -45.22178095 30.38713211 -43.56005859 29.22363281 C-39.32012408 26.25509659 -35.07904772 23.28821431 -30.8359375 20.32421875 C-29.97871094 19.72488525 -29.12148438 19.12555176 -28.23828125 18.50805664 C-26.54662243 17.32605188 -24.85393691 16.14551495 -23.16015625 14.96655273 C-19.34166736 12.30251727 -15.55011631 9.61529923 -11.8203125 6.828125 C-11.17755371 6.35213867 -10.53479492 5.87615234 -9.87255859 5.38574219 C-8.6928258 4.50796293 -7.52063081 3.61991908 -6.35791016 2.71972656 C-2.62825443 -0.04514177 -2.62825443 -0.04514177 0 0 Z " fill="#FE545E" transform="translate(808.046875,899.03515625)"/>
<path d="M0 0 C2.31 1.98 4.62 3.96 7 6 C7.33 -0.6 7.66 -7.2 8 -14 C25.16 -14 42.32 -14 60 -14 C60 53.32 60 120.64 60 190 C42.84 190 25.68 190 8 190 C7.67 183.4 7.34 176.8 7 170 C5.618125 171.155 4.23625 172.31 2.8125 173.5 C-17.74744324 189.84399982 -41.78297671 197.95256594 -68.17578125 195.55859375 C-90.05216494 192.36316692 -113.14070777 182.88646876 -127 165 C-128.09677616 163.68131796 -129.20066338 162.36850904 -130.3125 161.0625 C-130.78300781 160.49660156 -131.25351563 159.93070313 -131.73828125 159.34765625 C-132.97950473 157.86554616 -132.97950473 157.86554616 -135 157 C-136.0589197 155.28501048 -137.04952637 153.52738569 -138 151.75 C-138.515625 150.79609375 -139.03125 149.8421875 -139.5625 148.859375 C-141 146 -141 146 -142.0625 143.203125 C-142.78900302 140.8355391 -142.78900302 140.8355391 -145 140 C-145.82202148 138.34863281 -145.82202148 138.34863281 -146.62109375 136.203125 C-146.9154834 135.41526611 -147.20987305 134.62740723 -147.51318359 133.81567383 C-147.97072021 132.54566528 -147.97072021 132.54566528 -148.4375 131.25 C-148.75025879 130.38979248 -149.06301758 129.52958496 -149.38525391 128.64331055 C-160.03087237 98.73565407 -158.7592377 65.58137254 -145.20068359 36.81762695 C-132.72881542 11.36600008 -112.34880574 -6.98137932 -85.6875 -16.375 C-83.79944238 -16.94317713 -81.90377072 -17.48692704 -80 -18 C-78.80697266 -18.33644531 -78.80697266 -18.33644531 -77.58984375 -18.6796875 C-50.21008447 -25.01478236 -21.75843494 -16.94233867 0 0 Z M-87.1875 43.75 C-91.71075634 48.42753795 -95.03410741 53.22726899 -98 59 C-98.56654297 60.02287109 -98.56654297 60.02287109 -99.14453125 61.06640625 C-106.37014896 75.32820599 -106.70480702 92.79451956 -101.875 107.8125 C-95.86537411 124.21808792 -85.12106988 136.39613388 -69.3125 143.8125 C-56.19771904 149.64350276 -40.4433213 150.27125041 -26.88671875 145.32421875 C-21.88048241 143.02771791 -17.42017226 140.27795649 -13 137 C-12.21882813 136.42636719 -11.43765625 135.85273437 -10.6328125 135.26171875 C1.31784846 125.60608092 8.57137703 110.68534636 10.8125 95.625 C10.874375 94.42875 10.93625 93.2325 11 92 C11.05027344 91.35675781 11.10054687 90.71351563 11.15234375 90.05078125 C11.86956539 74.53010493 6.32299522 60.09200449 -3 48 C-3.50015625 47.31035156 -4.0003125 46.62070312 -4.515625 45.91015625 C-13.70017923 34.19753028 -28.05278678 28.00669203 -42.5 26.125 C-59.71511971 25.1255736 -74.91499815 32.06277394 -87.1875 43.75 Z " fill="#24A4BC" transform="translate(2246,919)"/>
<path d="M0 0 C0.97380615 0.47348877 0.97380615 0.47348877 1.96728516 0.95654297 C26.73453455 13.31324024 45.91441162 34.77289587 55 61 C58.86425378 73.22648907 61.19422934 84.97045697 61.125 97.8125 C61.12886719 98.54919922 61.13273437 99.28589844 61.13671875 100.04492188 C61.13028946 103.60353251 60.8695151 106.52193958 60 110 C5.88 110 -48.24 110 -104 110 C-99.8008193 124.41874687 -99.8008193 124.41874687 -92 136 C-91.35417969 136.76699219 -90.70835938 137.53398438 -90.04296875 138.32421875 C-80.10083153 149.18863215 -65.77586991 156.40549318 -51.078125 157.41015625 C-33.15877335 158.14816661 -19.27538259 153.78370117 -5 143 C-4.29359375 142.22785156 -3.5871875 141.45570313 -2.859375 140.66015625 C-1.93898438 139.83837891 -1.93898438 139.83837891 -1 139 C3.12253051 139.23873726 5.15921784 141.82964121 7.921875 144.6640625 C8.38555481 145.13435883 8.84923462 145.60465515 9.32696533 146.08920288 C10.80859836 147.5941856 12.2797384 149.10891332 13.75 150.625 C22.28156468 159.38361332 22.28156468 159.38361332 31.35253906 167.57568359 C32.9807879 168.98339013 34.49723156 170.46003432 36 172 C32.22757612 182.24284712 15.65425983 190.37753745 6.29101562 194.97119141 C-4.39009065 199.76767285 -16.31805571 203.81143009 -28 205 C-29.134375 205.13148438 -30.26875 205.26296875 -31.4375 205.3984375 C-59.45523421 207.94036903 -89.08991252 201.57552171 -111.58203125 184.03515625 C-115.82708653 180.46217758 -119.96011183 176.80347475 -124 173 C-124.61488281 172.44957031 -125.22976563 171.89914062 -125.86328125 171.33203125 C-144.40371697 154.07024627 -154.26466715 126.68330633 -155.18359375 101.84375 C-155.87418685 71.29191128 -145.07365104 43.62739343 -124.29101562 21.24609375 C-92.77150598 -11.36029554 -40.48817682 -19.69260967 0 0 Z M-91 55 C-96.76610283 61.53385995 -96.76610283 61.53385995 -100 69 C-65.02 69 -30.04 69 6 69 C-1.33959846 54.32080309 -13.43903236 43.4727132 -29 38 C-51.37627788 31.35520814 -75.17856611 37.7840487 -91 55 Z " fill="#24A4BC" transform="translate(1547,909)"/>
<path d="M0 0 C21.13161971 16.56002876 29.63099116 40.46420907 33.01603413 66.22283268 C34.56457555 79.24370777 34.37274369 92.27912652 34.29296875 105.37109375 C34.28565889 108.11832941 34.28294649 110.86556479 34.28010559 113.61280823 C34.27089241 120.03657461 34.24642914 126.46018229 34.21605712 132.88387972 C34.18217248 140.21435982 34.16594278 147.54484873 34.15097082 154.87538803 C34.11986578 169.91702748 34.06499368 184.95846159 34 200 C17.5 200 1 200 -16 200 C-16.02187378 194.58207031 -16.02187378 194.58207031 -16.04418945 189.0546875 C-16.09470179 177.07254317 -16.16117907 165.0905362 -16.23571491 153.10852051 C-16.28048706 145.8493801 -16.31994328 138.59028673 -16.34643555 131.33105469 C-16.3695675 124.99642478 -16.40313139 118.66194606 -16.44870156 112.32743645 C-16.4724317 108.98009021 -16.48973367 105.63302649 -16.49761391 102.2855835 C-16.01728015 70.23070267 -16.01728015 70.23070267 -31 43 C-43.87820072 33.23474184 -58.40006294 32.07102272 -74 33 C-85.0023439 34.62691301 -95.8829601 41.63409291 -102.80859375 50.25 C-116.56175145 69.17907726 -117.60186617 87.36406801 -117.609375 110.05859375 C-117.62437823 112.66033446 -117.64110982 115.26206571 -117.65948486 117.86378479 C-117.69850771 123.97256157 -117.72031604 130.08116938 -117.73345876 136.19004923 C-117.74942886 143.15529205 -117.78788537 150.1203571 -117.82805204 157.08549583 C-117.91005067 171.39029011 -117.96142508 185.69502424 -118 200 C-134.5 200 -151 200 -168 200 C-168 130.7 -168 61.4 -168 -10 C-151.5 -10 -135 -10 -118 -10 C-117.505 1.385 -117.505 1.385 -117 13 C-115.30875 11.205625 -113.6175 9.41125 -111.875 7.5625 C-102.56861715 -1.92737443 -91.63684098 -8.74320416 -79 -13 C-78.05511719 -13.31839844 -77.11023437 -13.63679687 -76.13671875 -13.96484375 C-51.16730687 -20.99255112 -20.70852328 -15.41246908 0 0 Z " fill="#24A4BC" transform="translate(1802,915)"/>
<path d="M0 0 C3.48575551 2.79648725 6.88742785 5.68006276 10.24707031 8.62744141 C9.67921413 12.02001809 8.78744948 13.36783038 6.12207031 15.50244141 C1.89660658 19.02872769 -2.12073869 22.73308819 -6.12792969 26.50244141 C-11.93868475 31.95196976 -17.80008213 37.33290875 -23.75292969 42.62744141 C-27.14296408 41.09366715 -29.87321919 39.08118012 -32.81542969 36.81494141 C-40.33363256 31.29156836 -48.49266443 27.16790141 -57.75292969 25.62744141 C-58.54828125 25.49337891 -59.34363281 25.35931641 -60.16308594 25.22119141 C-76.17356539 23.14619554 -90.61902979 27.4447364 -103.49902344 36.88134766 C-104.2428125 37.45755859 -104.98660156 38.03376953 -105.75292969 38.62744141 C-106.57921875 39.23458984 -107.40550781 39.84173828 -108.25683594 40.46728516 C-116.25070112 47.38529368 -121.41568474 57.76994899 -124.75292969 67.62744141 C-124.99785156 68.33771484 -125.24277344 69.04798828 -125.49511719 69.77978516 C-129.75514837 84.98167726 -126.49790021 101.65561049 -119.56542969 115.43994141 C-111.26985612 129.79427783 -98.94391668 138.99636249 -83.12011719 143.70947266 C-67.04894048 147.57289772 -50.49843224 144.46076886 -36.34277344 136.35400391 C-32.10106521 133.52619842 -28.40052774 130.1759689 -24.75292969 126.62744141 C-18.24290029 132.10178431 -11.94017518 137.79238279 -5.75292969 143.62744141 C-4.70153809 144.61768311 -4.70153809 144.61768311 -3.62890625 145.62792969 C-1.38390878 147.75808728 0.84000737 149.90831874 3.05957031 152.06494141 C3.78394287 152.75120605 4.50831543 153.4374707 5.25463867 154.14453125 C5.91858643 154.79760254 6.58253418 155.45067383 7.26660156 156.12353516 C7.86577393 156.70288818 8.46494629 157.28224121 9.08227539 157.87915039 C10.24707031 159.62744141 10.24707031 159.62744141 10.11645508 161.67993164 C8.57187259 165.13995257 5.35173722 167.06737583 2.37207031 169.25244141 C1.30762695 170.03760132 1.30762695 170.03760132 0.22167969 170.83862305 C-26.70861478 190.16186974 -57.12158409 196.63312757 -89.75292969 191.62744141 C-117.59185622 186.52395363 -142.9736529 170.33635082 -159.50292969 147.37744141 C-176.14489338 122.12756546 -182.21262665 93.45424228 -176.75292969 63.62744141 C-170.35369073 35.61233997 -154.57243289 10.9272616 -130.2565918 -4.7487793 C-90.37733473 -29.47837446 -37.56281135 -29.41199518 0 0 Z " fill="#24A4BC" transform="translate(2509.7529296875,921.37255859375)"/>
<path d="M0 0 C16.83 0 33.66 0 51 0 C51 30.03 51 60.06 51 91 C62.55 91 74.1 91 86 91 C86 106.84 86 122.68 86 139 C74.45 139 62.9 139 51 139 C51 190.81 51 242.62 51 296 C34.17 296 17.34 296 0 296 C0 244.19 0 192.38 0 139 C-11.55 139 -23.1 139 -35 139 C-35 123.16 -35 107.32 -35 91 C-23.45 91 -11.9 91 0 91 C0 60.97 0 30.94 0 0 Z " fill="#24A4BC" transform="translate(2568,805)"/>
</svg>
