<?xml version="1.0" encoding="UTF-8"?>
<svg version="1.1" xmlns="http://www.w3.org/2000/svg" width="453" height="197">
<path d="M0 0 C149.49 0 298.98 0 453 0 C453 65.01 453 130.02 453 197 C303.51 197 154.02 197 0 197 C0 131.99 0 66.98 0 0 Z " fill="#F8FCFC" transform="translate(0,0)"/>
<path d="M0 0 C22.11 0 44.22 0 67 0 C68.32 2.64 69.64 5.28 71 8 C71.99 5.36 72.98 2.72 74 0 C96.44 0 118.88 0 142 0 C142 3.96 142 7.92 142 12 C130.12 12 118.24 12 106 12 C105.505 10.02 105.505 10.02 105 8 C104.34 9.32 103.68 10.64 103 12 C69.01 12 35.02 12 0 12 C0 8.04 0 4.08 0 0 Z " fill="#1E6FBC" transform="translate(273,81)"/>
<path d="M0 0 C43.23 0 86.46 0 131 0 C129 9 129 9 127 12 C124.77049828 12.36914349 124.77049828 12.36914349 121.93807983 12.36076355 C120.86673294 12.36488754 119.79538605 12.36901154 118.6915741 12.3732605 C117.51122086 12.36247467 116.33086761 12.35168884 115.11474609 12.34057617 C113.87575058 12.34101425 112.63675507 12.34145233 111.36021423 12.34190369 C107.95733587 12.3401685 104.55499973 12.32509646 101.15221739 12.30418181 C97.59812731 12.28546112 94.04403045 12.28366822 90.48989868 12.28010559 C83.75731993 12.27077152 77.02488687 12.24613946 70.29237235 12.21605712 C62.62864712 12.18255535 54.96491502 12.16603776 47.30113482 12.15097082 C31.53400313 12.11959098 15.76702605 12.06620175 0 12 C0 8.04 0 4.08 0 0 Z " fill="#1E6DBC" transform="translate(109,149)"/>
<path d="M0 0 C42.24 0 84.48 0 128 0 C131 9 131 9 131 11 C87.77 11 44.54 11 0 11 C0 7.37 0 3.74 0 0 Z " fill="#1C6CBB" transform="translate(109,37)"/>
<path d="M0 0 C38.61 0 77.22 0 117 0 C117 0.66 117 1.32 117 2 C115.234375 3.3671875 115.234375 3.3671875 112.75 4.875 C111.96109375 5.36742187 111.1721875 5.85984375 110.359375 6.3671875 C97.79913014 12.4720507 86.79354924 12.53426383 73.046875 12.390625 C70.93410786 12.38315192 68.82133372 12.37746404 66.70855713 12.37347412 C61.1847168 12.35830179 55.66130636 12.31909337 50.13763428 12.2746582 C44.48634656 12.23352313 38.83498846 12.21542436 33.18359375 12.1953125 C22.12220838 12.15259018 11.06114013 12.08444203 0 12 C0 8.04 0 4.08 0 0 Z " fill="#1E6FBE" transform="translate(109,171)"/>
<path d="M0 0 C12.14456806 -0.11633537 24.28900149 -0.20493832 36.43401527 -0.25906086 C42.07470135 -0.28504945 47.71500354 -0.32024982 53.35546875 -0.37719727 C58.80849302 -0.4319018 64.26115024 -0.46150109 69.71442795 -0.47438622 C71.78506617 -0.48355751 73.85568646 -0.50146523 75.92616653 -0.52865028 C90.5588642 -0.71296892 104.40637539 -0.21343121 116 10 C116 10.66 116 11.32 116 12 C77.72 12 39.44 12 0 12 C0 8.04 0 4.08 0 0 Z " fill="#1E6EBE" transform="translate(109,14)"/>
<path d="M0 0 C11.83945035 -0.23212854 23.67835586 -0.40959765 35.51962185 -0.51812172 C41.01870266 -0.57022047 46.51622211 -0.64083166 52.0144043 -0.75439453 C57.32487788 -0.86338864 62.63385408 -0.92291118 67.94536018 -0.94877243 C69.96728141 -0.96719073 71.98912441 -1.00316074 74.01040459 -1.05730057 C89.82705134 -1.46393664 89.82705134 -1.46393664 95.29885864 2.22247314 C101 8.37645296 101 8.37645296 101 12 C67.67 12 34.34 12 0 12 C0 8.04 0 4.08 0 0 Z " fill="#1F6EBE" transform="translate(133,104)"/>
<path d="M0 0 C33 0 66 0 100 0 C97.87432998 4.25134004 95.41012399 8.794938 91 11 C88.13168448 11.09334432 85.28781736 11.12574811 82.41943359 11.11352539 C81.53156662 11.11367142 80.64369965 11.11381744 79.72892761 11.1139679 C76.78540631 11.11326955 73.84194779 11.10548081 70.8984375 11.09765625 C68.86105382 11.09579179 66.82366969 11.09436802 64.7862854 11.09336853 C59.41702034 11.08954555 54.04778223 11.07971711 48.67852783 11.06866455 C43.2023556 11.05844574 37.72617902 11.0538699 32.25 11.04882812 C21.49998815 11.03809467 10.74999631 11.02102085 0 11 C0 7.37 0 3.74 0 0 Z " fill="#1C6EBC" transform="translate(133,82)"/>
<path d="M0 0 C27.39 0 54.78 0 83 0 C83 3.96 83 7.92 83 12 C55.61 12 28.22 12 0 12 C0 8.04 0 4.08 0 0 Z " fill="#296FB7" transform="translate(15,14)"/>
<path d="M0 0 C27.06 0 54.12 0 82 0 C82 3.96 82 7.92 82 12 C54.94 12 27.88 12 0 12 C0 8.04 0 4.08 0 0 Z " fill="#1F6FBE" transform="translate(16,171)"/>
<path d="M0 0 C27.06 0 54.12 0 82 0 C82 3.96 82 7.92 82 12 C54.94 12 27.88 12 0 12 C0 8.04 0 4.08 0 0 Z " fill="#2C73BB" transform="translate(16,149)"/>
<path d="M0 0 C27.06 0 54.12 0 82 0 C82 3.63 82 7.26 82 11 C54.94 11 27.88 11 0 11 C0 7.37 0 3.74 0 0 Z " fill="#1F6AB3" transform="translate(15,37)"/>
<path d="M0 0 C24.75 0 49.5 0 75 0 C75 3.63 75 7.26 75 11 C49.26 11 23.52 11 -3 11 C-2.01 7.37 -1.02 3.74 0 0 Z " fill="#1C6CBB" transform="translate(362,37)"/>
<path d="M0 0 C24.75 0 49.5 0 75 0 C75.99 3.63 76.98 7.26 78 11 C52.26 11 26.52 11 0 11 C0 7.37 0 3.74 0 0 Z " fill="#1D6CBB" transform="translate(250,37)"/>
<path d="M0 0 C22.11 0 44.22 0 67 0 C71 10 71 10 71 12 C47.57 12 24.14 12 0 12 C0 8.04 0 4.08 0 0 Z " fill="#286FB6" transform="translate(249,14)"/>
<path d="M0 0 C21.78 0 43.56 0 66 0 C66 3.96 66 7.92 66 12 C42.9 12 19.8 12 -4 12 C-1 2 -1 2 0 0 Z " fill="#276EB6" transform="translate(371,14)"/>
<path d="M0 0 C19.8 0 39.6 0 60 0 C63 9 63 9 63 12 C42.21 12 21.42 12 0 12 C0 8.04 0 4.08 0 0 Z " fill="#1C6EBE" transform="translate(273,59)"/>
<path d="M0 0 C19.8 0 39.6 0 60 0 C60 3.96 60 7.92 60 12 C39.21 12 18.42 12 -3 12 C-2.01 8.04 -1.02 4.08 0 0 Z " fill="#1C6DBE" transform="translate(354,59)"/>
<path d="M0 0 C19.8 0 39.6 0 60 0 C60 3.96 60 7.92 60 12 C40.2 12 20.4 12 0 12 C0 8.04 0 4.08 0 0 Z " fill="#1E6FBE" transform="translate(378,171)"/>
<path d="M0 0 C19.47 0 38.94 0 59 0 C59 3.96 59 7.92 59 12 C39.53 12 20.06 12 0 12 C0 8.04 0 4.08 0 0 Z " fill="#1F6FBE" transform="translate(250,171)"/>
<path d="M0 0 C19.47 0 38.94 0 59 0 C59 3.96 59 7.92 59 12 C39.53 12 20.06 12 0 12 C0 8.04 0 4.08 0 0 Z " fill="#2970B6" transform="translate(250,149)"/>
<path d="M0 0 C19.47 0 38.94 0 59 0 C59 3.63 59 7.26 59 11 C39.53 11 20.06 11 0 11 C0 7.37 0 3.74 0 0 Z " fill="#206AB4" transform="translate(379,149)"/>
<path d="M0 0 C18.81 0 37.62 0 57 0 C56.01 3.63 55.02 7.26 54 11 C37.5 11 21 11 4 11 C0 2 0 2 0 0 Z " fill="#1F6EBD" transform="translate(315,104)"/>
<path d="M0 0 C12.14456806 -0.11633537 24.28900149 -0.20493832 36.43401527 -0.25906086 C42.07470135 -0.28504945 47.71500354 -0.32024982 53.35546875 -0.37719727 C58.80849302 -0.4319018 64.26115024 -0.46150109 69.71442795 -0.47438622 C71.78506617 -0.48355751 73.85568646 -0.50146523 75.92616653 -0.52865028 C90.5588642 -0.71296892 104.40637539 -0.21343121 116 10 C116 10.66 116 11.32 116 12 C77.72 12 39.44 12 0 12 C0 8.04 0 4.08 0 0 Z M2 2 C2 4.64 2 7.28 2 10 C36.98 10 71.96 10 108 10 C108 8.68 108 7.36 108 6 C97.01139552 0.91422487 86.11764044 1.48417422 74.265625 1.609375 C72.17527816 1.61684827 70.08492426 1.62253606 67.99456787 1.62652588 C62.52990908 1.64169667 57.06568498 1.68090367 51.60119629 1.7253418 C46.01023232 1.76648028 40.41919715 1.78457635 34.828125 1.8046875 C23.88522714 1.84740708 12.94264992 1.91555327 2 2 Z " fill="#3970AA" transform="translate(109,14)"/>
<path d="M0 0 C38.61 0 77.22 0 117 0 C117 0.66 117 1.32 117 2 C112.22958951 5.46938945 106.80168668 8.75678143 101 10 C99.65628126 9.71136728 98.31945667 9.38460758 97 9 C97.85464844 8.65066406 98.70929688 8.30132812 99.58984375 7.94140625 C100.69457031 7.48636719 101.79929687 7.03132812 102.9375 6.5625 C104.03964844 6.11003906 105.14179688 5.65757812 106.27734375 5.19140625 C108.86568916 4.25575392 108.86568916 4.25575392 110 3 C74.36 2.67 38.72 2.34 2 2 C2 4.64 2 7.28 2 10 C33.02 10 64.04 10 96 10 C95.67 10.66 95.34 11.32 95 12 C63.65 12 32.3 12 0 12 C0 8.04 0 4.08 0 0 Z " fill="#3E72A4" transform="translate(109,171)"/>
<path d="M0 0 C11.88 0 23.76 0 36 0 C38 6 38 6 38 12 C25.46 12 12.92 12 0 12 C0 8.04 0 4.08 0 0 Z " fill="#1E6CB8" transform="translate(203,126)"/>
<path d="M0 0 C12.54 0 25.08 0 38 0 C37 8 37 8 36 12 C24.12 12 12.24 12 0 12 C0 8.04 0 4.08 0 0 Z " fill="#286FB4" transform="translate(203,59)"/>
<path d="M0 0 C13.53 0 27.06 0 41 0 C38 10 38 10 37 12 C26.11 12 15.22 12 4 12 C0 2 0 2 0 0 Z " fill="#206CB8" transform="translate(323,126)"/>
<path d="M0 0 C11.88 0 23.76 0 36 0 C36 3.96 36 7.92 36 12 C24.12 12 12.24 12 0 12 C0 8.04 0 4.08 0 0 Z " fill="#1E6EBE" transform="translate(379,126)"/>
<path d="M0 0 C11.88 0 23.76 0 36 0 C36 3.96 36 7.92 36 12 C24.12 12 12.24 12 0 12 C0 8.04 0 4.08 0 0 Z " fill="#1E6FBF" transform="translate(273,126)"/>
<path d="M0 0 C11.88 0 23.76 0 36 0 C36 3.96 36 7.92 36 12 C24.12 12 12.24 12 0 12 C0 8.04 0 4.08 0 0 Z " fill="#1E6EBE" transform="translate(39,126)"/>
<path d="M0 0 C11.88 0 23.76 0 36 0 C36 3.96 36 7.92 36 12 C24.12 12 12.24 12 0 12 C0 8.04 0 4.08 0 0 Z " fill="#1F6FBF" transform="translate(273,104)"/>
<path d="M0 0 C11.88 0 23.76 0 36 0 C36 3.96 36 7.92 36 12 C24.12 12 12.24 12 0 12 C0 8.04 0 4.08 0 0 Z " fill="#1D6EBD" transform="translate(39,81)"/>
<path d="M0 0 C11.88 0 23.76 0 36 0 C36 3.96 36 7.92 36 12 C24.12 12 12.24 12 0 12 C0 8.04 0 4.08 0 0 Z " fill="#2F74BA" transform="translate(39,59)"/>
<path d="M0 0 C43.23 0 86.46 0 131 0 C129 9 129 9 127 12 C124.77049828 12.36914349 124.77049828 12.36914349 121.93807983 12.36076355 C120.86673294 12.36488754 119.79538605 12.36901154 118.6915741 12.3732605 C117.51122086 12.36247467 116.33086761 12.35168884 115.11474609 12.34057617 C113.87575058 12.34101425 112.63675507 12.34145233 111.36021423 12.34190369 C107.95733587 12.3401685 104.55499973 12.32509646 101.15221739 12.30418181 C97.59812731 12.28546112 94.04403045 12.28366822 90.48989868 12.28010559 C83.75731993 12.27077152 77.02488687 12.24613946 70.29237235 12.21605712 C62.62864712 12.18255535 54.96491502 12.16603776 47.30113482 12.15097082 C31.53400313 12.11959098 15.76702605 12.06620175 0 12 C0 8.04 0 4.08 0 0 Z M2 2 C1.92851801 3.35243917 1.91600546 4.70834367 1.9375 6.0625 C1.958125 7.361875 1.97875 8.66125 2 10 C18.13302892 10.07001349 34.26600873 10.12295047 50.39915276 10.15543652 C57.88968858 10.17091981 65.38013014 10.19203708 72.87060547 10.22631836 C79.39764979 10.25617617 85.92462586 10.27556436 92.45173657 10.28226548 C95.90932545 10.28618394 99.36671903 10.29542275 102.82424545 10.31719017 C106.67958039 10.34126623 110.53472249 10.34197233 114.39013672 10.34057617 C115.54243774 10.351362 116.69473877 10.36214783 117.88195801 10.3732605 C119.45111465 10.36707451 119.45111465 10.36707451 121.05197144 10.36076355 C121.96454649 10.36352893 122.87712154 10.36629431 123.81735039 10.36914349 C124.89776195 10.18641746 124.89776195 10.18641746 126 10 C128.29013653 6.5647952 128.17842973 5.014669 128 1 C111.71929697 0.97667098 95.43859933 0.95902081 79.15788364 0.94818783 C71.59898381 0.94302488 64.04009435 0.9359822 56.48120117 0.92456055 C49.89520334 0.91461368 43.30921302 0.90814657 36.72320789 0.90591151 C33.23386929 0.9046044 29.74455216 0.90151858 26.25522041 0.89426994 C22.36618768 0.88625602 18.47717622 0.88600886 14.58813477 0.88647461 C12.84026421 0.8810817 12.84026421 0.8810817 11.05708313 0.87557983 C10.00393921 0.8769545 8.95079529 0.87832916 7.86573792 0.87974548 C6.94486672 0.87882369 6.02399553 0.8779019 5.07521915 0.87695217 C3.00970745 0.76895474 3.00970745 0.76895474 2 2 Z " fill="#4477AA" transform="translate(109,149)"/>
<path d="M0 0 C11.55 0 23.1 0 35 0 C35 3.96 35 7.92 35 12 C23.45 12 11.9 12 0 12 C0 8.04 0 4.08 0 0 Z " fill="#1D6EBF" transform="translate(133,59)"/>
<path d="M0 0 C11.55 0 23.1 0 35 0 C35 3.63 35 7.26 35 11 C23.45 11 11.9 11 0 11 C0 7.37 0 3.74 0 0 Z " fill="#206AB4" transform="translate(133,127)"/>
<path d="M0 0 C11.55 0 23.1 0 35 0 C35 3.63 35 7.26 35 11 C23.45 11 11.9 11 0 11 C0 7.37 0 3.74 0 0 Z " fill="#1E70C1" transform="translate(39,104)"/>
<path d="M0 0 C11.55 0 23.1 0 35 0 C35 3.63 35 7.26 35 11 C23.45 11 11.9 11 0 11 C0 7.37 0 3.74 0 0 Z " fill="#1F6FBF" transform="translate(379,104)"/>
<path d="M0 0 C27.06 0 54.12 0 82 0 C82 3.96 82 7.92 82 12 C54.94 12 27.88 12 0 12 C0 8.04 0 4.08 0 0 Z M1 2 C1 4.64 1 7.28 1 10 C27.07 10 53.14 10 80 10 C80 7.36 80 4.72 80 2 C53.93 2 27.86 2 1 2 Z " fill="#3C71A4" transform="translate(16,171)"/>
<path d="M0 0 C11.83945035 -0.23212854 23.67835586 -0.40959765 35.51962185 -0.51812172 C41.01870266 -0.57022047 46.51622211 -0.64083166 52.0144043 -0.75439453 C57.32487788 -0.86338864 62.63385408 -0.92291118 67.94536018 -0.94877243 C69.96728141 -0.96719073 71.98912441 -1.00316074 74.01040459 -1.05730057 C89.82705134 -1.46393664 89.82705134 -1.46393664 95.29885864 2.22247314 C101 8.37645296 101 8.37645296 101 12 C67.67 12 34.34 12 0 12 C0 8.04 0 4.08 0 0 Z M1 2 C1 4.64 1 7.28 1 10 C32.35 10 63.7 10 96 10 C95.505 8.02 95.505 8.02 95 6 C93.68 5.67 92.36 5.34 91 5 C91.33 4.34 91.66 3.68 92 3 C91.505 2.01 91.505 2.01 91 1 C79.41311598 0.97687772 67.82623741 0.9590855 56.23933506 0.94818783 C50.85966238 0.94295875 45.48000542 0.93586065 40.1003418 0.92456055 C34.91325157 0.91373255 29.72617651 0.90772335 24.53907585 0.90512276 C22.5554372 0.90326835 20.57179942 0.89964744 18.58816719 0.89426994 C15.81990864 0.88706068 13.05171362 0.88600901 10.28344727 0.88647461 C9.45482681 0.88287933 8.62620636 0.87928406 7.7724762 0.87557983 C4.08497372 0.52881821 4.08497372 0.52881821 1 2 Z " fill="#4A79B0" transform="translate(133,104)"/>
<path d="M0 0 C33 0 66 0 100 0 C98.47524303 3.04951395 97.07114674 5.36399506 95 8 C94.01 7.67 93.02 7.34 92 7 C93.65 5.02 95.3 3.04 97 1 C65.32 1.33 33.64 1.66 1 2 C1 4.31 1 6.62 1 9 C31.03 9 61.06 9 92 9 C91.67 9.66 91.34 10.32 91 11 C60.97 11 30.94 11 0 11 C0 7.37 0 3.74 0 0 Z " fill="#25649B" transform="translate(133,82)"/>
<path d="M0 0 C42.24 0 84.48 0 128 0 C131 9 131 9 131 11 C87.77 11 44.54 11 0 11 C0 7.37 0 3.74 0 0 Z M1 1 C1 3.97 1 6.94 1 10 C42.91 10 84.82 10 128 10 C129.2109556 6.3671332 128.66879675 5.3375935 127 2 C124.50641233 0.75320616 122.8424641 0.8769268 120.05197144 0.87974548 C118.48281479 0.87768349 118.48281479 0.87768349 116.88195801 0.87557983 C115.15350647 0.88097275 115.15350647 0.88097275 113.39013672 0.88647461 C112.18040192 0.88632858 110.97066711 0.88618256 109.72427368 0.8860321 C106.40215979 0.88661044 103.08010763 0.89163445 99.75800467 0.89860606 C96.28798192 0.90484662 92.8179584 0.90544396 89.34793091 0.90663147 C82.77478602 0.90974271 76.20165771 0.91795331 69.62852013 0.92798096 C62.14615166 0.93914852 54.66378241 0.94465417 47.18140769 0.94967639 C31.78759551 0.96013609 16.39379989 0.97773153 1 1 Z " fill="#266098" transform="translate(109,37)"/>
<path d="M0 0 C19.8 0 39.6 0 60 0 C63 9 63 9 63 12 C42.21 12 21.42 12 0 12 C0 8.04 0 4.08 0 0 Z M2 2 C2 4.64 2 7.28 2 10 C21.14 10 40.28 10 60 10 C59.34 7.36 58.68 4.72 58 2 C39.52 2 21.04 2 2 2 Z " fill="#4478AA" transform="translate(273,59)"/>
<path d="M0 0 C19.8 0 39.6 0 60 0 C60 3.96 60 7.92 60 12 C40.2 12 20.4 12 0 12 C0 8.04 0 4.08 0 0 Z M3 2 C1.5527864 4.52174919 1.5527864 4.52174919 2 10 C20.48 10 38.96 10 58 10 C58 7.36 58 4.72 58 2 C39.85 2 21.7 2 3 2 Z " fill="#4074A6" transform="translate(378,171)"/>
<path d="M0 0 C19.47 0 38.94 0 59 0 C59 3.96 59 7.92 59 12 C39.53 12 20.06 12 0 12 C0 8.04 0 4.08 0 0 Z M2 2 C2 4.64 2 7.28 2 10 C20.15 10 38.3 10 57 10 C57 7.36 57 4.72 57 2 C38.85 2 20.7 2 2 2 Z " fill="#3E72A4" transform="translate(250,171)"/>
<path d="M0 0 C7.92 0 15.84 0 24 0 C21 11 21 11 20 12 C17.30345146 12.07319621 14.63308542 12.09242537 11.9375 12.0625 C10.79958008 12.05573242 10.79958008 12.05573242 9.63867188 12.04882812 C7.75908129 12.0370068 5.87953101 12.01907078 4 12 C3.32645501 10.56570999 2.66140299 9.12742943 2 7.6875 C1.62875 6.88699219 1.2575 6.08648437 0.875 5.26171875 C0 3 0 3 0 0 Z " fill="#2E679E" transform="translate(332,149)"/>
<path d="M0 0 C22.11 0 44.22 0 67 0 C68.88343932 3.76687864 69.22057835 5.02958963 69 9 C66 5.25 66 5.25 66 3 C34.32 2.505 34.32 2.505 2 2 C2 4.64 2 7.28 2 10 C12.56 10 23.12 10 34 10 C34.33 9.01 34.66 8.02 35 7 C35 8.65 35 10.3 35 12 C23.45 12 11.9 12 0 12 C0 8.04 0 4.08 0 0 Z " fill="#4177A7" transform="translate(273,81)"/>
<path d="M0 0 C20.79 0 41.58 0 63 0 C63 0.33 63 0.66 63 1 C51.45 1 39.9 1 28 1 C28 2.98 28 4.96 28 7 C18.76 7.33 9.52 7.66 0 8 C0.33 6.68 0.66 5.36 1 4 C0.34 4 -0.32 4 -1 4 C-0.67 2.68 -0.34 1.36 0 0 Z " fill="#1F70BF" transform="translate(346,84)"/>
<path d="M0 0 C22.44 0 44.88 0 68 0 C68 3.96 68 7.92 68 12 C56.12 12 44.24 12 32 12 C32 11.34 32 10.68 32 10 C43.22 10 54.44 10 66 10 C66 7.36 66 4.72 66 2 C57.68973708 2.0611396 49.37984095 2.13819284 41.06993294 2.23571491 C37.21151939 2.28049253 33.35321323 2.31973184 29.49462891 2.34643555 C25.77266501 2.37239553 22.05111276 2.41274469 18.32940292 2.46318626 C16.90765366 2.47990476 15.48583311 2.49138794 14.06399918 2.49761391 C12.07656914 2.50720011 10.08926678 2.53692451 8.10205078 2.56762695 C6.40328293 2.58428154 6.40328293 2.58428154 4.67019653 2.60127258 C3.34844925 2.79864265 3.34844925 2.79864265 2 3 C1.34 3.99 0.68 4.98 0 6 C0 4.02 0 2.04 0 0 Z " fill="#487CA9" transform="translate(347,81)"/>
<path d="M0 0 C33.33 0 66.66 0 101 0 C99.96081177 6.23512937 98.55230589 9.44491609 93.38250732 13.16342163 C89.70626516 14.45427377 86.03776288 14.21129073 82.19238281 14.13525391 C81.30422379 14.12579239 80.41606476 14.11633087 79.50099182 14.10658264 C76.56815896 14.07293084 73.63575109 14.02480825 70.703125 13.9765625 C68.66861071 13.95039272 66.63408463 13.92512592 64.59954834 13.90072632 C59.24661317 13.8341015 53.89392634 13.75520279 48.54119873 13.67376709 C43.07834398 13.59282165 37.61534362 13.52345729 32.15234375 13.453125 C21.43472128 13.31343255 10.71732547 13.1607761 0 13 C0 12.67 0 12.34 0 12 C1.12895187 11.99635437 2.25790375 11.99270874 3.42106628 11.98895264 C14.05945402 11.95201428 24.69755199 11.8942542 35.33571911 11.81609726 C40.80496103 11.7765851 46.27404105 11.74441489 51.7434082 11.72900391 C57.02150352 11.71386207 62.29915381 11.67946024 67.57705116 11.63169098 C69.59083501 11.61685169 71.60468239 11.60895753 73.61852074 11.60811615 C76.43911583 11.60575243 79.25847514 11.57872072 82.07885742 11.54589844 C82.91179825 11.5509288 83.74473907 11.55595917 84.60292053 11.56114197 C88.37064596 11.4932902 90.50937832 11.28993014 93.80757141 9.34088135 C96.52505591 6.56756984 96.52505591 6.56756984 100 1 C67 1 34 1 0 1 C0 0.67 0 0.34 0 0 Z " fill="#A6CADE" transform="translate(133,81)"/>
<path d="M0 0 C19.8 0 39.6 0 60 0 C60 3.96 60 7.92 60 12 C39.21 12 18.42 12 -3 12 C-2.67 11.01 -2.34 10.02 -2 9 C28.195 9.495 28.195 9.495 59 10 C58.505 6.04 58.505 6.04 58 2 C39.19 1.67 20.38 1.34 1 1 C0.67 2.32 0.34 3.64 0 5 C-0.33 4.34 -0.66 3.68 -1 3 C-0.67 2.01 -0.34 1.02 0 0 Z " fill="#4477A8" transform="translate(354,59)"/>
<path d="M0 0 C0.83496002 0.00424484 1.66992004 0.00848969 2.53018188 0.01286316 C5.17931285 0.02956542 7.8276641 0.067201 10.4765625 0.10546875 C12.27993688 0.12052655 14.08332326 0.13421304 15.88671875 0.14648438 C20.291964 0.17944113 24.69663136 0.23116406 29.1015625 0.29296875 C29.12842803 2.27206273 29.14789625 4.25125846 29.1640625 6.23046875 C29.17566406 7.33261719 29.18726563 8.43476562 29.19921875 9.5703125 C29.1015625 12.29296875 29.1015625 12.29296875 28.1015625 13.29296875 C25.45872351 13.41871842 22.84341435 13.48161281 20.19921875 13.49609375 C19.40631943 13.50179382 18.6134201 13.5074939 17.79649353 13.5133667 C16.11605164 13.52282973 14.43559108 13.52935584 12.75512695 13.53320312 C10.17822073 13.54291539 7.60210965 13.57392815 5.02539062 13.60546875 C3.39583809 13.61199782 1.76627983 13.61724867 0.13671875 13.62109375 C-1.02427589 13.63961395 -1.02427589 13.63961395 -2.20872498 13.6585083 C-4.38256836 13.64941406 -4.38256836 13.64941406 -7.8984375 13.29296875 C-9.8984375 10.29296875 -9.8984375 10.29296875 -9.5234375 7.60546875 C-9.3171875 6.84234375 -9.1109375 6.07921875 -8.8984375 5.29296875 C-9.8884375 5.29296875 -10.8784375 5.29296875 -11.8984375 5.29296875 C-12.0015625 6.05609375 -12.1046875 6.81921875 -12.2109375 7.60546875 C-12.97380778 10.58759802 -13.49022988 11.45264321 -15.8984375 13.29296875 C-18.19535828 13.6537323 -18.19535828 13.6537323 -20.9206543 13.63354492 C-21.94148605 13.63331833 -22.96231781 13.63309174 -24.01408386 13.63285828 C-25.11416275 13.61737442 -26.21424164 13.60189056 -27.34765625 13.5859375 C-29.03928642 13.57957024 -29.03928642 13.57957024 -30.76509094 13.57307434 C-34.37228117 13.55626186 -37.97891572 13.51860403 -41.5859375 13.48046875 C-44.02928882 13.46542528 -46.47264887 13.45173629 -48.91601562 13.43945312 C-54.91034632 13.40634991 -60.90435221 13.35612468 -66.8984375 13.29296875 C-66.8984375 12.96296875 -66.8984375 12.63296875 -66.8984375 12.29296875 C-50.3984375 12.29296875 -33.8984375 12.29296875 -16.8984375 12.29296875 C-16.2384375 9.32296875 -15.5784375 6.35296875 -14.8984375 3.29296875 C-10.35201765 -0.32489605 -5.55666737 -0.10751659 0 0 Z M-6.8984375 1.29296875 C-6.8984375 4.92296875 -6.8984375 8.55296875 -6.8984375 12.29296875 C4.6515625 12.29296875 16.2015625 12.29296875 28.1015625 12.29296875 C28.1015625 8.66296875 28.1015625 5.03296875 28.1015625 1.29296875 C16.5515625 1.29296875 5.0015625 1.29296875 -6.8984375 1.29296875 Z " fill="#ACCAE6" transform="translate(385.8984375,102.70703125)"/>
<path d="M0 0 C11.55 0 23.1 0 35 0 C35 3.96 35 7.92 35 12 C23.45 12 11.9 12 0 12 C0 8.04 0 4.08 0 0 Z M1 2 C1 4.31 1 6.62 1 9 C11.56 9 22.12 9 33 9 C33 6.69 33 4.38 33 2 C22.44 2 11.88 2 1 2 Z " fill="#296BAC" transform="translate(133,59)"/>
<path d="M0 0 C24.75 0 49.5 0 75 0 C75 3.63 75 7.26 75 11 C49.26 11 23.52 11 -3 11 C-2.01 7.37 -1.02 3.74 0 0 Z M2 1 C2 2.32 2 3.64 2 5 C1.01 5.495 1.01 5.495 0 6 C0 7.32 0 8.64 0 10 C24.42 10 48.84 10 74 10 C74 7.03 74 4.06 74 1 C50.24 1 26.48 1 2 1 Z " fill="#235E97" transform="translate(362,37)"/>
<path d="M0 0 C0.33 0 0.66 0 1 0 C1 3.3 1 6.6 1 10 C-25.73 10 -52.46 10 -80 10 C-80 7.03 -80 4.06 -80 1 C-79.01 1.495 -79.01 1.495 -78 2 C-78 3.98 -78 5.96 -78 8 C-52.26 8 -26.52 8 0 8 C0 5.36 0 2.72 0 0 Z " fill="#175EA4" transform="translate(96,150)"/>
<path d="M0 0 C24.75 0 49.5 0 75 0 C75.99 3.63 76.98 7.26 78 11 C52.26 11 26.52 11 0 11 C0 7.37 0 3.74 0 0 Z M1 1 C1 3.97 1 6.94 1 10 C25.75 10 50.5 10 76 10 C74.7284644 3.40470244 74.7284644 3.40470244 72 1 C68.92235079 0.70592891 68.92235079 0.70592891 65.25537109 0.77294922 C64.56257553 0.77265717 63.86977997 0.77236511 63.1559906 0.77206421 C60.86167966 0.77345969 58.56769184 0.78903081 56.2734375 0.8046875 C54.68446022 0.80841686 53.09548064 0.8112642 51.50650024 0.81326294 C47.32085846 0.82090547 43.1353551 0.84055919 38.94976807 0.8626709 C34.68007276 0.88311604 30.41035513 0.8922618 26.140625 0.90234375 C17.76035309 0.92380457 9.38019375 0.95794789 1 1 Z " fill="#245F96" transform="translate(250,37)"/>
<path d="M0 0 C11.88 0 23.76 0 36 0 C36 3.96 36 7.92 36 12 C24.12 12 12.24 12 0 12 C0 8.04 0 4.08 0 0 Z M3 2 C1.5527864 4.52174919 1.5527864 4.52174919 2 10 C12.56 10 23.12 10 34 10 C34 7.69 34 5.38 34 3 C32.89732294 1.67112965 32.89732294 1.67112965 30.13256836 1.88647461 C28.88096924 1.89171143 27.62937012 1.89694824 26.33984375 1.90234375 C25.67537735 1.9037587 25.01091095 1.90517365 24.3263092 1.90663147 C22.19666101 1.91224482 20.06711661 1.92479946 17.9375 1.9375 C16.49674631 1.94251329 15.05599097 1.94707649 13.61523438 1.95117188 C10.07678898 1.96221855 6.53840461 1.97949208 3 2 Z " fill="#3D72AA" transform="translate(273,104)"/>
<path d="M0 0 C11.88 0 23.76 0 36 0 C36 3.96 36 7.92 36 12 C24.12 12 12.24 12 0 12 C0 8.04 0 4.08 0 0 Z M2 2 C2 4.64 2 7.28 2 10 C12.56 10 23.12 10 34 10 C34 7.36 34 4.72 34 2 C23.44 2 12.88 2 2 2 Z " fill="#3B74AA" transform="translate(273,126)"/>
<path d="M0 0 C0.33 0 0.66 0 1 0 C1 3.63 1 7.26 1 11 C20.47 11 39.94 11 60 11 C60 11.66 60 12.32 60 13 C56.51953903 13.78987017 53.31679146 14.12237417 49.75073242 14.11352539 C48.73005173 14.11344986 47.70937103 14.11337433 46.65776062 14.11329651 C45.02312614 14.10555458 45.02312614 14.10555458 43.35546875 14.09765625 C42.2305452 14.0962413 41.10562164 14.09482635 39.9466095 14.09336853 C36.36021241 14.08777931 32.77387816 14.07522872 29.1875 14.0625 C26.75325611 14.05748361 24.31901124 14.05292094 21.88476562 14.04882812 C15.92315571 14.0378134 9.96158234 14.02108594 4 14 C4 13.34 4 12.68 4 12 C2.68 12 1.36 12 0 12 C0 8.04 0 4.08 0 0 Z " fill="#C8DDED" transform="translate(378,149)"/>
<path d="M0 0 C11.88 0 23.76 0 36 0 C36 3.96 36 7.92 36 12 C24.12 12 12.24 12 0 12 C0 8.04 0 4.08 0 0 Z M1 3 C1 5.31 1 7.62 1 10 C11.89 10 22.78 10 34 10 C34 7.36 34 4.72 34 2 C29.6217488 1.97530919 25.24353433 1.95714443 20.86523438 1.94506836 C19.37531834 1.94003486 17.88540726 1.93320758 16.39550781 1.92456055 C14.25584696 1.91245195 12.11625132 1.90676193 9.9765625 1.90234375 C8.04417725 1.89448853 8.04417725 1.89448853 6.07275391 1.88647461 C3.08594772 1.78457369 3.08594772 1.78457369 1 3 Z " fill="#4376A6" transform="translate(39,81)"/>
<path d="M0 0 C11.88 0 23.76 0 36 0 C36 3.96 36 7.92 36 12 C24.12 12 12.24 12 0 12 C0 8.04 0 4.08 0 0 Z M1 2 C1 4.64 1 7.28 1 10 C11.89 10 22.78 10 34 10 C34 7.36 34 4.72 34 2 C23.11 2 12.22 2 1 2 Z " fill="#3F77AE" transform="translate(379,126)"/>
<path d="M0 0 C11.88 0 23.76 0 36 0 C36 3.96 36 7.92 36 12 C24.12 12 12.24 12 0 12 C0 8.04 0 4.08 0 0 Z M1 2 C1 4.64 1 7.28 1 10 C11.89 10 22.78 10 34 10 C34 7.36 34 4.72 34 2 C23.11 2 12.22 2 1 2 Z " fill="#3D77AD" transform="translate(39,126)"/>
<path d="M0 0 C11.55 0 23.1 0 35 0 C35 3.63 35 7.26 35 11 C23.45 11 11.9 11 0 11 C0 7.37 0 3.74 0 0 Z M2 2 C2 4.31 2 6.62 2 9 C12.23 9 22.46 9 33 9 C33 6.69 33 4.38 33 2 C22.77 2 12.54 2 2 2 Z " fill="#2562A2" transform="translate(39,104)"/>
<path d="M0 0 C0.33 0 0.66 0 1 0 C1 1.65 1 3.3 1 5 C12.55 5 24.1 5 36 5 C36 5.33 36 5.66 36 6 C22.78387623 6.15590462 9.56768815 6.30401788 -3.64862537 6.4429636 C-9.78964233 6.50775353 -15.93061091 6.57494015 -22.0715332 6.64819336 C-49.74017339 6.97648365 -77.34846083 7.16823759 -105 6 C-105 5.67 -105 5.34 -105 5 C-93.12 5 -81.24 5 -69 5 C-68.67 4.01 -68.34 3.02 -68 2 C-68 2.99 -68 3.98 -68 5 C-46.22 4.67 -24.44 4.34 -2 4 C-1.34 2.68 -0.68 1.36 0 0 Z " fill="#C8EFFD" transform="translate(378,88)"/>
<path d="M0 0 C0.66 0 1.32 0 2 0 C2 0.99 2 1.98 2 3 C11.24 3 20.48 3 30 3 C30.33 2.01 30.66 1.02 31 0 C31.5625 1.9375 31.5625 1.9375 32 4 C31 5 31 5 28.41209412 5.12025452 C27.25959671 5.11803391 26.1070993 5.11581329 24.91967773 5.11352539 C22.96776772 5.11341209 22.96776772 5.11341209 20.97642517 5.11329651 C19.54548098 5.10818909 18.11453718 5.10297308 16.68359375 5.09765625 C15.2277074 5.09579203 13.77182043 5.09436815 12.31593323 5.09336853 C8.47720621 5.08954365 4.63851681 5.07971364 0.79980469 5.06866455 C-3.11457816 5.05844978 -7.02896706 5.05387077 -10.94335938 5.04882812 C-18.62892343 5.03809134 -26.31445645 5.02101529 -34 5 C-33.67 4.01 -33.34 3.02 -33 2 C-16.665 2.495 -16.665 2.495 0 3 C0 2.01 0 1.02 0 0 Z " fill="#276598" transform="translate(345,88)"/>
<path d="M0 0 C11.55 0 23.1 0 35 0 C35 3.63 35 7.26 35 11 C23.45 11 11.9 11 0 11 C0 7.37 0 3.74 0 0 Z M2 2 C2 4.64 2 7.28 2 10 C12.23 10 22.46 10 33 10 C33 7.36 33 4.72 33 2 C22.77 2 12.54 2 2 2 Z " fill="#25609F" transform="translate(379,104)"/>
<path d="M0 0 C11.72641475 -0.20882152 23.45238503 -0.36859164 35.18028259 -0.46630955 C40.62655454 -0.51321791 46.07155163 -0.57680714 51.51708984 -0.67895508 C56.77565979 -0.77697495 62.03300624 -0.83060541 67.29241943 -0.85389519 C69.29558572 -0.87048459 71.29868735 -0.90288237 73.30133057 -0.95157051 C89.0464539 -1.31902986 89.0464539 -1.31902986 94.05615234 2.06350708 C96.0546482 4.28948398 97.60692374 6.3603591 99 9 C97.68 9.33 96.36 9.66 95 10 C94.505 8.515 94.505 8.515 94 7 C91.98491642 6.26676204 91.98491642 6.26676204 90 6 C90 4.33333333 90 2.66666667 90 1 C45.45 1.495 45.45 1.495 0 2 C0 1.34 0 0.68 0 0 Z " fill="#386FA4" transform="translate(134,104)"/>
<path d="M0 0 C5.94 0 11.88 0 18 0 C17 5 17 5 16 7 C11.05 7 6.1 7 1 7 C0.67 4.69 0.34 2.38 0 0 Z " fill="#1F6EBE" transform="translate(335,151)"/>
<path d="M0 0 C0 4.62 0 9.24 0 14 C-0.99 14 -1.98 14 -3 14 C-3 10.04 -3 6.08 -3 2 C-24.78 2 -46.56 2 -69 2 C-69 1.67 -69 1.34 -69 1 C-67.99308105 0.9845388 -67.99308105 0.9845388 -66.96582031 0.96876526 C-59.95742851 0.86029606 -52.94915484 0.74573287 -45.94091797 0.62768555 C-43.32798747 0.58446584 -40.71503108 0.54278201 -38.10205078 0.50268555 C-34.33878796 0.44466798 -30.57565387 0.38106509 -26.8125 0.31640625 C-25.65073242 0.29969376 -24.48896484 0.28298126 -23.29199219 0.26576233 C-18.67430466 0.18207519 -14.14735863 0.09221406 -9.57421875 -0.58227539 C-6 -1 -6 -1 0 0 Z " fill="#E0FBFE" transform="translate(440,12)"/>
<path d="M0 0 C2.14331139 2.14331139 2.514193 3.14086424 3.25 6 C3.44078125 6.70125 3.6315625 7.4025 3.828125 8.125 C3.88484375 8.74375 3.9415625 9.3625 4 10 C1.51160675 12.48839325 0.06910338 12.23503088 -3.32574463 12.24884033 C-4.06661316 12.24164978 -4.80748169 12.23445923 -5.57080078 12.22705078 C-6.35137848 12.22734283 -7.13195618 12.22763489 -7.93618774 12.22793579 C-10.52267478 12.22653968 -13.10887564 12.21096542 -15.6953125 12.1953125 C-17.48607221 12.19158337 -19.27683396 12.18873592 -21.06759644 12.18673706 C-25.78588472 12.17909275 -30.50405031 12.15943745 -35.22229004 12.1373291 C-40.03489522 12.11688782 -44.84752019 12.10773903 -49.66015625 12.09765625 C-59.10682481 12.07619228 -68.55340221 12.04204675 -78 12 C-78 11.67 -78 11.34 -78 11 C-52.26 11 -26.52 11 0 11 C0 7.37 0 3.74 0 0 Z " fill="#CFECFC" transform="translate(437,37)"/>
<path d="M0 0 C13.53 0 27.06 0 41 0 C40.34 1.98 39.68 3.96 39 6 C38.505 4.515 38.505 4.515 38 3 C26.45 2.67 14.9 2.34 3 2 C3.66 3.65 4.32 5.3 5 7 C5 7.99 5 8.98 5 10 C4.34 10 3.68 10 3 10 C2.01 6.7 1.02 3.4 0 0 Z " fill="#477EB0" transform="translate(323,126)"/>
<path d="M0 0 C11.88 0 23.76 0 36 0 C36 0.33 36 0.66 36 1 C24.78 1.33 13.56 1.66 2 2 C2 4.97 2 7.94 2 11 C13.88 11 25.76 11 38 11 C38 11.33 38 11.66 38 12 C25.46 12 12.92 12 0 12 C0 8.04 0 4.08 0 0 Z " fill="#4E81B2" transform="translate(203,126)"/>
<path d="M0 0 C1.04590805 0.00222061 2.0918161 0.00444122 3.16941833 0.00672913 C4.35056717 0.00680466 5.531716 0.00688019 6.74865723 0.00695801 C8.03404892 0.01211929 9.31944061 0.01728058 10.64378357 0.02259827 C12.60601112 0.02472069 12.60601112 0.02472069 14.60787964 0.02688599 C18.09150591 0.03071042 21.57509071 0.04054005 25.05870056 0.05158997 C28.6111444 0.06180569 32.16359491 0.06638395 35.71604919 0.07142639 C42.69067564 0.0821624 49.66527449 0.09923792 56.63987732 0.12025452 C56.30987732 1.11025452 55.97987732 2.10025452 55.63987732 3.12025452 C55.63987732 2.46025452 55.63987732 1.80025452 55.63987732 1.12025452 C36.82987732 1.12025452 18.01987732 1.12025452 -1.36012268 1.12025452 C-0.04012268 4.09025452 1.27987732 7.06025452 2.63987732 10.12025452 C2.30987732 10.78025452 1.97987732 11.44025452 1.63987732 12.12025452 C-1.44805523 10.06163282 -1.83850875 9.26492331 -3.36012268 6.12025452 C-4.02012268 5.79025452 -4.68012268 5.46025452 -5.36012268 5.12025452 C-2.95544523 0.15058778 -2.95544523 0.15058778 0 0 Z " fill="#D6F2FD" transform="translate(316.36012268066406,102.87974548339844)"/>
<path d="M0 0 C0.66 0 1.32 0 2 0 C2 3.3 2 6.6 2 10 C-9.22 10 -20.44 10 -32 10 C-32 7.03 -32 4.06 -32 1 C-31.67 1 -31.34 1 -31 1 C-31 3.31 -31 5.62 -31 8 C-20.77 8 -10.54 8 0 8 C0 5.36 0 2.72 0 0 Z " fill="#1C5EA8" transform="translate(72,60)"/>
<path d="M0 0 C0.99 0.495 0.99 0.495 2 1 C2 3.31 2 5.62 2 8 C17.84 8.495 17.84 8.495 34 9 C34 6.03 34 3.06 34 0 C34.33 0 34.66 0 35 0 C35 3.63 35 7.26 35 11 C23.45 11 11.9 11 0 11 C0 7.37 0 3.74 0 0 Z " fill="#3A6FA3" transform="translate(133,60)"/>
<path d="M0 0 C3 2 3 2 3.73046875 4.1640625 C3.88128906 4.97617187 4.03210938 5.78828125 4.1875 6.625 C4.34605469 7.44226562 4.50460937 8.25953125 4.66796875 9.1015625 C4.77753906 9.72804688 4.88710938 10.35453125 5 11 C4.34 11.33 3.68 11.66 3 12 C2.34 9.03 1.68 6.06 1 3 C-18.8 3 -38.6 3 -59 3 C-59 2.67 -59 2.34 -59 2 C-57.93551132 1.9845388 -57.93551132 1.9845388 -56.84951782 1.96876526 C-50.16892967 1.87087812 -43.48843025 1.76837629 -36.80799294 1.66066074 C-33.37333017 1.60544377 -29.93865887 1.55202577 -26.50390625 1.50268555 C-22.55720111 1.44591293 -18.61064158 1.38137602 -14.6640625 1.31640625 C-13.42757965 1.29969376 -12.1910968 1.28298126 -10.91714478 1.26576233 C-9.77611298 1.24581711 -8.63508118 1.22587189 -7.45947266 1.20532227 C-6.451315 1.18977798 -5.44315735 1.1742337 -4.40444946 1.15821838 C-1.98733556 1.1551345 -1.98733556 1.1551345 0 0 Z " fill="#E0F7FE" transform="translate(332,56)"/>
<path d="M0 0 C18.81 0 37.62 0 57 0 C57 0.33 57 0.66 57 1 C55.9985495 0.99547569 55.9985495 0.99547569 54.97686768 0.99085999 C48.03354388 0.96631497 41.09159844 0.99035163 34.1484375 1.04272461 C31.55667389 1.05587171 28.96481645 1.05659204 26.37304688 1.04467773 C22.64879368 1.02970658 18.92716304 1.05928533 15.203125 1.09765625 C14.04258606 1.08340103 12.88204712 1.06914581 11.68634033 1.05445862 C6.01581678 0.92592553 6.01581678 0.92592553 1.35778809 3.61837769 C0.05821696 5.73323804 0.05821696 5.73323804 -1 9 C-1.66 8.67 -2.32 8.34 -3 8 C-2.690625 7.236875 -2.38125 6.47375 -2.0625 5.6875 C-1.32106407 3.81210323 -0.63771783 1.91315348 0 0 Z " fill="#1C61A6" transform="translate(355,60)"/>
<path d="M0 0 C18.81 0 37.62 0 57 0 C60 6 60 6 60 8 C59.01 7.67 58.02 7.34 57 7 C56.505 4.03 56.505 4.03 56 1 C37.52 1 19.04 1 0 1 C0 0.67 0 0.34 0 0 Z " fill="#1D61A3" transform="translate(275,60)"/>
<path d="M0 0 C0.66 0 1.32 0 2 0 C1.01 3.63 0.02 7.26 -1 11 C-17.17 11 -33.34 11 -50 11 C-50 10.67 -50 10.34 -50 10 C-34.16 10 -18.32 10 -2 10 C-1.67 7.03 -1.34 4.06 -1 1 C-0.67 0.67 -0.34 0.34 0 0 Z " fill="#195196" transform="translate(370,104)"/>
<path d="M0 0 C18.15 0 36.3 0 55 0 C55 0.33 55 0.66 55 1 C37.84 1 20.68 1 3 1 C3.33 2.32 3.66 3.64 4 5 C3.01 5.495 3.01 5.495 2 6 C1.34 4.02 0.68 2.04 0 0 Z " fill="#3B70A2" transform="translate(315,104)"/>
<path d="M0 0 C1.03159626 3.09478879 0.97482862 4.52631393 0.5625 7.6875 C0.40974609 8.89986328 0.40974609 8.89986328 0.25390625 10.13671875 C0.17011719 10.75160156 0.08632813 11.36648437 0 12 C-3.63233102 13.21077701 -6.95121987 13.12444164 -10.73046875 13.09765625 C-11.48088943 13.0962413 -12.23131012 13.09482635 -13.00447083 13.09336853 C-15.3988546 13.0877756 -17.79314453 13.07522444 -20.1875 13.0625 C-21.81184761 13.05748408 -23.43619668 13.05292134 -25.06054688 13.04882812 C-29.04040069 13.03780848 -33.02018444 13.02054873 -37 13 C-37 12.67 -37 12.34 -37 12 C-26.11 12 -15.22 12 -4 12 C-3.01 8.7 -2.02 5.4 -1 2 C-0.67 1.34 -0.34 0.68 0 0 Z " fill="#D9F5FE" transform="translate(364,126)"/>
<path d="M0 0 C2.64 0 5.28 0 8 0 C7.32829194 3.8063457 6.27253436 7.35206816 5 11 C4.34 11 3.68 11 3 11 C2.49384702 9.73160474 1.99530901 8.46016898 1.5 7.1875 C1.2215625 6.47980469 0.943125 5.77210938 0.65625 5.04296875 C0 3 0 3 0 0 Z " fill="#4170A0" transform="translate(340,171)"/>
<path d="M0 0 C12.87 0 25.74 0 39 0 C39.66 2.64 40.32 5.28 41 8 C40.01 7.67 39.02 7.34 38 7 C37.34 5.35 36.68 3.7 36 2 C24.12 1.67 12.24 1.34 0 1 C0 0.67 0 0.34 0 0 Z " fill="#27609A" transform="translate(286,37)"/>
<path d="M0 0 C0.66 0 1.32 0 2 0 C1.67 1.65 1.34 3.3 1 5 C-4.28 5 -9.56 5 -15 5 C-15 4.01 -15 3.02 -15 2 C-10.05 2 -5.1 2 0 2 C0 1.34 0 0.68 0 0 Z " fill="#3974AE" transform="translate(351,156)"/>
<path d="M0 0 C0 4.62 0 9.24 0 14 C-0.99 14 -1.98 14 -3 14 C-3 9.71 -3 5.42 -3 1 C-6.63 1 -10.26 1 -14 1 C-14 0.67 -14 0.34 -14 0 C-8.58855858 -0.83970643 -5.62652838 -0.93775473 0 0 Z " fill="#DEF0F8" transform="translate(440,12)"/>
<path d="M0 0 C6.65869825 1.67831944 12.52269517 3.7466739 18 8 C18 8.33 18 8.66 18 9 C15.69 9 13.38 9 11 9 C11 8.01 11 7.02 11 6 C7.04 4.68 3.08 3.36 -1 2 C-0.67 1.34 -0.34 0.68 0 0 Z " fill="#3069A6" transform="translate(206,15)"/>
<path d="M0 0 C0.33 0 0.66 0 1 0 C1 3.63 1 7.26 1 11 C0.34 11 -0.32 11 -1 11 C-1.33 11.66 -1.66 12.32 -2 13 C-3.32 12.67 -4.64 12.34 -6 12 C-5.67 10.68 -5.34 9.36 -5 8 C-5 8.99 -5 9.98 -5 11 C-4.34 11 -3.68 11 -3 11 C-2.87625 10.113125 -2.7525 9.22625 -2.625 8.3125 C-2.05587264 5.29612498 -1.23385564 2.79673946 0 0 Z " fill="#D1E7F3" transform="translate(348,171)"/>
<path d="M0 0 C0.33 1.32 0.66 2.64 1 4 C-1.84673755 5.42336877 -4.14615347 5.00758837 -7.3203125 4.87890625 C-8.57714844 4.83056641 -9.83398438 4.78222656 -11.12890625 4.73242188 C-12.44761719 4.67634766 -13.76632812 4.62027344 -15.125 4.5625 C-16.46482438 4.50927587 -17.80466808 4.45653549 -19.14453125 4.40429688 C-22.42990887 4.27429992 -25.71500678 4.13932314 -29 4 C-29 3.67 -29 3.34 -29 3 C-19.76 3 -10.52 3 -1 3 C-0.67 2.01 -0.34 1.02 0 0 Z " fill="#1C619C" transform="translate(376,88)"/>
<path d="M0 0 C3.33773709 3.64116773 3.97864902 7.28607242 5 12 C1.51866169 10.60746468 0.52113967 9.36823784 -1 6 C-1.66 5.67 -2.32 5.34 -3 5 C-1.125 1.125 -1.125 1.125 0 0 Z " fill="#E5F2F8" transform="translate(314,103)"/>
<path d="M0 0 C0.66 0 1.32 0 2 0 C2.50615298 1.26839526 3.00469099 2.53983102 3.5 3.8125 C3.91765625 4.87404297 3.91765625 4.87404297 4.34375 5.95703125 C5 8 5 8 5 11 C4.01 11.33 3.02 11.66 2 12 C1.01 8.37 0.02 4.74 -1 1 C-0.67 0.67 -0.34 0.34 0 0 Z " fill="#DEEFF6" transform="translate(330,149)"/>
<path d="M0 0 C1.03159626 3.09478879 0.97482862 4.52631393 0.5625 7.6875 C0.46066406 8.49574219 0.35882813 9.30398437 0.25390625 10.13671875 C0.17011719 10.75160156 0.08632813 11.36648437 0 12 C-2.31 12.33 -4.62 12.66 -7 13 C-6.01 12.67 -5.02 12.34 -4 12 C-3.00791599 9.73801919 -3.00791599 9.73801919 -2.375 7.0625 C-1.04334365 2.08668731 -1.04334365 2.08668731 0 0 Z " fill="#CDE8F4" transform="translate(364,126)"/>
<path d="M0 0 C2.31 0.33 4.62 0.66 7 1 C6.40138258 3.35171131 5.73075648 5.6859378 5 8 C4.01 8.495 4.01 8.495 3 9 C2.01 6.03 1.02 3.06 0 0 Z " fill="#DEF3FB" transform="translate(340,81)"/>
<path d="M0 0 C0.66 0 1.32 0 2 0 C2.22151549 1.79008467 2.42682213 3.58218162 2.625 5.375 C2.74101562 6.37273437 2.85703125 7.37046875 2.9765625 8.3984375 C2.98429687 9.25695312 2.99203125 10.11546875 3 11 C2.34 11.66 1.68 12.32 1 13 C0 12 0 12 -0.09765625 9.27734375 C-0.08605469 8.17519531 -0.07445312 7.07304687 -0.0625 5.9375 C-0.05347656 4.83277344 -0.04445313 3.72804687 -0.03515625 2.58984375 C-0.02355469 1.73519531 -0.01195312 0.88054687 0 0 Z " fill="#EBFBFD" transform="translate(309,171)"/>
<path d="M0 0 C1.51953125 1.11328125 1.51953125 1.11328125 3 3 C3.07421875 5.91796875 3.07421875 5.91796875 2.6875 9.1875 C2.56761719 10.27417969 2.44773437 11.36085938 2.32421875 12.48046875 C2.21722656 13.31191406 2.11023438 14.14335938 2 15 C-0.35119399 11.47320901 -0.21443452 9.97120515 -0.125 5.8125 C-0.10695313 4.72582031 -0.08890625 3.63914062 -0.0703125 2.51953125 C-0.04710937 1.68808594 -0.02390625 0.85664062 0 0 Z " fill="#EBFBFC" transform="translate(309,103)"/>
<path d="M0 0 C0.33 0 0.66 0 1 0 C1 3.63 1 7.26 1 11 C0.34 11 -0.32 11 -1 11 C-1.94778635 7.31416418 -2.02143554 4.67716794 -1 1 C-0.67 0.67 -0.34 0.34 0 0 Z " fill="#DAEEFA" transform="translate(132,82)"/>
<path d="M0 0 C0.99 0.33 1.98 0.66 3 1 C2.67 4.63 2.34 8.26 2 12 C1.34 12 0.68 12 0 12 C0 8.04 0 4.08 0 0 Z " fill="#CAE5F3" transform="translate(414,59)"/>
<path d="M0 0 C0.99 0.33 1.98 0.66 3 1 C2.25 8.75 2.25 8.75 0 11 C0 7.37 0 3.74 0 0 Z " fill="#DDF1FA" transform="translate(98,172)"/>
<path d="M0 0 C0.66 0.33 1.32 0.66 2 1 C2 1.66 2 2.32 2 3 C2.61875 3.268125 3.2375 3.53625 3.875 3.8125 C6 5 6 5 8 8 C7.34 8.66 6.68 9.32 6 10 C3.69 7.36 1.38 4.72 -1 2 C-0.67 1.34 -0.34 0.68 0 0 Z " fill="#E0F6FD" transform="translate(227,104)"/>
<path d="M0 0 C0.33 0.66 0.66 1.32 1 2 C0.09373216 3.2989839 -0.82549537 4.58893167 -1.75 5.875 C-2.51570312 6.95394531 -2.51570312 6.95394531 -3.296875 8.0546875 C-5.07503547 10.08570565 -6.52701607 10.97855012 -9 12 C-9 11.01 -9 10.02 -9 9 C-7.3603279 7.63360658 -5.68889872 6.3050581 -4 5 C-2.62631655 3.36643049 -1.28062485 1.7074998 0 0 Z " fill="#D6F0F9" transform="translate(233,83)"/>
<path d="M0 0 C0.99 1.32 1.98 2.64 3 4 C2.67 4.66 2.34 5.32 2 6 C1.34 6 0.68 6 0 6 C-0.33 7.65 -0.66 9.3 -1 11 C-1.66 11 -2.32 11 -3 11 C-2.01 7.37 -1.02 3.74 0 0 Z " fill="#3870A4" transform="translate(362,37)"/>
<path d="M0 0 C0.33 0 0.66 0 1 0 C1 3.96 1 7.92 1 12 C0.01 11.67 -0.98 11.34 -2 11 C-2 9.02 -2 7.04 -2 5 C-1.34 5 -0.68 5 0 5 C0 3.35 0 1.7 0 0 Z " fill="#E2F4FC" transform="translate(202,59)"/>
<path d="M0 0 C0.66 0 1.32 0 2 0 C2.125 5.75 2.125 5.75 1 8 C0.01 8 -0.98 8 -2 8 C-1.125 2.25 -1.125 2.25 0 0 Z " fill="#3C71A7" transform="translate(370,16)"/>
<path d="M0 0 C0.66 0 1.32 0 2 0 C2.79953138 3.28696233 3.09658936 4.71023192 2 8 C1.34 8 0.68 8 0 8 C-1.125 2.25 -1.125 2.25 0 0 Z " fill="#1E60A5" transform="translate(343,174)"/>
<path d="M0 0 C0.33 0.66 0.66 1.32 1 2 C1.66 2 2.32 2 3 2 C3.9765625 8.0546875 3.9765625 8.0546875 4 10 C3.34 10.66 2.68 11.32 2 12 C1.34 8.04 0.68 4.08 0 0 Z " fill="#E2F9FD" transform="translate(239,126)"/>
<path d="M0 0 C0.99 0.99 1.98 1.98 3 3 C2.85546875 5.26171875 2.85546875 5.26171875 2.1875 7.6875 C1.86845703 8.89986328 1.86845703 8.89986328 1.54296875 10.13671875 C1.27419922 11.05904297 1.27419922 11.05904297 1 12 C0.67 12 0.34 12 0 12 C0 8.04 0 4.08 0 0 Z " fill="#ECFDFE" transform="translate(415,103)"/>
<path d="M0 0 C3 1 3 1 4.1875 2.8125 C5 5 5 5 5 9 C4.34 9 3.68 9 3 9 C2.01 6.03 1.02 3.06 0 0 Z " fill="#E1F7FD" transform="translate(325,39)"/>
<path d="M0 0 C2.31 0.33 4.62 0.66 7 1 C7 1.66 7 2.32 7 3 C7.66 3.33 8.32 3.66 9 4 C7.35 4.33 5.7 4.66 4 5 C2.68 3.35 1.36 1.7 0 0 Z " fill="#DAEAF1" transform="translate(221,21)"/>
<path d="M0 0 C2 1 2 1 3 3 C-5.03571429 5.27678571 -5.03571429 5.27678571 -9 4 C-7.54618103 3.30300448 -6.08677047 2.61766134 -4.625 1.9375 C-3.40683594 1.36322266 -3.40683594 1.36322266 -2.1640625 0.77734375 C-1.44992188 0.52082031 -0.73578125 0.26429688 0 0 Z " fill="#C3E0EF" transform="translate(219,176)"/>
<path d="M0 0 C0.66 0 1.32 0 2 0 C0.515 5.445 0.515 5.445 -1 11 C-1.33 11 -1.66 11 -2 11 C-1.85957123 9.35369672 -1.71250671 7.70795821 -1.5625 6.0625 C-1.48128906 5.14597656 -1.40007812 4.22945313 -1.31640625 3.28515625 C-1 1 -1 1 0 0 Z " fill="#285D95" transform="translate(370,104)"/>
<path d="M0 0 C0.66 0.33 1.32 0.66 2 1 C0.68 3.31 -0.64 5.62 -2 8 C-2.66 7.67 -3.32 7.34 -4 7 C-2.92598892 4.08482708 -2.22189824 2.22189824 0 0 Z " fill="#2D6BAC" transform="translate(356,61)"/>
<path d="M0 0 C0.66 0.99 1.32 1.98 2 3 C-0.75 8.875 -0.75 8.875 -3 10 C-2.01 6.7 -1.02 3.4 0 0 Z " fill="#CFEAF6" transform="translate(356,149)"/>
<path d="M0 0 C0.66 0.33 1.32 0.66 2 1 C1.25 7.75 1.25 7.75 -1 10 C-2.31223496 6.06329512 -1.24296256 3.87511856 0 0 Z " fill="#2E6496" transform="translate(237,150)"/>
<path d="M0 0 C0.91058531 3.07322544 1.08886184 5.80097361 1 9 C0.01 9.33 -0.98 9.66 -2 10 C-1.54177532 6.53058454 -1.10868317 3.32604951 0 0 Z " fill="#CAE6F4" transform="translate(371,106)"/>
<path d="M0 0 C0.33 0 0.66 0 1 0 C1 3.63 1 7.26 1 11 C0.01 10.67 -0.98 10.34 -2 10 C-1.34 6.7 -0.68 3.4 0 0 Z " fill="#EBFDFF" transform="translate(108,37)"/>
<path d="M0 0 C0.66 0 1.32 0 2 0 C2.66 2.64 3.32 5.28 4 8 C3.01 7.67 2.02 7.34 1 7 C0.67 4.69 0.34 2.38 0 0 Z " fill="#3A6A9C" transform="translate(323,37)"/>
<path d="M0 0 C0.66 0.33 1.32 0.66 2 1 C1.34 3.97 0.68 6.94 0 10 C-1.00000429 5.99998285 -0.80688405 3.94476647 0 0 Z " fill="#E3F5FC" transform="translate(360,36)"/>
</svg>
