<?xml version="1.0" encoding="UTF-8"?>
<svg version="1.1" xmlns="http://www.w3.org/2000/svg" width="400" height="56">
<path d="M0 0 C4.62 0 9.24 0 14 0 C14.33 4.29 14.66 8.58 15 13 C16.32 12.34 17.64 11.68 19 11 C26.07994122 10.05454201 32.16906293 10.73637631 38 15 C43.42368933 20.18263647 46.03306818 26.53696639 46.375 34 C46.10151413 39.95723577 44.48189591 45.19769416 40.6875 49.8125 C39.800625 50.534375 38.91375 51.25625 38 52 C37.195625 52.763125 36.39125 53.52625 35.5625 54.3125 C29.95215553 56.97003159 24.10882327 56.63296241 18 56 C15.5703125 54.9765625 15.5703125 54.9765625 14 54 C13.505 54.495 13.505 54.495 13 55 C8.71 55 4.42 55 0 55 C0 36.85 0 18.7 0 0 Z M15 28 C13.3973429 31.20531421 13.51792623 34.52218208 14 38 C16.11724879 41.30290812 17.61275391 41.88526042 21.375 43 C25.83668484 43 27.61602108 41.81998243 31 39 C32.41000664 36.17998673 32.24548451 34.12992745 32 31 C30.58571571 27.72481534 29.67322027 26.35344064 26.5 24.6875 C21.31579741 23.26184429 19.1785076 24.91153786 15 28 Z " fill="#01A4AA" transform="translate(18,0)"/>
<path d="M0 0 C4.62 0 9.24 0 14 0 C15.65 6.6 17.3 13.2 19 20 C21.50633856 12.49974595 21.50633856 12.49974595 23.6875 4.9375 C24.120625 3.308125 24.55375 1.67875 25 0 C28.96 0 32.92 0 37 0 C37.34933594 1.27617187 37.69867188 2.55234375 38.05859375 3.8671875 C38.51812037 5.53648829 38.97776174 7.20575749 39.4375 8.875 C39.66759766 9.71675781 39.89769531 10.55851562 40.13476562 11.42578125 C40.35712891 12.23144531 40.57949219 13.03710938 40.80859375 13.8671875 C41.01282959 14.61081543 41.21706543 15.35444336 41.42749023 16.12060547 C41.96216267 18.0636295 41.96216267 18.0636295 43 20 C44.65 13.4 46.3 6.8 48 0 C52.62 0 57.24 0 62 0 C61.31583316 7.05935786 59.16567424 13.66816664 57.125 20.4375 C56.59712891 22.22124023 56.59712891 22.22124023 56.05859375 24.04101562 C54.24248544 30.12059011 52.32639468 36.09622482 50 42 C45.71 42 41.42 42 37 42 C35.02 35.07 33.04 28.14 31 21 C29.02 27.93 27.04 34.86 25 42 C20.71 42 16.42 42 12 42 C8.93016662 32.97655038 5.99829123 23.92015175 3.1875 14.8125 C2.87353271 13.80888428 2.55956543 12.80526855 2.23608398 11.77124023 C1.94548096 10.82192627 1.65487793 9.8726123 1.35546875 8.89453125 C1.09403076 8.04737549 0.83259277 7.20021973 0.56323242 6.32739258 C0 4 0 4 0 0 Z " fill="#174768" transform="translate(225,13)"/>
<path d="M0 0 C0 3.63 0 7.26 0 11 C-1.65 11 -3.3 11 -5 11 C-5 11.66 -5 12.32 -5 13 C-2.36 13 0.28 13 3 13 C3 8.71 3 4.42 3 0 C7.62 0 12.24 0 17 0 C17 4.29 17 8.58 17 13 C17.99 13 18.98 13 20 13 C20.50615298 14.26839526 21.00469099 15.53983102 21.5 16.8125 C21.7784375 17.52019531 22.056875 18.22789063 22.34375 18.95703125 C23 21 23 21 23 24 C21.02 24 19.04 24 17 24 C17 34.23 17 44.46 17 55 C8.84615385 53.83516484 8.84615385 53.83516484 5 49 C2.29246795 44.13768466 2.77578649 39.08700432 2.875 33.6875 C2.88402344 32.75615234 2.89304688 31.82480469 2.90234375 30.86523438 C2.92581578 28.57671177 2.96168391 26.28832221 3 24 C0.03 24 -2.94 24 -6 24 C-6 34.23 -6 44.46 -6 55 C-14.07692308 53.84615385 -14.07692308 53.84615385 -18 49 C-19.99201931 43.02394207 -19.30739682 36.139749 -19.35009766 29.86791992 C-19.36665055 28.08621147 -19.39393208 26.30456924 -19.43212891 24.52319336 C-19.48705714 21.9461037 -19.50879393 19.37056588 -19.5234375 16.79296875 C-19.54610687 16.00214401 -19.56877625 15.21131927 -19.59213257 14.39653015 C-19.5766757 10.32544696 -19.23119121 7.76902543 -16.64306641 4.53637695 C-11.58509105 -0.31742925 -6.64258182 -0.22905455 0 0 Z " fill="#184768" transform="translate(203,0)"/>
<path d="M0 0 C0.33 -0.33 0.66 -0.66 1 -1 C3.16480797 -1.0989294 5.33293785 -1.129711 7.5 -1.125 C8.6859375 -1.12757812 9.871875 -1.13015625 11.09375 -1.1328125 C14 -1 14 -1 15 0 C15.08871273 3.02977804 15.1151935 6.03667022 15.09765625 9.06640625 C15.0962413 9.97502914 15.09482635 10.88365204 15.09336853 11.81980896 C15.08775193 14.73407221 15.07519665 17.64825981 15.0625 20.5625 C15.05748714 22.53320202 15.05292386 24.50390524 15.04882812 26.47460938 C15.03777711 31.31643559 15.02050138 36.15820495 15 41 C9.33333333 41 3.66666667 41 -2 41 C-2.99 41.495 -2.99 41.495 -4 42 C-11.18805097 42.71269627 -17.46706664 42.94441953 -23.41796875 38.484375 C-28.71872327 33.51082755 -30.65429296 27.73363608 -31.3125 20.625 C-30.62565719 12.65762336 -28.03501299 6.37744499 -22 1 C-18.875 -0.875 -18.875 -0.875 -16 -2 C-15.38125 -2.2475 -14.7625 -2.495 -14.125 -2.75 C-9.25129648 -3.32337688 -4.19684366 -2.62302729 0 0 Z M-16 15 C-17.42662219 17.85324437 -17.31033868 19.83454549 -17 23 C-15.20006226 25.69990662 -13.916227 27.5418865 -11 29 C-7.12785818 29.43023798 -5.47503629 29.31669086 -2.1875 27.125 C0.39266816 24.61855093 0.91717964 23.74538327 1.3125 20.1875 C0.92835642 16.2692355 -0.29256317 14.78706733 -3 12 C-8.2981842 9.3509079 -12.0084938 11.12253683 -16 15 Z " fill="#174768" transform="translate(315,14)"/>
<path d="M0 0 C4.25899061 3.09106123 7.24291464 7.42015018 8.89453125 12.375 C8.89453125 16.335 8.89453125 20.295 8.89453125 24.375 C-0.34546875 24.705 -9.58546875 25.035 -19.10546875 25.375 C-19.10546875 26.035 -19.10546875 26.695 -19.10546875 27.375 C-17.52533658 27.62528811 -15.94104569 27.84940946 -14.35546875 28.0625 C-13.03289062 28.25392578 -13.03289062 28.25392578 -11.68359375 28.44921875 C-9.04507345 28.62582199 -9.04507345 28.62582199 -7.19921875 26.90625 C-4.22913138 24.73409655 -1.98152125 25.07871843 1.64453125 25.1875 C2.815 25.21457031 3.98546875 25.24164063 5.19140625 25.26953125 C6.0834375 25.30433594 6.97546875 25.33914062 7.89453125 25.375 C6.96729384 31.91967567 4.75721324 35.19474885 -0.48046875 39.1875 C-6.26810734 42.60155647 -12.62231266 42.29900122 -19.10546875 41.375 C-25.48220885 39.17542826 -29.80440266 34.12045413 -33.10546875 28.375 C-35.40230256 21.24641214 -34.42471942 14.42472878 -31.42578125 7.671875 C-28.00631119 1.72321112 -22.86449093 -1.36755809 -16.36328125 -3.21875 C-10.45353566 -4.28209523 -5.23221298 -2.8070255 0 0 Z M-19.10546875 11.375 C-19.10546875 12.035 -19.10546875 12.695 -19.10546875 13.375 C-14.48546875 13.375 -9.86546875 13.375 -5.10546875 13.375 C-8.59000427 9.05153351 -8.59000427 9.05153351 -12.66796875 9 C-16.22332619 9.12048643 -16.22332619 9.12048643 -19.10546875 11.375 Z " fill="#174566" transform="translate(391.10546875,14.625)"/>
<path d="M0 0 C4.90395107 4.4699731 7.59099458 8.84603875 8.25 15.5390625 C8.53056738 21.90443497 7.87976286 26.83075328 4 32 C-0.098735 36.26991187 -4.15349448 39.69852281 -10.171875 40.3359375 C-23.60085961 40.48254214 -23.60085961 40.48254214 -29 36 C-33.83326922 31.00417688 -36.94547735 25.74347059 -37.02734375 18.62109375 C-36.62490456 11.86217908 -35.1232437 6.11631855 -30.23828125 1.2421875 C-20.8952205 -6.35707998 -9.98872473 -6.85176986 0 0 Z M-22 13 C-22.98509508 15.72751759 -23.28058156 18.11401821 -23 21 C-21.67838573 24.06873898 -21.67838573 24.06873898 -19 26 C-15.16833389 27.11466651 -12.95744039 27.34042325 -9.1875 26 C-6.12752189 23.20230573 -5.55333454 21.0808422 -5 17 C-6.13103196 13.66973922 -7.02375866 11.71591032 -9.875 9.625 C-15.20311876 8.05790625 -18.21668771 8.79631967 -22 13 Z " fill="#174667" transform="translate(174,16)"/>
<path d="M0 0 C4.97061183 4.04584684 5.58273563 5.55891375 6.6875 12.1875 C2.0675 12.1875 -2.5525 12.1875 -7.3125 12.1875 C-7.3125 11.5275 -7.3125 10.8675 -7.3125 10.1875 C-8.9625 10.1875 -10.6125 10.1875 -12.3125 10.1875 C-11.46484659 12.45992804 -11.46484659 12.45992804 -8.80078125 13.08203125 C-7.22876953 13.53642578 -7.22876953 13.53642578 -5.625 14 C3.24088793 16.90252284 3.24088793 16.90252284 6.6875 21.1875 C7.87698805 25.55616521 8.01132904 29.56835478 7.125 34 C4.75857506 37.60108143 1.56034647 40.25107676 -2.3125 42.1875 C-8.44768604 42.66730301 -14.25786774 43.10854205 -19.9375 40.5625 C-26.23406863 34.26593137 -26.23406863 34.26593137 -26.4140625 29.49609375 C-26.38054687 28.73425781 -26.34703125 27.97242187 -26.3125 27.1875 C-24.20896505 27.1064794 -22.10454048 27.04830093 -20 27 C-18.82824219 26.96519531 -17.65648438 26.93039063 -16.44921875 26.89453125 C-12.93855438 27.22242643 -12.54133117 27.69722236 -10.3125 30.1875 C-8.9925 30.1875 -7.6725 30.1875 -6.3125 30.1875 C-6.6425 29.1975 -6.9725 28.2075 -7.3125 27.1875 C-10.16174 25.89042534 -10.16174 25.89042534 -13.5625 24.8125 C-22.3997093 21.55668605 -22.3997093 21.55668605 -25.3125 17.1875 C-26.5620926 12.97012499 -26.47339271 10.71487056 -25.1875 6.5 C-22.51100114 1.77151868 -20.02215738 -0.13508859 -15 -2.125 C-9.21042121 -3.20441299 -5.19249211 -2.84117493 0 0 Z " fill="#00A3A9" transform="translate(91.3125,13.8125)"/>
<path d="M0 0 C4.97061183 4.04584684 5.58273563 5.55891375 6.6875 12.1875 C2.0675 12.1875 -2.5525 12.1875 -7.3125 12.1875 C-7.3125 11.5275 -7.3125 10.8675 -7.3125 10.1875 C-8.9625 10.1875 -10.6125 10.1875 -12.3125 10.1875 C-11.46484659 12.45992804 -11.46484659 12.45992804 -8.80078125 13.08203125 C-7.22876953 13.53642578 -7.22876953 13.53642578 -5.625 14 C-0.40798287 15.66447689 2.92325575 17.21978309 6.6875 21.1875 C8.12569559 25.50208677 8.11594233 29.3880422 7.0625 33.8125 C4.8648354 37.60846613 1.62777886 40.21736057 -2.3125 42.1875 C-15.69051685 43.23372952 -15.69051685 43.23372952 -20 40.4375 C-24.49117687 36.06770629 -25.69872674 33.57074195 -26.3125 27.1875 C-24.20896505 27.1064794 -22.10454048 27.04830093 -20 27 C-18.82824219 26.96519531 -17.65648438 26.93039063 -16.44921875 26.89453125 C-13.3125 27.1875 -13.3125 27.1875 -11.39453125 28.69921875 C-10.85892578 29.43591797 -10.85892578 29.43591797 -10.3125 30.1875 C-8.9925 29.5275 -7.6725 28.8675 -6.3125 28.1875 C-7.09753906 27.89617188 -7.88257812 27.60484375 -8.69140625 27.3046875 C-21.17385354 22.43423567 -21.17385354 22.43423567 -25.3125 17.1875 C-26.92503701 12.63445433 -26.25878202 9.54346452 -24.3125 5.1875 C-21.63447026 0.58128886 -18.64044709 -0.94671061 -13.68359375 -2.37109375 C-8.51969498 -3.33241263 -4.66402839 -2.55201553 0 0 Z " fill="#174668" transform="translate(129.3125,13.8125)"/>
<path d="M0 0 C2.5625 2.0625 2.5625 2.0625 4 5 C3.93611417 8.70537805 3.79259706 11.01717965 1.4375 13.9375 C0.963125 14.288125 0.48875 14.63875 0 15 C0.48895752 15.32653564 0.97791504 15.65307129 1.48168945 15.98950195 C3.83533067 19.10611804 3.36812321 22.42102407 3.29296875 26.16796875 C3.28872391 26.96278152 3.28447906 27.7575943 3.28010559 28.57649231 C3.2633193 31.11384021 3.22566824 33.65039238 3.1875 36.1875 C3.17245305 37.90819165 3.15876466 39.62889576 3.14648438 41.34960938 C3.11341607 45.56671262 3.06163495 49.78322142 3 54 C-1.671875 55.15625 -1.671875 55.15625 -4.625 53.75 C-7.95226357 51.2983321 -9.67657397 49.97027808 -11 46 C-11.08378628 43.7161483 -11.10729915 41.429899 -11.09765625 39.14453125 C-11.0962413 38.48289474 -11.09482635 37.82125824 -11.09336853 37.13957214 C-11.08777996 35.03050172 -11.07522965 32.92153823 -11.0625 30.8125 C-11.05748352 29.38086091 -11.05292087 27.94922015 -11.04882812 26.51757812 C-11.0378143 23.01168412 -11.02055755 19.5058525 -11 16 C-10.34 15.67 -9.68 15.34 -9 15 C-9.48597656 14.5978125 -9.97195313 14.195625 -10.47265625 13.78125 C-12.83957701 11.02085136 -12.48237083 8.60382251 -12.33984375 5.09765625 C-12 3 -12 3 -10.5 0.9375 C-6.91459416 -0.40702719 -3.76910197 -0.80931637 0 0 Z " fill="#00A1A6" transform="translate(12,0)"/>
<path d="M0 0 C0 4.62 0 9.24 0 14 C-1.7015625 14.4640625 -1.7015625 14.4640625 -3.4375 14.9375 C-6.78775099 15.62924531 -6.78775099 15.62924531 -8 17 C-8.15806531 18.92478813 -8.251135 20.8549921 -8.31640625 22.78515625 C-8.35830078 23.95498047 -8.40019531 25.12480469 -8.44335938 26.33007812 C-8.48267578 27.56177734 -8.52199219 28.79347656 -8.5625 30.0625 C-8.60568359 31.29806641 -8.64886719 32.53363281 -8.69335938 33.80664062 C-8.79984198 36.87097335 -8.90185424 39.93539073 -9 43 C-14.26338152 42.38150628 -17.22615662 41.88166747 -21 38 C-23.17302224 33.80162291 -23.2326285 30.19487652 -23.1953125 25.51171875 C-23.1924826 24.80852005 -23.18965271 24.10532135 -23.18673706 23.3808136 C-23.17560151 21.14953108 -23.15050997 18.91865983 -23.125 16.6875 C-23.1149616 15.16862562 -23.10583726 13.6497449 -23.09765625 12.13085938 C-23.07568413 8.42044079 -23.04120047 4.71026058 -23 1 C-18 1 -13 1 -8 1 C-6.515 0.4740625 -6.515 0.4740625 -5 -0.0625 C-2 -1 -2 -1 0 0 Z " fill="#184768" transform="translate(355,12)"/>
<path d="M0 0 C2.5625 2.0625 2.5625 2.0625 4 5 C4.07481382 9.26438773 3.64839572 11.23718151 0.875 14.5 C-2.91613014 16.47798094 -4.92797973 16.13111674 -9 15 C-11.14151917 13.37522791 -11.89935883 12.50048582 -12.43359375 9.84375 C-12.44398254 3.61047599 -12.44398254 3.61047599 -10.5 0.9375 C-6.91459416 -0.40702719 -3.76910197 -0.80931637 0 0 Z " fill="#CA3333" transform="translate(12,0)"/>
</svg>
