<?xml version="1.0" encoding="UTF-8"?>
<svg version="1.1" xmlns="http://www.w3.org/2000/svg" width="474" height="83">
<path d="M0 0 C156.42 0 312.84 0 474 0 C474 27.39 474 54.78 474 83 C317.58 83 161.16 83 0 83 C0 55.61 0 28.22 0 0 Z " fill="#FBFBFB" transform="translate(0,0)"/>
<path d="M0 0 C13.2 0 26.4 0 40 0 C40 0.66 40 1.32 40 2 C42.31 2.33 44.62 2.66 47 3 C47 8.28 47 13.56 47 19 C47.66 19 48.32 19 49 19 C48.7215625 17.824375 48.7215625 17.824375 48.4375 16.625 C48 14 48 14 49 12 C53.28389502 12.49429558 56.16636489 14.93913943 59 18 C66.6366078 28.42209179 68.04423739 37.33943235 67 50 C65.33557493 59.21835422 58.40266474 66.52468091 52 73 C50.34403882 74.01762977 48.68017951 75.02287433 47 76 C46.21733851 78.46839393 46 80.42825366 46 83 C30.82 83 15.64 83 0 83 C0 55.61 0 28.22 0 0 Z " fill="#A1C140" transform="translate(0,0)"/>
<path d="M0 0 C0.75414185 -0.00524185 1.50828369 -0.0104837 2.28527832 -0.0158844 C3.87197646 -0.02227774 5.45872218 -0.02100257 7.04541016 -0.01245117 C9.46212643 -0.00392961 11.87648478 -0.03275428 14.29296875 -0.06445312 C15.84114513 -0.06606522 17.38932566 -0.06548744 18.9375 -0.0625 C19.65329224 -0.07373398 20.36908447 -0.08496796 21.10656738 -0.09654236 C26.18898623 -0.02652116 29.03673738 1.27373084 32.96875 4.43359375 C36.94169028 8.95365504 36.48455706 14.1528899 36.46875 19.87109375 C36.49710937 20.79986328 36.52546875 21.72863281 36.5546875 22.68554688 C36.56728973 27.11207863 36.50342158 30.41105767 33.6875 33.96875 C28.81639847 38.38493544 25.12834976 38.74200134 18.66015625 38.734375 C17.85642075 38.73866013 17.05268524 38.74294525 16.22459412 38.74736023 C14.52758728 38.75309367 12.83055588 38.75361105 11.13354492 38.74926758 C8.54367956 38.74610891 5.95495849 38.76957344 3.36523438 38.79492188 C1.7135431 38.79719518 0.06184877 38.79789822 -1.58984375 38.796875 C-2.36081894 38.80608475 -3.13179413 38.81529449 -3.9261322 38.82478333 C-8.47760272 38.78581294 -11.42366476 38.26818539 -15.03125 35.43359375 C-18.5839775 30.33383611 -18.51719328 25.42294533 -18.46875 19.43359375 C-18.48873047 18.55703125 -18.50871094 17.68046875 -18.52929688 16.77734375 C-18.52510037 11.20438786 -17.94797694 7.7087566 -14.03125 3.43359375 C-9.3704919 0.55573804 -5.36662303 -0.02200983 0 0 Z " fill="#080808" transform="translate(296.03125,19.56640625)"/>
<path d="M0 0 C0.99174728 0.00424484 1.98349457 0.00848969 3.0052948 0.01286316 C6.1639656 0.02961752 9.32199172 0.06726427 12.48046875 0.10546875 C14.62564181 0.12051976 16.7708249 0.13420743 18.91601562 0.14648438 C24.16691398 0.17951052 29.41733217 0.231271 34.66796875 0.29296875 C34.66796875 3.59296875 34.66796875 6.89296875 34.66796875 10.29296875 C20.14796875 10.29296875 5.62796875 10.29296875 -9.33203125 10.29296875 C-9.33203125 11.61296875 -9.33203125 12.93296875 -9.33203125 14.29296875 C5.18796875 14.29296875 19.70796875 14.29296875 34.66796875 14.29296875 C34.66796875 17.59296875 34.66796875 20.89296875 34.66796875 24.29296875 C20.14796875 24.29296875 5.62796875 24.29296875 -9.33203125 24.29296875 C-9.33203125 25.61296875 -9.33203125 26.93296875 -9.33203125 28.29296875 C5.18796875 28.29296875 19.70796875 28.29296875 34.66796875 28.29296875 C34.66796875 31.59296875 34.66796875 34.89296875 34.66796875 38.29296875 C28.35085616 38.36719815 22.03399821 38.42160889 15.71655273 38.45776367 C13.56807024 38.4728379 11.41961845 38.49330064 9.27124023 38.51928711 C6.18074967 38.55572989 3.09066644 38.57270894 0 38.5859375 C-0.95851364 38.60142136 -1.91702728 38.61690521 -2.90458679 38.63285828 C-7.86796785 38.63410714 -11.33269071 38.58133715 -15.33203125 35.29296875 C-19.86332893 30.20301793 -19.94654164 25.78189063 -19.83203125 19.29296875 C-19.8475 18.41640625 -19.86296875 17.53984375 -19.87890625 16.63671875 C-19.84529907 11.05792672 -19.18008955 7.6154452 -15.33203125 3.29296875 C-10.60814483 -0.59114131 -5.81527562 -0.09394013 0 0 Z " fill="#0A0A0A" transform="translate(174.33203125,19.70703125)"/>
<path d="M0 0 C2.43384116 1.68013551 2.73483694 3.54998298 3.81640625 6.25390625 C4.43644531 6.55683594 5.05648438 6.85976563 5.6953125 7.171875 C8.21043087 8.4549096 9.16025531 9.75759893 10.75390625 12.06640625 C12.61422301 14.67273836 14.34350582 16.78100582 16.62890625 19.06640625 C18.81640625 21.25390625 18.81640625 21.25390625 19.81640625 24.25390625 C20.80640625 24.58390625 21.79640625 24.91390625 22.81640625 25.25390625 C25.81640625 28.69835069 25.81640625 28.69835069 25.81640625 31.25390625 C26.47640625 31.25390625 27.13640625 31.25390625 27.81640625 31.25390625 C27.56890625 29.58328125 27.56890625 29.58328125 27.31640625 27.87890625 C26.4212881 20.04977429 26.74002867 12.12079679 26.81640625 4.25390625 C34.14669058 7.62397341 36.52832894 13.34133181 39.21484375 20.5703125 C39.87411715 23.51135684 39.61798987 25.37549234 38.81640625 28.25390625 C38.15640625 28.25390625 37.49640625 28.25390625 36.81640625 28.25390625 C36.81640625 28.91390625 36.81640625 29.57390625 36.81640625 30.25390625 C36.15640625 30.25390625 35.49640625 30.25390625 34.81640625 30.25390625 C34.81640625 30.91390625 34.81640625 31.57390625 34.81640625 32.25390625 C34.15640625 32.25390625 33.49640625 32.25390625 32.81640625 32.25390625 C32.56890625 32.89328125 32.32140625 33.53265625 32.06640625 34.19140625 C30.81640625 36.25390625 30.81640625 36.25390625 28.69140625 37.00390625 C28.07265625 37.08640625 27.45390625 37.16890625 26.81640625 37.25390625 C26.81640625 37.91390625 26.81640625 38.57390625 26.81640625 39.25390625 C24.13360217 40.12604391 21.44685421 40.97666979 18.75390625 41.81640625 C17.6256543 42.18668945 17.6256543 42.18668945 16.47460938 42.56445312 C11.57131034 44.07152772 7.92269343 44.54174665 2.81640625 43.25390625 C0.31640625 41.19140625 0.31640625 41.19140625 -2.18359375 38.25390625 C-3.45384207 36.81588928 -4.72470089 35.3784114 -5.99609375 33.94140625 C-7.0603537 32.7137631 -8.12346669 31.4851201 -9.18359375 30.25390625 C-9.51359375 33.22390625 -9.84359375 36.19390625 -10.18359375 39.25390625 C-11.17359375 39.25390625 -12.16359375 39.25390625 -13.18359375 39.25390625 C-13.18359375 38.59390625 -13.18359375 37.93390625 -13.18359375 37.25390625 C-13.71984375 37.19203125 -14.25609375 37.13015625 -14.80859375 37.06640625 C-18.52386388 35.79539279 -21.20466196 34.68793495 -23.18359375 31.25390625 C-23.71066571 26.20369631 -23.52715187 21.3118453 -23.18359375 16.25390625 C-22.52359375 16.58390625 -21.86359375 16.91390625 -21.18359375 17.25390625 C-20.80847656 16.66222656 -20.43335938 16.07054688 -20.046875 15.4609375 C-8.21580449 -2.80718901 -8.21580449 -2.80718901 0 0 Z " fill="#D1E188" transform="translate(25.18359375,11.74609375)"/>
<path d="M0 0 C0.88061096 0.00015106 1.76122192 0.00030212 2.66851807 0.00045776 C4.08121979 0.01594162 4.08121979 0.01594162 5.52246094 0.03173828 C6.49342712 0.03456818 7.46439331 0.03739807 8.46478271 0.04031372 C11.56225979 0.05149786 14.65944644 0.07659936 17.75683594 0.10205078 C19.85839426 0.11208286 21.95995712 0.12120831 24.06152344 0.12939453 C29.21007263 0.15143145 34.35840506 0.18594933 39.50683594 0.22705078 C39.50683594 3.52705078 39.50683594 6.82705078 39.50683594 10.22705078 C24.98683594 10.22705078 10.46683594 10.22705078 -4.49316406 10.22705078 C-4.49316406 11.54705078 -4.49316406 12.86705078 -4.49316406 14.22705078 C10.35683594 14.22705078 25.20683594 14.22705078 40.50683594 14.22705078 C40.50683594 17.52705078 40.50683594 20.82705078 40.50683594 24.22705078 C25.98683594 24.22705078 11.46683594 24.22705078 -3.49316406 24.22705078 C-3.49316406 25.54705078 -3.49316406 26.86705078 -3.49316406 28.22705078 C11.02683594 28.22705078 25.54683594 28.22705078 40.50683594 28.22705078 C40.50683594 31.52705078 40.50683594 34.82705078 40.50683594 38.22705078 C34.2080339 38.30135607 27.90948855 38.3557268 21.61035156 38.3918457 C19.46870477 38.40690719 17.3270887 38.4273605 15.18554688 38.45336914 C12.10246182 38.48986806 9.01978556 38.5068038 5.93652344 38.52001953 C4.98317108 38.53550339 4.02981873 38.55098724 3.0475769 38.56694031 C-2.23662926 38.56827 -5.9272064 38.20148484 -10.49316406 35.22705078 C-14.75507405 30.67619774 -14.00781976 24.59665569 -13.99316406 18.72705078 C-14.02152344 17.69451172 -14.04988281 16.66197266 -14.07910156 15.59814453 C-14.09858554 8.04810183 -14.09858554 8.04810183 -11.21191406 4.13330078 C-7.36209389 1.43400158 -4.74733607 -0.02728354 0 0 Z " fill="#0A0A0A" transform="translate(410.4931640625,19.77294921875)"/>
<path d="M0 0 C0.96672134 0.00424484 1.93344269 0.00848969 2.92945862 0.01286316 C5.99623274 0.02956353 9.06233305 0.06719976 12.12890625 0.10546875 C14.21678734 0.12052675 16.3046788 0.1342132 18.39257812 0.14648438 C23.4924444 0.17943876 28.59181135 0.23116124 33.69140625 0.29296875 C33.69140625 3.59296875 33.69140625 6.89296875 33.69140625 10.29296875 C18.84140625 10.29296875 3.99140625 10.29296875 -11.30859375 10.29296875 C-11.30859375 11.61296875 -11.30859375 12.93296875 -11.30859375 14.29296875 C-10.16382568 14.26678467 -9.01905762 14.24060059 -7.83959961 14.21362305 C-3.57010641 14.12274778 0.69930226 14.06558471 4.96948242 14.01831055 C6.81337893 13.99325102 8.65717693 13.9591936 10.50073242 13.91577148 C13.15959031 13.8547391 15.81712906 13.82667405 18.4765625 13.8046875 C19.29351089 13.77888107 20.11045929 13.75307465 20.9521637 13.72648621 C27.0832142 13.72351878 30.04479022 15.28961451 34.69140625 19.29296875 C37.21509533 22.86590899 36.93564499 25.90018587 36.375 30.1015625 C35.19763457 33.87585969 32.94564462 35.16775186 29.69140625 37.29296875 C27.29558279 38.49088048 25.82363087 38.41364315 23.14990234 38.40649414 C22.20907806 38.40641861 21.26825378 38.40634308 20.29891968 38.40626526 C19.28117462 38.40110397 18.26342957 38.39594269 17.21484375 38.390625 C16.17445953 38.38921005 15.13407532 38.3877951 14.06216431 38.38633728 C10.73021604 38.38072741 7.3983343 38.36817322 4.06640625 38.35546875 C1.81119889 38.35045502 -0.44400953 38.34589189 -2.69921875 38.34179688 C-8.23570282 38.33075477 -13.772137 38.3134835 -19.30859375 38.29296875 C-19.30859375 35.32296875 -19.30859375 32.35296875 -19.30859375 29.29296875 C-4.12859375 29.29296875 11.05140625 29.29296875 26.69140625 29.29296875 C26.69140625 27.64296875 26.69140625 25.99296875 26.69140625 24.29296875 C24.92095947 24.32438965 24.92095947 24.32438965 23.11474609 24.35644531 C18.72033908 24.42904644 14.32598471 24.47484146 9.93115234 24.51269531 C8.031973 24.53276504 6.1328551 24.56002726 4.23388672 24.59472656 C1.49821786 24.64344984 -1.23663146 24.66598382 -3.97265625 24.68359375 C-4.81663971 24.70423889 -5.66062317 24.72488403 -6.53018188 24.74615479 C-12.97570975 24.74858782 -16.35780224 22.86301297 -21.24609375 18.60546875 C-22.98767541 14.8149675 -22.36747931 11.25100993 -21.30859375 7.29296875 C-16.33364488 0.02188963 -7.96670126 -0.13316739 0 0 Z " fill="#040404" transform="translate(236.30859375,19.70703125)"/>
<path d="M0 0 C9.1354456 2.75787037 15.82287725 11.26746501 22.3125 17.875 C23.28728738 18.85984343 24.26254471 19.84422194 25.23828125 20.828125 C27.60096075 23.21419737 29.95737229 25.60647347 32.3125 28 C32.6425 19.09 32.9725 10.18 33.3125 1 C36.6125 1 39.9125 1 43.3125 1 C43.3868839 5.46570449 43.44121171 9.93107684 43.47729492 14.3972168 C43.49234353 15.91518438 43.51278738 17.43310876 43.53881836 18.95092773 C43.57537653 21.13796677 43.59226523 23.32442896 43.60546875 25.51171875 C43.6211792 26.82615967 43.63688965 28.14060059 43.65307617 29.49487305 C43.28979199 33.23370533 42.59247856 35.05373547 40.3125 38 C36.7126586 40.39989427 35.56151872 40.64136132 31.3125 40 C28.42518621 38.25628893 25.8943016 36.16225884 23.3125 34 C22.0440625 33.071875 22.0440625 33.071875 20.75 32.125 C17.97610103 29.7067291 15.73558759 27.03250705 13.359375 24.23046875 C10.24030328 20.83163296 6.75600184 17.8786439 3.25390625 14.8828125 C2.61324219 14.26148438 1.97257812 13.64015625 1.3125 13 C1.3125 12.34 1.3125 11.68 1.3125 11 C0.6525 11 -0.0075 11 -0.6875 11 C-0.6875 20.24 -0.6875 29.48 -0.6875 39 C-3.6575 39 -6.6275 39 -9.6875 39 C-9.78651748 34.37359847 -9.85903649 29.74781613 -9.90722656 25.12060547 C-9.9273188 23.54725396 -9.95459799 21.97397692 -9.98925781 20.40087891 C-10.03788494 18.13685728 -10.06049135 15.87382427 -10.078125 13.609375 C-10.09877014 12.90818542 -10.11941528 12.20699585 -10.14068604 11.48455811 C-10.14222832 8.11343996 -9.95430848 6.3414184 -7.85058594 3.64941406 C-3.06464624 0 -3.06464624 0 0 0 Z " fill="#0D0D0D" transform="translate(106.6875,19)"/>
<path d="M0 0 C13.2 0 26.4 0 40 0 C40 0.66 40 1.32 40 2 C42.31 2.33 44.62 2.66 47 3 C47 8.28 47 13.56 47 19 C47.66 19 48.32 19 49 19 C48.79375 18.21625 48.5875 17.4325 48.375 16.625 C48.25125 15.75875 48.1275 14.8925 48 14 C48.66 13.34 49.32 12.68 50 12 C50 19.92 50 27.84 50 36 C46.28631113 34.76210371 45.22645819 33.14775123 43 30 C43 29.34 43 28.68 43 28 C42.34 28 41.68 28 41 28 C39.52230782 26.36567245 38.11730681 24.66523632 36.75 22.9375 C35.94433594 21.93976562 35.13867188 20.94203125 34.30859375 19.9140625 C32.94715894 18.1955678 31.59965307 16.46559613 30.28515625 14.7109375 C28.02108987 11.79227368 26.66678927 10.15280588 23 9.3125 C19.34388403 10.15035991 17.01353643 11.80833714 14 14 C13.34 14 12.68 14 12 14 C12 14.66 12 15.32 12 16 C11.29875 16.639375 10.5975 17.27875 9.875 17.9375 C5.77589545 21.81344413 3.53078733 27.03409085 1 32 C0.67 32 0.34 32 0 32 C0 21.44 0 10.88 0 0 Z " fill="#FDFCF8" transform="translate(0,0)"/>
<path d="M0 0 C18.15 0 36.3 0 55 0 C55 3.3 55 6.6 55 10 C47.41 10 39.82 10 32 10 C32 19.24 32 28.48 32 38 C29.03 38 26.06 38 23 38 C23 28.76 23 19.52 23 10 C15.41 10 7.82 10 0 10 C0 6.7 0 3.4 0 0 Z " fill="#0A0A0A" transform="translate(337,20)"/>
<path d="M0 0 C11.22 0 22.44 0 34 0 C34 5.94 34 11.88 34 18 C22.78 18 11.56 18 0 18 C0 12.06 0 6.12 0 0 Z " fill="#F8F8F8" transform="translate(288,30)"/>
<path d="M0 0 C3.86202169 1.93101085 4.7535266 2.64246285 7.125 5.9375 C10.78352144 10.84741112 14.86294041 15.26907695 19.05859375 19.71484375 C21 22 21 22 21 24 C21.66 24 22.32 24 23 24 C23.66 24.99 24.32 25.98 25 27 C25.61488281 26.7834375 26.22976562 26.566875 26.86328125 26.34375 C27.67152344 26.0653125 28.47976562 25.786875 29.3125 25.5 C30.11300781 25.2215625 30.91351563 24.943125 31.73828125 24.65625 C34 24 34 24 37 24 C36.4225 24.36351563 35.845 24.72703125 35.25 25.1015625 C34.13625 25.85566406 34.13625 25.85566406 33 26.625 C31.88625 27.35589844 31.88625 27.35589844 30.75 28.1015625 C28.32222274 30.30493909 28.32222274 30.30493909 29 36 C22.4 36 15.8 36 9 36 C9 35.34 9 34.68 9 34 C7.02 33.34 5.04 32.68 3 32 C2.67 30.35 2.34 28.7 2 27 C-0.31 26.67 -2.62 26.34 -5 26 C-5.33 25.01 -5.66 24.02 -6 23 C-6.66 23 -7.32 23 -8 23 C-8.33 21.35 -8.66 19.7 -9 18 C-6.5 19.375 -6.5 19.375 -4 21 C-4 21.66 -4 22.32 -4 23 C-3.01 23.33 -2.02 23.66 -1 24 C-0.67 16.08 -0.34 8.16 0 0 Z " fill="#EFF3E1" transform="translate(17,47)"/>
<path d="M0 0 C1.32102974 0.0001133 1.32102974 0.0001133 2.66874695 0.00022888 C3.61570938 0.00539017 4.56267181 0.01055145 5.53833008 0.01586914 C6.51071121 0.01728409 7.48309235 0.01869904 8.48493958 0.02015686 C11.59261137 0.02575722 14.70021129 0.03830977 17.80786133 0.05102539 C19.91398008 0.05604034 22.02009996 0.06060326 24.1262207 0.06469727 C29.29096197 0.07572677 34.45564946 0.09299164 39.62036133 0.11352539 C39.62036133 3.41352539 39.62036133 6.71352539 39.62036133 10.11352539 C24.77036133 10.11352539 9.92036133 10.11352539 -5.37963867 10.11352539 C-5.37963867 11.43352539 -5.37963867 12.75352539 -5.37963867 14.11352539 C7.49036133 14.11352539 20.36036133 14.11352539 33.62036133 14.11352539 C33.62036133 14.44352539 33.62036133 14.77352539 33.62036133 15.11352539 C20.42036133 15.11352539 7.22036133 15.11352539 -6.37963867 15.11352539 C-6.70963867 14.45352539 -7.03963867 13.79352539 -7.37963867 13.11352539 C-9.02963867 13.11352539 -10.67963867 13.11352539 -12.37963867 13.11352539 C-12.70963867 12.45352539 -13.03963867 11.79352539 -13.37963867 11.11352539 C-12.71963867 11.11352539 -12.05963867 11.11352539 -11.37963867 11.11352539 C-11.64776367 10.39165039 -11.91588867 9.66977539 -12.19213867 8.92602539 C-12.37963867 6.11352539 -12.37963867 6.11352539 -10.12963867 3.36352539 C-6.664473 0.52838984 -4.33570168 -0.01242321 0 0 Z " fill="#191919" transform="translate(230.379638671875,19.886474609375)"/>
<path d="M0 0 C3.31762559 0.86258265 5.50902604 1.5812281 8.125 3.8125 C8.4375 6.875 8.4375 6.875 8.125 9.8125 C8.01959074 12.02331851 8.01959074 12.02331851 9.125 14.8125 C7.145 15.8025 7.145 15.8025 5.125 16.8125 C3.74937146 15.52284824 2.41733607 14.18560707 1.125 12.8125 C1.125 12.1525 1.125 11.4925 1.125 10.8125 C0.465 10.8125 -0.195 10.8125 -0.875 10.8125 C-0.875 20.0525 -0.875 29.2925 -0.875 38.8125 C-3.845 38.8125 -6.815 38.8125 -9.875 38.8125 C-9.97401748 34.18609847 -10.04653649 29.56031613 -10.09472656 24.93310547 C-10.1148188 23.35975396 -10.14209799 21.78647692 -10.17675781 20.21337891 C-10.22538494 17.94935728 -10.24799135 15.68632427 -10.265625 13.421875 C-10.28627014 12.72068542 -10.30691528 12.01949585 -10.32818604 11.29705811 C-10.32972832 7.92593996 -10.14180848 6.1539184 -8.03808594 3.46191406 C-3.2224312 -0.21015856 -3.2224312 -0.21015856 0 0 Z " fill="#060606" transform="translate(106.875,19.1875)"/>
<path d="M0 0 C0.66 0 1.32 0 2 0 C2.98838433 2.0372203 3.96532252 4.07999607 4.9375 6.125 C5.48277344 7.26195312 6.02804688 8.39890625 6.58984375 9.5703125 C7.9103119 12.78186661 8.58784221 15.56709079 9 19 C9.66 19 10.32 19 11 19 C11.33 19.66 11.66 20.32 12 21 C15.02934491 21.65772428 15.02934491 21.65772428 18 22 C18.33 19.03 18.66 16.06 19 13 C19.33 13 19.66 13 20 13 C20.33 17.95 20.66 22.9 21 28 C22.65 28.66 24.3 29.32 26 30 C26 30.66 26 31.32 26 32 C17.42 32 8.84 32 0 32 C0 21.44 0 10.88 0 0 Z " fill="#FDFCFA" transform="translate(0,51)"/>
<path d="M0 0 C3.87525683 3.10020547 6.38072721 5.46662283 9.375 9.25 C12.70829134 13.42638514 16.13752914 17.43971373 19.78515625 21.34375 C21 23 21 23 21 26 C15.72 26 10.44 26 5 26 C5 25.34 5 24.68 5 24 C3.35 23.67 1.7 23.34 0 23 C0 15.41 0 7.82 0 0 Z " fill="#373838" transform="translate(21,57)"/>
<path d="M0 0 C7.33028433 3.37006716 9.71192269 9.08742556 12.3984375 16.31640625 C13.0577109 19.25745059 12.80158362 21.12158609 12 24 C11.34 24 10.68 24 10 24 C10 24.66 10 25.32 10 26 C9.34 26 8.68 26 8 26 C8 26.66 8 27.32 8 28 C7.34 28 6.68 28 6 28 C5.62875 28.9590625 5.62875 28.9590625 5.25 29.9375 C4 32 4 32 1.875 32.75 C1.25625 32.8325 0.6375 32.915 0 33 C0 33.66 0 34.32 0 35 C-0.66 34.67 -1.32 34.34 -2 34 C-1.34 33.01 -0.68 32.02 0 31 C0.66 31 1.32 31 2 31 C2 30.01 2 29.02 2 28 C0.35 28.33 -1.3 28.66 -3 29 C-3.66 27.02 -4.32 25.04 -5 23 C-5.99 23 -6.98 23 -8 23 C-8 22.34 -8 21.68 -8 21 C-7.01 20.67 -6.02 20.34 -5 20 C-1 24.75 -1 24.75 -1 27 C-0.34 27 0.32 27 1 27 C0.835 25.88625 0.67 24.7725 0.5 23.625 C-0.39511815 15.79586804 -0.07637758 7.86689054 0 0 Z M3 26 C2.67 26.66 2.34 27.32 2 28 C2.66 28 3.32 28 4 28 C3.67 27.34 3.34 26.68 3 26 Z " fill="#C4D76B" transform="translate(52,16)"/>
<path d="M0 0 C4.95 0 9.9 0 15 0 C15 0.66 15 1.32 15 2 C15.804375 2.144375 16.60875 2.28875 17.4375 2.4375 C20 3 20 3 21 4 C21.08700342 5.63472882 21.10701063 7.27314055 21.09765625 8.91015625 C21.09443359 9.89951172 21.09121094 10.88886719 21.08789062 11.90820312 C21.07951172 12.94912109 21.07113281 13.99003906 21.0625 15.0625 C21.05798828 16.10728516 21.05347656 17.15207031 21.04882812 18.22851562 C21.03699913 20.8190666 21.02051689 23.40950559 21 26 C14.62092782 20.8738023 14.62092782 20.8738023 12.1875 17.3125 C9.06374124 12.93090772 5.46292145 9.09386297 1.7578125 5.19921875 C0 3 0 3 0 0 Z " fill="#333434" transform="translate(25,0)"/>
<path d="M0 0 C1.98 0.99 3.96 1.98 6 3 C6.14611313 6.37453898 6.23433467 9.74825766 6.3125 13.125 C6.35439453 14.07632813 6.39628906 15.02765625 6.43945312 16.0078125 C6.57762908 23.96674751 6.57762908 23.96674751 3.66796875 27.6171875 C1 30 1 30 -2 31 C-2.185625 30.0409375 -2.185625 30.0409375 -2.375 29.0625 C-2.58125 28.381875 -2.7875 27.70125 -3 27 C-3.66 26.67 -4.32 26.34 -5 26 C-4.505 24.515 -4.505 24.515 -4 23 C-15.22 23 -26.44 23 -38 23 C-38 22.67 -38 22.34 -38 22 C-26.45 22 -14.9 22 -3 22 C-3.11846245 15.88179836 -3.11846245 15.88179836 -3.27026367 9.7644043 C-3.27775635 9.00039307 -3.28524902 8.23638184 -3.29296875 7.44921875 C-3.3086792 6.66893311 -3.32438965 5.88864746 -3.34057617 5.0847168 C-2.91847304 2.50096147 -1.98510058 1.63707833 0 0 Z " fill="#141414" transform="translate(326,26)"/>
<path d="M0 0 C0.33 0.99 0.66 1.98 1 3 C1.87591797 3.41958984 1.87591797 3.41958984 2.76953125 3.84765625 C5.87924002 5.45424835 7.50508307 7.72120257 9.6875 10.4375 C10.47511719 11.40558594 11.26273438 12.37367187 12.07421875 13.37109375 C14 16 14 16 15 19 C15.66 19 16.32 19 17 19 C18.21875 20.49609375 18.21875 20.49609375 19.5 22.4375 C21.2865363 25.22531847 21.2865363 25.22531847 24 27 C24 19.08 24 11.16 24 3 C29.82900343 5.91450171 33.36209393 9.01202656 36.875 14.5 C37.49117187 15.4384375 38.10734375 16.376875 38.7421875 17.34375 C40 20 40 20 39.6953125 22.34375 C39.46585938 22.8903125 39.23640625 23.436875 39 24 C37 23 37 23 35.75 19.375 C33.99251035 14.37291406 30.86149343 9.43074672 26 7 C26.33 15.91 26.66 24.82 27 34 C26.34 34 25.68 34 25 34 C23.6559907 32.00715862 22.32458708 30.00580329 21 28 C20.113125 27.113125 19.22625 26.22625 18.3125 25.3125 C16 23 16 23 15 20 C13.66833889 19.32999932 12.3347996 18.66372604 11 18 C9.40234375 16.16015625 9.40234375 16.16015625 7.9375 14.0625 C6.10871785 11.46727865 4.27472539 9.21223294 2 7 C0.98199424 5.68036291 -0.02248365 4.34990354 -1 3 C-2.41791408 3.45445964 -3.83428046 3.91374944 -5.25 4.375 C-6.03890625 4.63023438 -6.8278125 4.88546875 -7.640625 5.1484375 C-12.03820954 6.55490387 -12.03820954 6.55490387 -15.0546875 9.796875 C-15.36664062 10.52390625 -15.67859375 11.2509375 -16 12 C-17.02814938 13.75797562 -18.07046469 15.50772427 -19.125 17.25 C-19.66382813 18.14203125 -20.20265625 19.0340625 -20.7578125 19.953125 C-21.16773438 20.62859375 -21.57765625 21.3040625 -22 22 C-22.97447447 18.91747872 -23.08781723 18.2172321 -21.8125 15.0625 C-20.06800053 12.11489745 -18.30754212 9.53085265 -16 7 C-15.34 7 -14.68 7 -14 7 C-14 6.34 -14 5.68 -14 5 C-9.67712094 1.37931449 -5.74627325 -0.71828416 0 0 Z " fill="#ADBB6F" transform="translate(26,9)"/>
<path d="M0 0 C0.66 0 1.32 0 2 0 C2 5.28 2 10.56 2 16 C2.66 16 3.32 16 4 16 C3.79375 15.21625 3.5875 14.4325 3.375 13.625 C3.25125 12.75875 3.1275 11.8925 3 11 C3.66 10.34 4.32 9.68 5 9 C5 16.92 5 24.84 5 33 C1.28631113 31.76210371 0.22645819 30.14775123 -2 27 C-2 26.34 -2 25.68 -2 25 C-2.66 25 -3.32 25 -4 25 C-5.47769218 23.36567245 -6.88269319 21.66523632 -8.25 19.9375 C-9.05566406 18.93976562 -9.86132812 17.94203125 -10.69140625 16.9140625 C-12.05284106 15.1955678 -13.40034693 13.46559613 -14.71484375 11.7109375 C-16.97891013 8.79227368 -18.33321073 7.15280588 -22 6.3125 C-25.65611597 7.15035991 -27.98646357 8.80833714 -31 11 C-31.66 11 -32.32 11 -33 11 C-33 11.66 -33 12.32 -33 13 C-33.66 13 -34.32 13 -35 13 C-35.125 10.625 -35.125 10.625 -35 8 C-32.37548383 5.37548383 -30.5122172 5.4167132 -26.875 4.875 C-25.77929688 4.70742187 -24.68359375 4.53984375 -23.5546875 4.3671875 C-22.71164063 4.24601563 -21.86859375 4.12484375 -21 4 C-21 3.01 -21 2.02 -21 1 C-14.68869307 1.68348255 -10.80951678 8.48257301 -7 13 C-5.30492307 15.15026793 -3.65884256 17.31775395 -2.05859375 19.5390625 C-1.07432178 20.9782422 -1.07432178 20.9782422 0 22 C0 14.74 0 7.48 0 0 Z " fill="#E8EBE0" transform="translate(45,3)"/>
<path d="M0 0 C2.57195349 1.71463566 3.56613546 3.45332405 4.86328125 6.2421875 C5.05078125 9.0546875 5.05078125 9.0546875 4.86328125 11.2421875 C4.20328125 11.2421875 3.54328125 11.2421875 2.86328125 11.2421875 C2.86328125 10.2521875 2.86328125 9.2621875 2.86328125 8.2421875 C1.87328125 8.2421875 0.88328125 8.2421875 -0.13671875 8.2421875 C-0.46671875 6.9221875 -0.79671875 5.6021875 -1.13671875 4.2421875 C-4.64258149 5.09917617 -6.64928735 5.63710025 -8.94921875 8.4921875 C-10.21806248 11.43056244 -10.76799779 14.07118722 -11.13671875 17.2421875 C-12.12671875 17.2421875 -13.11671875 17.2421875 -14.13671875 17.2421875 C-14.79671875 17.5721875 -15.45671875 17.9021875 -16.13671875 18.2421875 C-15.47671875 18.9021875 -14.81671875 19.5621875 -14.13671875 20.2421875 C-14.51171875 22.3671875 -14.51171875 22.3671875 -15.13671875 24.2421875 C-15.46671875 23.5821875 -15.79671875 22.9221875 -16.13671875 22.2421875 C-16.79671875 24.2221875 -17.45671875 26.2021875 -18.13671875 28.2421875 C-18.79671875 28.2421875 -19.45671875 28.2421875 -20.13671875 28.2421875 C-21.32962541 21.32332886 -20.98653 17.36773065 -17.32421875 11.1796875 C-13.80424633 6.45286739 -6.81669164 -2.41762007 0 0 Z " fill="#E6F1C0" transform="translate(25.13671875,11.7578125)"/>
<path d="M0 0 C2.875 0.625 2.875 0.625 6 2 C7.375 5.125 7.375 5.125 8 8 C8.33 6.35 8.66 4.7 9 3 C10.32 3 11.64 3 13 3 C13 6.63 13 10.26 13 14 C12.34 14 11.68 14 11 14 C10.67 13.01 10.34 12.02 10 11 C9.67 11.99 9.34 12.98 9 14 C8.01 13.67 7.02 13.34 6 13 C5.3125 10.9375 5.3125 10.9375 5 9 C4.67 10.65 4.34 12.3 4 14 C3.443125 13.814375 2.88625 13.62875 2.3125 13.4375 C-0.399133 12.92448835 -2.34371039 13.3359276 -5 14 C-5 11.03 -5 8.06 -5 5 C-5.99 5 -6.98 5 -8 5 C-8 4.01 -8 3.02 -8 2 C-6.865625 1.855625 -5.73125 1.71125 -4.5625 1.5625 C-1.19222799 1.38828522 -1.19222799 1.38828522 0 0 Z " fill="#F9F9F9" transform="translate(461,8)"/>
<path d="M0 0 C0.33 0 0.66 0 1 0 C1 1.65 1 3.3 1 5 C2.65 4.67 4.3 4.34 6 4 C6.33 4.99 6.66 5.98 7 7 C6.67 7.66 6.34 8.32 6 9 C5.73438568 12.2437143 5.76843275 15.49661931 5.75 18.75 C5.729375 19.64460938 5.70875 20.53921875 5.6875 21.4609375 C5.65621107 26.76441052 6.09125034 30.37661897 9 35 C4.25 36.125 4.25 36.125 2 35 C1.34 35.66 0.68 36.32 0 37 C-0.66 36.67 -1.32 36.34 -2 36 C-1.84152588 35.49243164 -1.68305176 34.98486328 -1.51977539 34.46191406 C-0.82830633 31.18677364 -0.7656084 27.94303931 -0.68359375 24.609375 C-0.66281265 23.90476135 -0.64203156 23.20014771 -0.62062073 22.47418213 C-0.55546163 20.23288319 -0.49639752 17.99147136 -0.4375 15.75 C-0.39428274 14.22655103 -0.35066743 12.70311329 -0.30664062 11.1796875 C-0.19981509 7.45324409 -0.09845361 3.72667506 0 0 Z " fill="#F0F0F0" transform="translate(150,20)"/>
<path d="M0 0 C2.50391124 2.4667857 4.88896417 4.85868168 7.0625 7.625 C8.88763608 10.05671298 8.88763608 10.05671298 11.25 11.6875 C11.8275 12.120625 12.405 12.55375 13 13 C13 13.66 13 14.32 13 15 C13.99 15.33 14.98 15.66 16 16 C15.01 16.99 14.02 17.98 13 19 C12.54109375 18.46890625 12.0821875 17.9378125 11.609375 17.390625 C10.99578125 16.68421875 10.3821875 15.9778125 9.75 15.25 C9.14671875 14.55390625 8.5434375 13.8578125 7.921875 13.140625 C6.02215083 11.02467206 4.01074722 9.01074722 2 7 C2 15.25 2 23.5 2 32 C0.68 31.34 -0.64 30.68 -2 30 C-2 29.34 -2 28.68 -2 28 C-2.86625 27.690625 -2.86625 27.690625 -3.75 27.375 C-6.81410544 25.50249112 -8.15539968 23.03041481 -10 20 C-9.01 19.67 -8.02 19.34 -7 19 C-6.34 20.32 -5.68 21.64 -5 23 C-4.01 23 -3.02 23 -2 23 C0.45153075 18.26101734 0.23154206 13.87937667 0.125 8.6875 C0.11597656 7.85154297 0.10695313 7.01558594 0.09765625 6.15429688 C0.07420989 4.10274031 0.03834266 2.05133223 0 0 Z " fill="#A6BD57" transform="translate(15,40)"/>
<path d="M0 0 C4 2 4 2 5.25 4.4375 C6 7 6 7 6 10 C5.34 10 4.68 10 4 10 C4 17.26 4 24.52 4 32 C3.67 32 3.34 32 3 32 C2.67 30.35 2.34 28.7 2 27 C-0.31 26.67 -2.62 26.34 -5 26 C-5.33 25.01 -5.66 24.02 -6 23 C-6.66 23 -7.32 23 -8 23 C-8.33 21.35 -8.66 19.7 -9 18 C-6.5 19.375 -6.5 19.375 -4 21 C-4 21.66 -4 22.32 -4 23 C-3.01 23.33 -2.02 23.66 -1 24 C-0.67 16.08 -0.34 8.16 0 0 Z " fill="#F9FDE8" transform="translate(17,47)"/>
<path d="M0 0 C4.43970742 1.39533662 6.90515679 3.56128532 10 7 C10.33 7.66 10.66 8.32 11 9 C10.0625 11.625 10.0625 11.625 9 14 C4.56508746 14 4.16311526 13.75052855 1.1875 10.8125 C-2 7.45509062 -2 7.45509062 -2 4.1875 C-1.35687527 2.78066465 -0.69177961 1.38355922 0 0 Z " fill="#040404" transform="translate(119,33)"/>
<path d="M0 0 C6.03331362 4.98404168 11.5184171 10.41915303 17 16 C16.34 16.66 15.68 17.32 15 18 C12.09197539 15.78071806 10.04687238 14.07030857 8 11 C6.68 11 5.36 11 4 11 C3.67 12.32 3.34 13.64 3 15 C1.68 14.67 0.36 14.34 -1 14 C-1 12.33333333 -1 10.66666667 -1 9 C-1.20625 8.401875 -1.4125 7.80375 -1.625 7.1875 C-2.12173209 4.28989617 -1.23395825 2.61308807 0 0 Z " fill="#111111" transform="translate(115,24)"/>
<path d="M0 0 C1.65 0 3.3 0 5 0 C4.34 1.65 3.68 3.3 3 5 C3.66 5 4.32 5 5 5 C5.33 4.34 5.66 3.68 6 3 C6 3.99 6 4.98 6 6 C7.9375006 8.18777466 7.9375006 8.18777466 10 10 C10.33 9.34 10.66 8.68 11 8 C14.2542015 10.83430453 15.5206753 12.68607774 16 17 C16.99 17.33 17.98 17.66 19 18 C20.1875 20.5625 20.1875 20.5625 21 23 C18 23 18 23 16.23828125 21.57885742 C15.60277344 20.92763916 14.96726562 20.2764209 14.3125 19.60546875 C13.61382812 18.89712891 12.91515625 18.18878906 12.1953125 17.45898438 C11.47085938 16.70939453 10.74640625 15.95980469 10 15.1875 C9.27554688 14.44951172 8.55109375 13.71152344 7.8046875 12.95117188 C6.45360208 11.57391229 5.10561551 10.19360117 3.76171875 8.80932617 C2.62351048 7.64035978 1.45402398 6.50071529 0.25 5.3996582 C-0.1625 4.937771 -0.575 4.47588379 -1 4 C-0.6875 1.8125 -0.6875 1.8125 0 0 Z " fill="#F1F1F1" transform="translate(113,17)"/>
<path d="M0 0 C0.66 0 1.32 0 2 0 C2 5.28 2 10.56 2 16 C2.66 16 3.32 16 4 16 C3.690625 14.824375 3.690625 14.824375 3.375 13.625 C3.25125 12.75875 3.1275 11.8925 3 11 C3.66 10.34 4.32 9.68 5 9 C5 16.92 5 24.84 5 33 C4.01 32.67 3.02 32.34 2 32 C-1 25.88888889 -1 25.88888889 -1 23 C-0.34 23 0.32 23 1 23 C0.67 15.41 0.34 7.82 0 0 Z " fill="#D8DDC5" transform="translate(45,3)"/>
<path d="M0 0 C1.32 0 2.64 0 4 0 C4.66 1.65 5.32 3.3 6 5 C6.33 3.35 6.66 1.7 7 0 C8.32 0 9.64 0 11 0 C11 3.63 11 7.26 11 11 C10.34 11 9.68 11 9 11 C8.67 10.01 8.34 9.02 8 8 C7.67 8.99 7.34 9.98 7 11 C6.01 10.67 5.02 10.34 4 10 C3.3125 7.9375 3.3125 7.9375 3 6 C2.67 7.65 2.34 9.3 2 11 C1.34 11 0.68 11 0 11 C0 7.37 0 3.74 0 0 Z " fill="#2B2B2B" transform="translate(463,11)"/>
<path d="M0 0 C2.77982621 1.3899131 2.87463341 3.18658353 4 6 C4.66 6.33 5.32 6.66 6 7 C6.33 6.01 6.66 5.02 7 4 C7.66 4 8.32 4 9 4 C8.67 7.3 8.34 10.6 8 14 C6.68 14.33 5.36 14.66 4 15 C3.731875 14.360625 3.46375 13.72125 3.1875 13.0625 C2.11332248 10.66868314 2.11332248 10.66868314 -1 10 C-1.9765625 3.9453125 -1.9765625 3.9453125 -2 2 C-1.34 1.34 -0.68 0.68 0 0 Z " fill="#9EC136" transform="translate(6,49)"/>
<path d="M0 0 C0.33 0 0.66 0 1 0 C1 5.28 1 10.56 1 16 C2.32 16 3.64 16 5 16 C4.88541307 17.43836751 4.75790884 18.87570966 4.625 20.3125 C4.55539063 21.11300781 4.48578125 21.91351563 4.4140625 22.73828125 C4 25 4 25 2 28 C-0.625 28.6875 -0.625 28.6875 -3 29 C-3.66 27.02 -4.32 25.04 -5 23 C-5.99 23 -6.98 23 -8 23 C-8 22.34 -8 21.68 -8 21 C-7.01 20.67 -6.02 20.34 -5 20 C-1 24.75 -1 24.75 -1 27 C-0.34 27 0.32 27 1 27 C0.835 25.88625 0.67 24.7725 0.5 23.625 C-0.39511815 15.79586804 -0.07637758 7.86689054 0 0 Z " fill="#BED65E" transform="translate(52,16)"/>
<path d="M0 0 C5.82900343 2.91450171 9.36209393 6.01202656 12.875 11.5 C13.49117187 12.4384375 14.10734375 13.376875 14.7421875 14.34375 C16 17 16 17 15.6953125 19.34375 C15.46585938 19.8903125 15.23640625 20.436875 15 21 C13 20 13 20 11.75 16.375 C9.99251035 11.37291406 6.86149343 6.43074672 2 4 C1.67 10.93 1.34 17.86 1 25 C0.34 24.67 -0.32 24.34 -1 24 C-0.67 16.08 -0.34 8.16 0 0 Z " fill="#B2C178" transform="translate(50,12)"/>
<path d="M0 0 C2.475 0.495 2.475 0.495 5 1 C5.33 2.98 5.66 4.96 6 7 C6.99 7.33 7.98 7.66 9 8 C9 8.66 9 9.32 9 10 C9.66 10 10.32 10 11 10 C12.25195279 15.61966777 11.97361999 20.98469745 11.6875 26.6875 C11.65205078 27.63689453 11.61660156 28.58628906 11.58007812 29.56445312 C11.53689453 30.47517578 11.49371094 31.38589844 11.44921875 32.32421875 C11.41143311 33.15010498 11.37364746 33.97599121 11.3347168 34.8269043 C11 37 11 37 9 40 C8 37 8 37 9 34 C9.79861514 20.33139471 8.21794176 11.24980377 0 0 Z " fill="#F1F8CD" transform="translate(57,16)"/>
<path d="M0 0 C5.625 4.5 5.625 4.5 7 9 C5.02 9.99 5.02 9.99 3 11 C3.33 12.65 3.66 14.3 4 16 C2.68 16 1.36 16 0 16 C0 10.72 0 5.44 0 0 Z " fill="#CDE079" transform="translate(53,16)"/>
<path d="M0 0 C1.35925589 2.71851177 1.06268395 4.99117026 1 8 C1 10.42797311 1.50085685 12.62907005 2 15 C1.34 14.34 0.68 13.68 0 13 C-0.66 14.98 -1.32 16.96 -2 19 C-2.66 19 -3.32 19 -4 19 C-5.33479628 11.2581816 -4.33388066 6.69781557 0 0 Z " fill="#E1ECAA" transform="translate(9,21)"/>
<path d="M0 0 C0.33 0 0.66 0 1 0 C1.33 9.24 1.66 18.48 2 28 C1.34 28 0.68 28 0 28 C-1.3440093 26.00715862 -2.67541292 24.00580329 -4 22 C-4.9075 21.113125 -5.815 20.22625 -6.75 19.3125 C-9 17 -9 17 -9 14 C-5.74833841 16.52907013 -2.93294173 19.06705827 0 22 C0 14.74 0 7.48 0 0 Z " fill="#A4B851" transform="translate(51,15)"/>
<path d="M0 0 C0.99 0.33 1.98 0.66 3 1 C2.67 2.65 2.34 4.3 2 6 C1.34 6 0.68 6 0 6 C0 6.66 0 7.32 0 8 C-0.66 8 -1.32 8 -2 8 C-2 8.66 -2 9.32 -2 10 C-2.66 10 -3.32 10 -4 10 C-4.2475 10.639375 -4.495 11.27875 -4.75 11.9375 C-6 14 -6 14 -8.125 14.75 C-9.053125 14.87375 -9.053125 14.87375 -10 15 C-10 15.66 -10 16.32 -10 17 C-10.66 16.67 -11.32 16.34 -12 16 C-11.34 15.01 -10.68 14.02 -10 13 C-9.34 13 -8.68 13 -8 13 C-8 12.01 -8 11.02 -8 10 C-7.34 10 -6.68 10 -6 10 C-5.71125 9.4225 -5.4225 8.845 -5.125 8.25 C-3.5625 5.125 -3.5625 5.125 -2 2 C-1.34 2 -0.68 2 0 2 C0 1.34 0 0.68 0 0 Z " fill="#BED65A" transform="translate(62,34)"/>
<path d="M0 0 C0.28875 0.639375 0.5775 1.27875 0.875 1.9375 C1.82823451 4.15206079 1.82823451 4.15206079 4 5 C4.99 4.67 5.98 4.34 7 4 C10 6 10 6 10.75 8 C11 10 11 10 10 12 C10.99 12.33 11.98 12.66 13 13 C8.7476422 12.74986131 6.52435219 12.43113402 3.1875 9.6875 C-0.12903226 5.61290323 -0.12903226 5.61290323 -1 3 C-0.67 2.01 -0.34 1.02 0 0 Z " fill="#C3D96A" transform="translate(22,43)"/>
<path d="M0 0 C0.99 0.33 1.98 0.66 3 1 C3 4.63 3 8.26 3 12 C5.35785318 11.10664203 5.35785318 11.10664203 6.125 7.9375 C6.558125 6.4834375 6.558125 6.4834375 7 5 C7.33 5 7.66 5 8 5 C8.6875 7.75 8.6875 7.75 9 11 C7.5625 13.375 7.5625 13.375 6 15 C5.34 14.67 4.68 14.34 4 14 C3.67 14.66 3.34 15.32 3 16 C2.01 15.67 1.02 15.34 0 15 C0 10.05 0 5.1 0 0 Z " fill="#D4E395" transform="translate(2,28)"/>
<path d="M0 0 C1.32 0 2.64 0 4 0 C4.33 1.65 4.66 3.3 5 5 C4.34 5 3.68 5 3 5 C3 12.26 3 19.52 3 27 C2.67 27 2.34 27 2 27 C2 22.05 2 17.1 2 12 C1.34 12 0.68 12 0 12 C0 8.04 0 4.08 0 0 Z " fill="#D2D2D0" transform="translate(18,52)"/>
<path d="M0 0 C0.33 0 0.66 0 1 0 C1 3.3 1 6.6 1 10 C-3.56756196 9.1216227 -5.52067674 8.614517 -8.4375 4.875 C-8.953125 3.92625 -9.46875 2.9775 -10 2 C-9.01 1.67 -8.02 1.34 -7 1 C-6.34 2.32 -5.68 3.64 -5 5 C-4.01 5 -3.02 5 -2 5 C-1.34 3.35 -0.68 1.7 0 0 Z " fill="#9EBC48" transform="translate(15,58)"/>
<path d="M0 0 C2.97 0 5.94 0 9 0 C9 0.66 9 1.32 9 2 C8.01 2 7.02 2 6 2 C6 4.97 6 7.94 6 11 C5.01 11 4.02 11 3 11 C3 8.03 3 5.06 3 2 C2.01 2 1.02 2 0 2 C0 1.34 0 0.68 0 0 Z " fill="#3F3F3F" transform="translate(453,11)"/>
<path d="M0 0 C2.62156724 1.80232748 3.66216202 3.49864834 5 6.375 C5.1875 9.1875 5.1875 9.1875 5 11.375 C4.34 11.375 3.68 11.375 3 11.375 C3 10.385 3 9.395 3 8.375 C2.01 8.375 1.02 8.375 0 8.375 C-0.0825 7.42625 -0.165 6.4775 -0.25 5.5 C-0.65074923 2.27038209 -0.65074923 2.27038209 -3.0625 1 C-3.701875 0.79375 -4.34125 0.5875 -5 0.375 C-2 -0.625 -2 -0.625 0 0 Z " fill="#E2EFA7" transform="translate(25,11.625)"/>
<path d="M0 0 C0.66 0 1.32 0 2 0 C2.69699552 1.45381897 3.38233866 2.91322953 4.0625 4.375 C4.63677734 5.59316406 4.63677734 5.59316406 5.22265625 6.8359375 C5.47917969 7.55007812 5.73570312 8.26421875 6 9 C5.67 9.66 5.34 10.32 5 11 C4.01 10.67 3.02 10.34 2 10 C2 10.99 2 11.98 2 13 C1.34 13 0.68 13 0 13 C0 8.71 0 4.42 0 0 Z " fill="#F0F6D6" transform="translate(0,51)"/>
<path d="M0 0 C-1.28813342 0.83878455 -2.58063256 1.67086783 -3.875 2.5 C-4.59429688 2.9640625 -5.31359375 3.428125 -6.0546875 3.90625 C-8 5 -8 5 -10 5 C-10 5.66 -10 6.32 -10 7 C-10.66 7 -11.32 7 -12 7 C-12.125 4.625 -12.125 4.625 -12 2 C-8.51900375 -1.48099625 -4.51091121 -1.29859565 0 0 Z " fill="#F6FADB" transform="translate(22,9)"/>
<path d="M0 0 C0.33 0.66 0.66 1.32 1 2 C1.99 2.33 2.98 2.66 4 3 C4.6875 5.0625 4.6875 5.0625 5 7 C4.01 7.495 4.01 7.495 3 8 C2.59270772 10.32156597 2.25561323 12.6568787 2 15 C0.68 15 -0.64 15 -2 15 C-2.33 14.01 -2.66 13.02 -3 12 C-2.34 11.01 -1.68 10.02 -1 9 C-0.34 9 0.32 9 1 9 C1.08886184 5.80097361 0.91058531 3.07322544 0 0 Z " fill="#373938" transform="translate(39,0)"/>
<path d="M0 0 C1.32 0 2.64 0 4 0 C3.625 1.9375 3.625 1.9375 3 4 C2.01 4.495 2.01 4.495 1 5 C-0.13350534 7.01669827 -0.13350534 7.01669827 -1 9 C-1 8.34 -1 7.68 -1 7 C-1.66 7 -2.32 7 -3 7 C-4.38938077 5.03852126 -5.7260411 3.03833424 -7 1 C-4.03 1.495 -4.03 1.495 -1 2 C-0.67 1.34 -0.34 0.68 0 0 Z " fill="#A3BC56" transform="translate(41,64)"/>
<path d="M0 0 C2.93200474 2.85276137 5.64315404 5.65079784 8 9 C7.34 10.32 6.68 11.64 6 13 C4.98528829 11.78294994 3.9887539 10.55073116 3 9.3125 C2.443125 8.62800781 1.88625 7.94351563 1.3125 7.23828125 C-0.22741897 4.61216944 -0.25168194 2.99396644 0 0 Z " fill="#EDF1D7" transform="translate(22,52)"/>
<path d="M0 0 C1.98 0.99 1.98 0.99 4 2 C4.33 2.99 4.66 3.98 5 5 C4.01 5.33 3.02 5.66 2 6 C1.67 11.94 1.34 17.88 1 24 C0.67 24 0.34 24 0 24 C0 16.08 0 8.16 0 0 Z " fill="#EFFAC5" transform="translate(17,47)"/>
<path d="M0 0 C3.04064193 3.07273313 3.36526876 5.64063575 3.36132812 9.89257812 C3.34521484 10.60865234 3.32910156 11.32472656 3.3125 12.0625 C3.31572266 12.78244141 3.31894531 13.50238281 3.32226562 14.24414062 C3.28374156 18.01599709 3.13773952 19.79339072 1 23 C1.01740234 21.67935547 1.01740234 21.67935547 1.03515625 20.33203125 C1.04417969 19.17058594 1.05320312 18.00914063 1.0625 16.8125 C1.07410156 15.66394531 1.08570312 14.51539063 1.09765625 13.33203125 C1.01163389 10.39694828 0.63397109 7.8528699 0 5 C-0.0370279 3.3337447 -0.04759962 1.66598681 0 0 Z " fill="#A5BC5B" transform="translate(64,30)"/>
<path d="M0 0 C0.66 0.33 1.32 0.66 2 1 C1.67 6.61 1.34 12.22 1 18 C0.34 17.67 -0.32 17.34 -1 17 C-1.02684679 14.35409986 -1.04676357 11.70846904 -1.0625 9.0625 C-1.07087891 8.30775391 -1.07925781 7.55300781 -1.08789062 6.77539062 C-1.09652441 4.85005687 -1.05224333 2.92464419 -1 1 C-0.67 0.67 -0.34 0.34 0 0 Z " fill="#9FC331" transform="translate(1,31)"/>
<path d="M0 0 C3.68069887 1.53643852 5.98775204 3.78150945 8.75 6.625 C9.54921875 7.44226562 10.3484375 8.25953125 11.171875 9.1015625 C12.07679688 10.04128906 12.07679688 10.04128906 13 11 C12.34 11.66 11.68 12.32 11 13 C6.15815983 9.36861987 2.47758939 5.57457614 0 0 Z " fill="#171717" transform="translate(119,29)"/>
<path d="M0 0 C3.39969985 1.20634511 5.21754613 2.88070574 7 6 C7.1875 8.75 7.1875 8.75 7 11 C6.34 10.67 5.68 10.34 5 10 C5 9.34 5 8.68 5 8 C4.34 8 3.68 8 3 8 C1.7109375 6.46875 1.7109375 6.46875 0.375 4.5 C-0.29402344 3.52546875 -0.29402344 3.52546875 -0.9765625 2.53125 C-1.31429687 2.0259375 -1.65203125 1.520625 -2 1 C-1.34 0.67 -0.68 0.34 0 0 Z " fill="#EEF3D6" transform="translate(38,20)"/>
<path d="M0 0 C0.66 0.33 1.32 0.66 2 1 C1.01 2.485 1.01 2.485 0 4 C0 5.32 0 6.64 0 8 C-0.99 8.66 -1.98 9.32 -3 10 C-3.66 10.99 -4.32 11.98 -5 13 C-4.64989059 4.80743982 -4.64989059 4.80743982 -1.9375 1.4375 C-1.298125 0.963125 -0.65875 0.48875 0 0 Z " fill="#232323" transform="translate(219,23)"/>
<path d="M0 0 C4 2 4 2 5.25 4.625 C5.4975 5.40875 5.745 6.1925 6 7 C3.69 7.66 1.38 8.32 -1 9 C-0.67 6.03 -0.34 3.06 0 0 Z " fill="#DAE79E" transform="translate(32,22)"/>
<path d="M0 0 C0.99 0.33 1.98 0.66 3 1 C2.443125 1.61875 1.88625 2.2375 1.3125 2.875 C-1.72478782 6.979443 -3.81940939 11.39752391 -6 16 C-6.33 16 -6.66 16 -7 16 C-7 14.35 -7 12.7 -7 11 C-6.01 10.67 -5.02 10.34 -4 10 C-3.896875 9.0925 -3.79375 8.185 -3.6875 7.25 C-2.99585051 3.98038425 -2.17865079 2.46282263 0 0 Z " fill="#F0F9CB" transform="translate(7,16)"/>
<path d="M0 0 C0.33 0 0.66 0 1 0 C1 7.59 1 15.18 1 23 C-0.32 22.34 -1.64 21.68 -3 21 C-3 20.34 -3 19.68 -3 19 C-3.66 18.67 -4.32 18.34 -5 18 C-3.68 18 -2.36 18 -1 18 C-0.505 9.09 -0.505 9.09 0 0 Z " fill="#AEC070" transform="translate(16,49)"/>
<path d="M0 0 C1.485 0.99 1.485 0.99 3 2 C2.814375 2.556875 2.62875 3.11375 2.4375 3.6875 C1.83300976 5.999262 1.83300976 5.999262 2.5625 8.25 C3.1933632 12.21542586 2.10768954 15.15566573 1 19 C0.67 19 0.34 19 0 19 C0 12.73 0 6.46 0 0 Z " fill="#2C2C38" transform="translate(21,57)"/>
<path d="M0 0 C1.32 0 2.64 0 4 0 C4 3.63 4 7.26 4 11 C3.34 11 2.68 11 2 11 C1.87625 10.195625 1.7525 9.39125 1.625 8.5625 C1.315625 7.2940625 1.315625 7.2940625 1 6 C0.34 5.67 -0.32 5.34 -1 5 C-0.67 3.35 -0.34 1.7 0 0 Z " fill="#1B1B1B" transform="translate(470,11)"/>
<path d="M0 0 C3.25543229 0.34879632 4.01873107 1.02133261 6.25 3.5625 C6.8275 4.366875 7.405 5.17125 8 6 C7.01 6.33 6.02 6.66 5 7 C4.01 7.495 4.01 7.495 3 8 C2.67 7.34 2.34 6.68 2 6 C-0.01669827 4.86649466 -0.01669827 4.86649466 -2 4 C-1.01 3.34 -0.02 2.68 1 2 C0.67 1.34 0.34 0.68 0 0 Z " fill="#E0E3CC" transform="translate(24,4)"/>
<path d="M0 0 C-5.5 5 -5.5 5 -10 5 C-10 4.01 -10 3.02 -10 2 C-8.71211992 1.46987262 -7.41953322 0.9511671 -6.125 0.4375 C-5.40570313 0.14746094 -4.68640625 -0.14257812 -3.9453125 -0.44140625 C-2 -1 -2 -1 0 0 Z " fill="#9AC02F" transform="translate(51,68)"/>
<path d="M0 0 C0.66 0.99 1.32 1.98 2 3 C-0.97 7.95 -0.97 7.95 -4 13 C-5.2046356 8.18145758 -4.39536735 7.16971354 -2 3 C-1.34 2.01 -0.68 1.02 0 0 Z " fill="#AABB6A" transform="translate(8,18)"/>
<path d="M0 0 C0.33 0 0.66 0 1 0 C0.125 6.875 0.125 6.875 -1 8 C-2.66617115 8.04063832 -4.33388095 8.042721 -6 8 C-5.02471263 6.66382648 -4.04466681 5.3311249 -3.0625 4 C-2.24458984 2.88625 -2.24458984 2.88625 -1.41015625 1.75 C-0.94480469 1.1725 -0.47945312 0.595 0 0 Z " fill="#F0F7D2" transform="translate(61,61)"/>
<path d="M0 0 C4.875 4.625 4.875 4.625 6 8 C6.66 8 7.32 8 8 8 C7.67 8.66 7.34 9.32 7 10 C3.73539027 8.19587357 2.11070205 7.16605307 0 4 C0 2.68 0 1.36 0 0 Z " fill="#AFC062" transform="translate(35,20)"/>
<path d="M0 0 C-0.66 0 -1.32 0 -2 0 C-2.2475 0.639375 -2.495 1.27875 -2.75 1.9375 C-4 4 -4 4 -6.125 4.75 C-7.053125 4.87375 -7.053125 4.87375 -8 5 C-8 5.66 -8 6.32 -8 7 C-8.66 6.67 -9.32 6.34 -10 6 C-9.34 5.01 -8.68 4.02 -8 3 C-7.34 3 -6.68 3 -6 3 C-6 2.01 -6 1.02 -6 0 C-3 -1 -3 -1 0 0 Z " fill="#B6D451" transform="translate(60,44)"/>
<path d="M0 0 C2.97 0 5.94 0 9 0 C8.34 1.32 7.68 2.64 7 4 C4.69 3.34 2.38 2.68 0 2 C0 1.34 0 0.68 0 0 Z " fill="#E5E7E5" transform="translate(40,0)"/>
<path d="M0 0 C0.66 0.99 1.32 1.98 2 3 C0.38405168 5.04119788 -1.2856382 7.04072937 -3 9 C-3.66 9 -4.32 9 -5 9 C-3.90931332 5.22454612 -3.0916909 2.52956528 0 0 Z " fill="#F9FDE8" transform="translate(67,53)"/>
<path d="M0 0 C0.66 0.33 1.32 0.66 2 1 C2 1.66 2 2.32 2 3 C2.99 3.33 3.98 3.66 5 4 C4.01 4.99 3.02 5.98 2 7 C0.68 5.35 -0.64 3.7 -2 2 C-1.34 2 -0.68 2 0 2 C0 1.34 0 0.68 0 0 Z " fill="#AFC65F" transform="translate(26,52)"/>
<path d="M0 0 C0.33 0 0.66 0 1 0 C1 1.98 1 3.96 1 6 C-0.32 6.33 -1.64 6.66 -3 7 C-3.33 5.35 -3.66 3.7 -4 2 C-3.01 2.33 -2.02 2.66 -1 3 C-0.67 2.01 -0.34 1.02 0 0 Z " fill="#F9FBF9" transform="translate(48,24)"/>
<path d="M0 0 C0.99 0.33 1.98 0.66 3 1 C2 3 1 5 0 7 C-0.66 7 -1.32 7 -2 7 C-2.6875 5.1875 -2.6875 5.1875 -3 3 C-1.5625 1.25 -1.5625 1.25 0 0 Z " fill="#0B0B0B" transform="translate(223,21)"/>
<path d="M0 0 C0.66 0.33 1.32 0.66 2 1 C3.23098442 4.9167686 2.83220851 8.02389268 2 12 C1.67 12 1.34 12 1 12 C0.63762737 10.37681021 0.28534843 8.7513642 -0.0625 7.125 C-0.25972656 6.22007813 -0.45695313 5.31515625 -0.66015625 4.3828125 C-1 2 -1 2 0 0 Z " fill="#E0EEB5" transform="translate(12,17)"/>
<path d="M0 0 C1.65 0 3.3 0 5 0 C4.34 2.31 3.68 4.62 3 7 C1.68 6.34 0.36 5.68 -1 5 C-0.67 3.35 -0.34 1.7 0 0 Z " fill="#EBEBEB" transform="translate(113,17)"/>
<path d="M0 0 C1.32 0.33 2.64 0.66 4 1 C4.12375 1.804375 4.2475 2.60875 4.375 3.4375 C4.684375 4.7059375 4.684375 4.7059375 5 6 C5.66 6.33 6.32 6.66 7 7 C6.01 7 5.02 7 4 7 C0 1.62857143 0 1.62857143 0 0 Z " fill="#A7BF6A" transform="translate(5,59)"/>
<path d="M0 0 C2.475 0.495 2.475 0.495 5 1 C5.33 3.31 5.66 5.62 6 8 C3.33264727 5.51047079 1.44253657 3.36591866 0 0 Z " fill="#EFF7CA" transform="translate(57,16)"/>
<path d="M0 0 C1.98 0.66 3.96 1.32 6 2 C2.6853333 4.02907167 0.5684021 4.12742133 -3.25 3.625 C-4.14203125 3.51414062 -5.0340625 3.40328125 -5.953125 3.2890625 C-6.62859375 3.19367187 -7.3040625 3.09828125 -8 3 C-8 2.67 -8 2.34 -8 2 C-6.865625 1.855625 -5.73125 1.71125 -4.5625 1.5625 C-1.19222799 1.38828522 -1.19222799 1.38828522 0 0 Z " fill="#D3D3D3" transform="translate(461,8)"/>
<path d="M0 0 C2.5 1.375 2.5 1.375 5 3 C5 3.66 5 4.32 5 5 C5.66 5.33 6.32 5.66 7 6 C5 7 5 7 2.9375 6.375 C1 5 1 5 0.25 2.375 C0.1675 1.59125 0.085 0.8075 0 0 Z " fill="#F0FAD3" transform="translate(8,65)"/>
<path d="M0 0 C2 1.25 2 1.25 4 3 C4 4.32 4 5.64 4 7 C2.68 6.34 1.36 5.68 0 5 C0 3.35 0 1.7 0 0 Z " fill="#F7F9EB" transform="translate(29,61)"/>
<path d="M0 0 C2.52259061 1.97420135 2.9929808 2.96745642 3.6875 6.1875 C3.790625 7.115625 3.89375 8.04375 4 9 C3.01 8.67 2.02 8.34 1 8 C-0.25 5.0625 -0.25 5.0625 -1 2 C-0.67 1.34 -0.34 0.68 0 0 Z " fill="#B0C176" transform="translate(62,24)"/>
<path d="M0 0 C1.32 0.33 2.64 0.66 4 1 C1.03 3.475 1.03 3.475 -2 6 C-2 3 -2 3 0 0 Z " fill="#A4BB5F" transform="translate(54,65)"/>
<path d="M0 0 C0.66 0.33 1.32 0.66 2 1 C1.67 4.63 1.34 8.26 1 12 C0.67 12 0.34 12 0 12 C-0.19401633 10.18818595 -0.38004375 8.37551468 -0.5625 6.5625 C-0.66691406 5.55316406 -0.77132813 4.54382812 -0.87890625 3.50390625 C-0.91886719 2.67761719 -0.95882813 1.85132813 -1 1 C-0.67 0.67 -0.34 0.34 0 0 Z " fill="#A9C54C" transform="translate(1,31)"/>
<path d="M0 0 C0.33 0.66 0.66 1.32 1 2 C1.99 2.33 2.98 2.66 4 3 C4.6875 5.0625 4.6875 5.0625 5 7 C4.01 7.33 3.02 7.66 2 8 C0.74335022 5.09399739 0 3.20395416 0 0 Z " fill="#3E403F" transform="translate(39,0)"/>
<path d="M0 0 C0.66 0.66 1.32 1.32 2 2 C2.99 1.67 3.98 1.34 5 1 C5 2.98 5 4.96 5 7 C2.5 5.1875 2.5 5.1875 0 3 C0 2.01 0 1.02 0 0 Z " fill="#2F2F28" transform="translate(27,2)"/>
<path d="M0 0 C-4.455 1.485 -4.455 1.485 -9 3 C-9 2.01 -9 1.02 -9 0 C-5.32431536 -0.91892116 -3.83619425 -0.95904856 0 0 Z " fill="#A7C15E" transform="translate(51,72)"/>
</svg>
